<?xml version="1.0" encoding="utf-8" standalone="no"?>
<!DOCTYPE svg PUBLIC "-//W3C//DTD SVG 1.1//EN"
  "http://www.w3.org/Graphics/SVG/1.1/DTD/svg11.dtd">
<!-- Created with matplotlib (https://matplotlib.org/) -->
<svg height="273.6pt" version="1.1" viewBox="0 0 417.6 273.6" width="417.6pt" xmlns="http://www.w3.org/2000/svg" xmlns:xlink="http://www.w3.org/1999/xlink">
 <metadata>
  <rdf:RDF xmlns:cc="http://creativecommons.org/ns#" xmlns:dc="http://purl.org/dc/elements/1.1/" xmlns:rdf="http://www.w3.org/1999/02/22-rdf-syntax-ns#">
   <cc:Work>
    <dc:type rdf:resource="http://purl.org/dc/dcmitype/StillImage"/>
    <dc:date>2021-07-28T10:46:10.170170</dc:date>
    <dc:format>image/svg+xml</dc:format>
    <dc:creator>
     <cc:Agent>
      <dc:title>Matplotlib v3.3.4, https://matplotlib.org/</dc:title>
     </cc:Agent>
    </dc:creator>
   </cc:Work>
  </rdf:RDF>
 </metadata>
 <defs>
  <style type="text/css">*{stroke-linecap:butt;stroke-linejoin:round;}</style>
 </defs>
 <g id="figure_1">
  <g id="patch_1">
   <path d="M 0 273.6 
L 417.6 273.6 
L 417.6 0 
L 0 0 
z
" style="fill:#ffffff;"/>
  </g>
  <g id="axes_1">
   <g id="patch_2">
    <path d="M 27.864513 104.167552 
L 191.993225 104.167552 
L 191.993225 6.481551 
L 27.864513 6.481551 
z
" style="fill:#ffffff;"/>
   </g>
   <g id="matplotlib.axis_1">
    <g id="xtick_1">
     <g id="line2d_1">
      <path clip-path="url(#p70d8e26da9)" d="M 27.864513 104.167552 
L 27.864513 6.481551 
" style="fill:none;stroke:#cccccc;stroke-linecap:round;stroke-width:0.8;"/>
     </g>
     <g id="text_1">
      <!-- $\mathdefault{0.0}$ -->
      <g style="fill:#262626;" transform="translate(22.230998 116.930654)scale(0.0833 -0.0833)">
       <defs>
        <path d="M 42 31.84375 
C 42 37.96875 41.90625 48.421875 37.703125 56.453125 
C 34 63.484375 28.09375 66 22.90625 66 
C 18.09375 66 12 63.78125 8.203125 56.5625 
C 4.203125 49.015625 3.796875 39.671875 3.796875 31.84375 
C 3.796875 26.109375 3.90625 17.375 7 9.734375 
C 11.296875 -0.609375 19 -2 22.90625 -2 
C 27.5 -2 34.5 -0.109375 38.59375 9.4375 
C 41.59375 16.375 42 24.5 42 31.84375 
z
M 22.90625 -0.40625 
C 16.5 -0.40625 12.703125 5.125 11.296875 12.75 
C 10.203125 18.6875 10.203125 27.328125 10.203125 32.953125 
C 10.203125 40.6875 10.203125 47.109375 11.5 53.234375 
C 13.40625 61.78125 19 64.390625 22.90625 64.390625 
C 27 64.390625 32.296875 61.671875 34.203125 53.4375 
C 35.5 47.71875 35.59375 40.984375 35.59375 32.953125 
C 35.59375 26.421875 35.59375 18.375 34.40625 12.453125 
C 32.296875 1.5 26.40625 -0.40625 22.90625 -0.40625 
z
" id="CMR17-48"/>
        <path d="M 18.40625 4.796875 
C 18.40625 7.6875 16 9.6875 13.59375 9.6875 
C 10.703125 9.6875 8.703125 7.296875 8.703125 4.890625 
C 8.703125 2 11.09375 0 13.5 0 
C 16.40625 0 18.40625 2.390625 18.40625 4.796875 
z
" id="CMMI12-58"/>
       </defs>
       <use transform="scale(0.996264)" xlink:href="#CMR17-48"/>
       <use transform="translate(45.690477 0)scale(0.996264)" xlink:href="#CMMI12-58"/>
       <use transform="translate(72.787654 0)scale(0.996264)" xlink:href="#CMR17-48"/>
      </g>
     </g>
    </g>
    <g id="xtick_2">
     <g id="line2d_2">
      <path clip-path="url(#p70d8e26da9)" d="M 60.690255 104.167552 
L 60.690255 6.481551 
" style="fill:none;stroke:#cccccc;stroke-linecap:round;stroke-width:0.8;"/>
     </g>
     <g id="text_2">
      <!-- $\mathdefault{0.2}$ -->
      <g style="fill:#262626;" transform="translate(55.056741 116.930654)scale(0.0833 -0.0833)">
       <defs>
        <path d="M 41.703125 15.46875 
L 39.90625 15.46875 
C 38.90625 8.390625 38.09375 7.1875 37.703125 6.59375 
C 37.203125 5.796875 30 5.796875 28.59375 5.796875 
L 9.40625 5.796875 
C 13 9.6875 20 16.765625 28.5 24.9375 
C 34.59375 30.71875 41.703125 37.5 41.703125 47.390625 
C 41.703125 59.1875 32.296875 66 21.796875 66 
C 10.796875 66 4.09375 56.296875 4.09375 47.296875 
C 4.09375 43.390625 7 42.890625 8.203125 42.890625 
C 9.203125 42.890625 12.203125 43.484375 12.203125 46.984375 
C 12.203125 50.09375 9.59375 51 8.203125 51 
C 7.59375 51 7 50.890625 6.59375 50.6875 
C 8.5 59.1875 14.296875 63.390625 20.40625 63.390625 
C 29.09375 63.390625 34.796875 56.5 34.796875 47.390625 
C 34.796875 38.703125 29.703125 31.21875 24 24.734375 
L 4.09375 2.296875 
L 4.09375 0 
L 39.296875 0 
z
" id="CMR17-50"/>
       </defs>
       <use transform="scale(0.996264)" xlink:href="#CMR17-48"/>
       <use transform="translate(45.690477 0)scale(0.996264)" xlink:href="#CMMI12-58"/>
       <use transform="translate(72.787654 0)scale(0.996264)" xlink:href="#CMR17-50"/>
      </g>
     </g>
    </g>
    <g id="xtick_3">
     <g id="line2d_3">
      <path clip-path="url(#p70d8e26da9)" d="M 93.515998 104.167552 
L 93.515998 6.481551 
" style="fill:none;stroke:#cccccc;stroke-linecap:round;stroke-width:0.8;"/>
     </g>
     <g id="text_3">
      <!-- $\mathdefault{0.4}$ -->
      <g style="fill:#262626;" transform="translate(87.882483 116.930654)scale(0.0833 -0.0833)">
       <defs>
        <path d="M 33.59375 64.796875 
C 33.59375 66.890625 33.5 67 31.703125 67 
L 2 19.59375 
L 2 17 
L 27.796875 17 
L 27.796875 7.1875 
C 27.796875 3.59375 27.59375 2.59375 20.59375 2.59375 
L 18.703125 2.59375 
L 18.703125 0 
C 21.90625 0.1875 27.296875 0.1875 30.703125 0.1875 
C 34.09375 0.1875 39.5 0.1875 42.703125 0 
L 42.703125 2.59375 
L 40.796875 2.59375 
C 33.796875 2.59375 33.59375 3.59375 33.59375 7.1875 
L 33.59375 17 
L 43.796875 17 
L 43.796875 19.59375 
L 33.59375 19.59375 
z
M 28.09375 58.171875 
L 28.09375 19.59375 
L 4 19.59375 
z
" id="CMR17-52"/>
       </defs>
       <use transform="scale(0.996264)" xlink:href="#CMR17-48"/>
       <use transform="translate(45.690477 0)scale(0.996264)" xlink:href="#CMMI12-58"/>
       <use transform="translate(72.787654 0)scale(0.996264)" xlink:href="#CMR17-52"/>
      </g>
     </g>
    </g>
    <g id="xtick_4">
     <g id="line2d_4">
      <path clip-path="url(#p70d8e26da9)" d="M 126.34174 104.167552 
L 126.34174 6.481551 
" style="fill:none;stroke:#cccccc;stroke-linecap:round;stroke-width:0.8;"/>
     </g>
     <g id="text_4">
      <!-- $\mathdefault{0.6}$ -->
      <g style="fill:#262626;" transform="translate(120.708225 116.930654)scale(0.0833 -0.0833)">
       <defs>
        <path d="M 10.59375 34.34375 
C 10.59375 58 21.796875 63.6875 28.296875 63.6875 
C 30.40625 63.6875 35.5 63.265625 37.5 59.09375 
C 35.90625 59.09375 32.90625 59.09375 32.90625 55.59375 
C 32.90625 52.890625 35.09375 52 36.5 52 
C 37.40625 52 40.09375 52.390625 40.09375 55.796875 
C 40.09375 62.296875 35.09375 66 28.203125 66 
C 16.296875 66 3.796875 53.296875 3.796875 31.421875 
C 3.796875 4.015625 15.09375 -2 23.09375 -2 
C 32.796875 -2 42 6.734375 42 20.234375 
C 42 32.828125 33.90625 42 23.703125 42 
C 17.59375 42 13.09375 37.96875 10.59375 30.921875 
z
M 23.09375 0.390625 
C 10.796875 0.390625 10.796875 18.9375 10.796875 22.65625 
C 10.796875 29.90625 14.203125 40.390625 23.5 40.390625 
C 25.203125 40.390625 30.09375 40.390625 33.40625 33.4375 
C 35.203125 29.515625 35.203125 25.375 35.203125 20.34375 
C 35.203125 14.90625 35.203125 10.875 33.09375 6.84375 
C 30.90625 2.703125 27.703125 0.390625 23.09375 0.390625 
z
" id="CMR17-54"/>
       </defs>
       <use transform="scale(0.996264)" xlink:href="#CMR17-48"/>
       <use transform="translate(45.690477 0)scale(0.996264)" xlink:href="#CMMI12-58"/>
       <use transform="translate(72.787654 0)scale(0.996264)" xlink:href="#CMR17-54"/>
      </g>
     </g>
    </g>
    <g id="xtick_5">
     <g id="line2d_5">
      <path clip-path="url(#p70d8e26da9)" d="M 159.167482 104.167552 
L 159.167482 6.481551 
" style="fill:none;stroke:#cccccc;stroke-linecap:round;stroke-width:0.8;"/>
     </g>
     <g id="text_5">
      <!-- $\mathdefault{0.8}$ -->
      <g style="fill:#262626;" transform="translate(153.533968 116.930654)scale(0.0833 -0.0833)">
       <defs>
        <path d="M 27.203125 35.765625 
C 33.5 38.96875 39.90625 43.796875 39.90625 51.53125 
C 39.90625 60.6875 31.09375 66 23 66 
C 13.90625 66 5.90625 59.375 5.90625 50.234375 
C 5.90625 47.71875 6.5 43.390625 10.40625 39.578125 
C 11.40625 38.578125 15.59375 35.5625 18.296875 33.65625 
C 13.796875 31.34375 3.296875 25.8125 3.296875 14.765625 
C 3.296875 4.40625 13.09375 -2 22.796875 -2 
C 33.5 -2 42.5 5.71875 42.5 15.96875 
C 42.5 25.109375 36.40625 29.328125 32.40625 32.046875 
z
M 14.09375 44.609375 
C 13.296875 45.109375 9.296875 48.21875 9.296875 52.9375 
C 9.296875 59.078125 15.59375 63.6875 22.796875 63.6875 
C 30.703125 63.6875 36.5 58.0625 36.5 51.53125 
C 36.5 42.1875 26.09375 36.859375 25.59375 36.859375 
C 25.5 36.859375 25.40625 36.859375 24.59375 37.46875 
z
M 32.5 24 
C 34 22.90625 38.796875 19.578125 38.796875 13.453125 
C 38.796875 6.015625 31.40625 0.390625 23 0.390625 
C 13.90625 0.390625 7 6.921875 7 14.859375 
C 7 22.796875 13.09375 29.4375 20 32.546875 
z
" id="CMR17-56"/>
       </defs>
       <use transform="scale(0.996264)" xlink:href="#CMR17-48"/>
       <use transform="translate(45.690477 0)scale(0.996264)" xlink:href="#CMMI12-58"/>
       <use transform="translate(72.787654 0)scale(0.996264)" xlink:href="#CMR17-56"/>
      </g>
     </g>
    </g>
    <g id="xtick_6">
     <g id="line2d_6">
      <path clip-path="url(#p70d8e26da9)" d="M 191.993225 104.167552 
L 191.993225 6.481551 
" style="fill:none;stroke:#cccccc;stroke-linecap:round;stroke-width:0.8;"/>
     </g>
     <g id="text_6">
      <!-- $\mathdefault{1.0}$ -->
      <g style="fill:#262626;" transform="translate(186.35971 116.930654)scale(0.0833 -0.0833)">
       <defs>
        <path d="M 26.59375 63.796875 
C 26.59375 65.890625 26.5 66 25.09375 66 
C 21.203125 61.359375 15.296875 59.890625 9.703125 59.6875 
C 9.40625 59.6875 8.90625 59.6875 8.796875 59.5 
C 8.703125 59.296875 8.703125 59.09375 8.703125 57 
C 11.796875 57 17 57.59375 21 59.984375 
L 21 7.296875 
C 21 3.796875 20.796875 2.59375 12.203125 2.59375 
L 9.203125 2.59375 
L 9.203125 0 
C 14 0.09375 19 0.1875 23.796875 0.1875 
C 28.59375 0.1875 33.59375 0.09375 38.40625 0 
L 38.40625 2.59375 
L 35.40625 2.59375 
C 26.796875 2.59375 26.59375 3.6875 26.59375 7.296875 
z
" id="CMR17-49"/>
       </defs>
       <use transform="scale(0.996264)" xlink:href="#CMR17-49"/>
       <use transform="translate(45.690477 0)scale(0.996264)" xlink:href="#CMMI12-58"/>
       <use transform="translate(72.787654 0)scale(0.996264)" xlink:href="#CMR17-48"/>
      </g>
     </g>
    </g>
   </g>
   <g id="matplotlib.axis_2">
    <g id="ytick_1">
     <g id="line2d_7">
      <path clip-path="url(#p70d8e26da9)" d="M 27.864513 104.167552 
L 191.993225 104.167552 
" style="fill:none;stroke:#cccccc;stroke-linecap:round;stroke-width:0.8;"/>
     </g>
     <g id="text_7">
      <!-- $\mathdefault{0.0}$ -->
      <g style="fill:#262626;" transform="translate(9.597484 107.049103)scale(0.0833 -0.0833)">
       <use transform="scale(0.996264)" xlink:href="#CMR17-48"/>
       <use transform="translate(45.690477 0)scale(0.996264)" xlink:href="#CMMI12-58"/>
       <use transform="translate(72.787654 0)scale(0.996264)" xlink:href="#CMR17-48"/>
      </g>
     </g>
    </g>
    <g id="ytick_2">
     <g id="line2d_8">
      <path clip-path="url(#p70d8e26da9)" d="M 27.864513 84.630352 
L 191.993225 84.630352 
" style="fill:none;stroke:#cccccc;stroke-linecap:round;stroke-width:0.8;"/>
     </g>
     <g id="text_8">
      <!-- $\mathdefault{0.2}$ -->
      <g style="fill:#262626;" transform="translate(9.597484 87.511903)scale(0.0833 -0.0833)">
       <use transform="scale(0.996264)" xlink:href="#CMR17-48"/>
       <use transform="translate(45.690477 0)scale(0.996264)" xlink:href="#CMMI12-58"/>
       <use transform="translate(72.787654 0)scale(0.996264)" xlink:href="#CMR17-50"/>
      </g>
     </g>
    </g>
    <g id="ytick_3">
     <g id="line2d_9">
      <path clip-path="url(#p70d8e26da9)" d="M 27.864513 65.093152 
L 191.993225 65.093152 
" style="fill:none;stroke:#cccccc;stroke-linecap:round;stroke-width:0.8;"/>
     </g>
     <g id="text_9">
      <!-- $\mathdefault{0.4}$ -->
      <g style="fill:#262626;" transform="translate(9.597484 67.974703)scale(0.0833 -0.0833)">
       <use transform="scale(0.996264)" xlink:href="#CMR17-48"/>
       <use transform="translate(45.690477 0)scale(0.996264)" xlink:href="#CMMI12-58"/>
       <use transform="translate(72.787654 0)scale(0.996264)" xlink:href="#CMR17-52"/>
      </g>
     </g>
    </g>
    <g id="ytick_4">
     <g id="line2d_10">
      <path clip-path="url(#p70d8e26da9)" d="M 27.864513 45.555951 
L 191.993225 45.555951 
" style="fill:none;stroke:#cccccc;stroke-linecap:round;stroke-width:0.8;"/>
     </g>
     <g id="text_10">
      <!-- $\mathdefault{0.6}$ -->
      <g style="fill:#262626;" transform="translate(9.597484 48.437502)scale(0.0833 -0.0833)">
       <use transform="scale(0.996264)" xlink:href="#CMR17-48"/>
       <use transform="translate(45.690477 0)scale(0.996264)" xlink:href="#CMMI12-58"/>
       <use transform="translate(72.787654 0)scale(0.996264)" xlink:href="#CMR17-54"/>
      </g>
     </g>
    </g>
    <g id="ytick_5">
     <g id="line2d_11">
      <path clip-path="url(#p70d8e26da9)" d="M 27.864513 26.018751 
L 191.993225 26.018751 
" style="fill:none;stroke:#cccccc;stroke-linecap:round;stroke-width:0.8;"/>
     </g>
     <g id="text_11">
      <!-- $\mathdefault{0.8}$ -->
      <g style="fill:#262626;" transform="translate(9.597484 28.900302)scale(0.0833 -0.0833)">
       <use transform="scale(0.996264)" xlink:href="#CMR17-48"/>
       <use transform="translate(45.690477 0)scale(0.996264)" xlink:href="#CMMI12-58"/>
       <use transform="translate(72.787654 0)scale(0.996264)" xlink:href="#CMR17-56"/>
      </g>
     </g>
    </g>
    <g id="ytick_6">
     <g id="line2d_12">
      <path clip-path="url(#p70d8e26da9)" d="M 27.864513 6.481551 
L 191.993225 6.481551 
" style="fill:none;stroke:#cccccc;stroke-linecap:round;stroke-width:0.8;"/>
     </g>
     <g id="text_12">
      <!-- $\mathdefault{1.0}$ -->
      <g style="fill:#262626;" transform="translate(9.597484 9.363102)scale(0.0833 -0.0833)">
       <use transform="scale(0.996264)" xlink:href="#CMR17-49"/>
       <use transform="translate(45.690477 0)scale(0.996264)" xlink:href="#CMMI12-58"/>
       <use transform="translate(72.787654 0)scale(0.996264)" xlink:href="#CMR17-48"/>
      </g>
     </g>
    </g>
   </g>
   <g id="patch_3">
    <path d="M 27.864513 104.167552 
L 27.864513 6.481551 
" style="fill:none;stroke:#cccccc;stroke-linecap:square;stroke-linejoin:miter;stroke-width:0.8;"/>
   </g>
   <g id="patch_4">
    <path d="M 191.993225 104.167552 
L 191.993225 6.481551 
" style="fill:none;stroke:#cccccc;stroke-linecap:square;stroke-linejoin:miter;stroke-width:0.8;"/>
   </g>
   <g id="patch_5">
    <path d="M 27.864513 104.167552 
L 191.993225 104.167552 
" style="fill:none;stroke:#cccccc;stroke-linecap:square;stroke-linejoin:miter;stroke-width:0.8;"/>
   </g>
   <g id="patch_6">
    <path d="M 27.864513 6.481551 
L 191.993225 6.481551 
" style="fill:none;stroke:#cccccc;stroke-linecap:square;stroke-linejoin:miter;stroke-width:0.8;"/>
   </g>
  </g>
  <g id="axes_2">
   <g id="patch_7">
    <path d="M 241.053616 104.167552 
L 405.182328 104.167552 
L 405.182328 6.481551 
L 241.053616 6.481551 
z
" style="fill:#ffffff;"/>
   </g>
   <g id="matplotlib.axis_3">
    <g id="xtick_7">
     <g id="line2d_13">
      <path clip-path="url(#p77ca3e2c1b)" d="M 241.053616 104.167552 
L 241.053616 6.481551 
" style="fill:none;stroke:#cccccc;stroke-linecap:round;stroke-width:0.8;"/>
     </g>
     <g id="text_13">
      <!-- $\mathdefault{0}$ -->
      <g style="fill:#262626;" transform="translate(238.849198 116.930654)scale(0.0833 -0.0833)">
       <use transform="scale(0.996264)" xlink:href="#CMR17-48"/>
      </g>
     </g>
    </g>
    <g id="xtick_8">
     <g id="line2d_14">
      <path clip-path="url(#p77ca3e2c1b)" d="M 282.085794 104.167552 
L 282.085794 6.481551 
" style="fill:none;stroke:#cccccc;stroke-linecap:round;stroke-width:0.8;"/>
     </g>
     <g id="text_14">
      <!-- $\mathdefault{1000}$ -->
      <g style="fill:#262626;" transform="translate(273.268122 116.930654)scale(0.0833 -0.0833)">
       <use transform="scale(0.996264)" xlink:href="#CMR17-49"/>
       <use transform="translate(45.690477 0)scale(0.996264)" xlink:href="#CMR17-48"/>
       <use transform="translate(91.380954 0)scale(0.996264)" xlink:href="#CMR17-48"/>
       <use transform="translate(137.071431 0)scale(0.996264)" xlink:href="#CMR17-48"/>
      </g>
     </g>
    </g>
    <g id="xtick_9">
     <g id="line2d_15">
      <path clip-path="url(#p77ca3e2c1b)" d="M 323.117972 104.167552 
L 323.117972 6.481551 
" style="fill:none;stroke:#cccccc;stroke-linecap:round;stroke-width:0.8;"/>
     </g>
     <g id="text_15">
      <!-- $\mathdefault{2000}$ -->
      <g style="fill:#262626;" transform="translate(314.3003 116.930654)scale(0.0833 -0.0833)">
       <use transform="scale(0.996264)" xlink:href="#CMR17-50"/>
       <use transform="translate(45.690477 0)scale(0.996264)" xlink:href="#CMR17-48"/>
       <use transform="translate(91.380954 0)scale(0.996264)" xlink:href="#CMR17-48"/>
       <use transform="translate(137.071431 0)scale(0.996264)" xlink:href="#CMR17-48"/>
      </g>
     </g>
    </g>
    <g id="xtick_10">
     <g id="line2d_16">
      <path clip-path="url(#p77ca3e2c1b)" d="M 364.15015 104.167552 
L 364.15015 6.481551 
" style="fill:none;stroke:#cccccc;stroke-linecap:round;stroke-width:0.8;"/>
     </g>
     <g id="text_16">
      <!-- $\mathdefault{3000}$ -->
      <g style="fill:#262626;" transform="translate(355.332478 116.930654)scale(0.0833 -0.0833)">
       <defs>
        <path d="M 22.09375 34 
C 31 34 34.90625 26.140625 34.90625 17.09375 
C 34.90625 5.03125 28.5 0.390625 22.703125 0.390625 
C 17.40625 0.390625 8.796875 3.015625 6.09375 10.796875 
C 6.59375 10.59375 7.09375 10.59375 7.59375 10.59375 
C 10 10.59375 11.796875 12.1875 11.796875 14.796875 
C 11.796875 17.6875 9.59375 19 7.59375 19 
C 5.90625 19 3.296875 18.1875 3.296875 14.484375 
C 3.296875 5.234375 12.296875 -2 22.90625 -2 
C 34 -2 42.5 6.75 42.5 16.984375 
C 42.5 26.84375 34.5 34 25 35.09375 
C 32.59375 36.671875 39.90625 43.375 39.90625 52.390625 
C 39.90625 60.25 32 66 23 66 
C 13.90625 66 5.90625 60.34375 5.90625 52.296875 
C 5.90625 48.796875 8.5 48.1875 9.796875 48.1875 
C 11.90625 48.1875 13.703125 49.484375 13.703125 52.09375 
C 13.703125 54.6875 11.90625 56 9.796875 56 
C 9.40625 56 8.90625 56 8.5 55.796875 
C 11.40625 62.484375 19.296875 63.6875 22.796875 63.6875 
C 26.296875 63.6875 32.90625 61.96875 32.90625 52.296875 
C 32.90625 49.484375 32.5 44.546875 29.09375 40.21875 
C 26.09375 36.390625 22.703125 36.1875 19.40625 35.890625 
C 18.90625 35.890625 16.59375 35.6875 16.203125 35.6875 
C 15.5 35.59375 15.09375 35.5 15.09375 34.796875 
C 15.09375 34.09375 15.203125 34 17.203125 34 
z
" id="CMR17-51"/>
       </defs>
       <use transform="scale(0.996264)" xlink:href="#CMR17-51"/>
       <use transform="translate(45.690477 0)scale(0.996264)" xlink:href="#CMR17-48"/>
       <use transform="translate(91.380954 0)scale(0.996264)" xlink:href="#CMR17-48"/>
       <use transform="translate(137.071431 0)scale(0.996264)" xlink:href="#CMR17-48"/>
      </g>
     </g>
    </g>
    <g id="xtick_11">
     <g id="line2d_17">
      <path clip-path="url(#p77ca3e2c1b)" d="M 405.182328 104.167552 
L 405.182328 6.481551 
" style="fill:none;stroke:#cccccc;stroke-linecap:round;stroke-width:0.8;"/>
     </g>
     <g id="text_17">
      <!-- $\mathdefault{4000}$ -->
      <g style="fill:#262626;" transform="translate(396.364655 116.930654)scale(0.0833 -0.0833)">
       <use transform="scale(0.996264)" xlink:href="#CMR17-52"/>
       <use transform="translate(45.690477 0)scale(0.996264)" xlink:href="#CMR17-48"/>
       <use transform="translate(91.380954 0)scale(0.996264)" xlink:href="#CMR17-48"/>
       <use transform="translate(137.071431 0)scale(0.996264)" xlink:href="#CMR17-48"/>
      </g>
     </g>
    </g>
    <g id="text_18">
     <!-- Training epochs -->
     <g style="fill:#262626;" transform="translate(290.116681 129.462822)scale(0.1 -0.1)">
      <defs>
       <path d="M 36.203125 62.296875 
L 44.5 62.296875 
C 45.703125 62.296875 46.90625 62.1875 48.09375 62.1875 
L 60.59375 62.1875 
L 60.59375 68.6875 
L 3.40625 68.6875 
L 3.40625 62.1875 
L 15.90625 62.1875 
C 17.09375 62.1875 18.296875 62.296875 19.5 62.296875 
L 27.796875 62.296875 
L 27.796875 0 
L 36.203125 0 
z
" id="CMSS17-84"/>
       <path d="M 14.90625 21.390625 
C 14.90625 30.84375 21.796875 37.171875 30.59375 37.375 
L 30.59375 44 
C 24.203125 43.890625 18.203125 40.6875 14.59375 35.46875 
L 14.59375 43.484375 
L 7.5 43.484375 
L 7.5 0 
L 14.90625 0 
z
" id="CMSS17-114"/>
       <path d="M 37.59375 27.953125 
C 37.59375 37.484375 30.90625 44 21.90625 44 
C 17.5 44 12.703125 43.1875 7.203125 39.984375 
L 7.796875 33.328125 
C 10.296875 35.15625 14.59375 38.09375 21.796875 38.09375 
C 26.90625 38.09375 30 34.140625 30 27.84375 
L 30 24 
C 14 23.5 4 18.890625 4 11.109375 
C 4 7.0625 6.5 -1 14.796875 -1 
C 16.296875 -1 24.40625 -0.8125 30.203125 3.5 
L 30.203125 -0.203125 
L 37.59375 -0.203125 
z
M 30 12.875 
C 30 11.109375 30 8.734375 27 6.96875 
C 24.40625 5.296875 21.09375 5.09375 19.703125 5.09375 
C 14.703125 5.09375 11.296875 7.859375 11.296875 11.296875 
C 11.296875 18.203125 26.90625 18.890625 30 19 
z
" id="CMSS17-97"/>
       <path d="M 15.296875 66 
L 6.90625 66 
L 6.90625 57.59375 
L 15.296875 57.59375 
z
M 14.796875 43 
L 7.40625 43 
L 7.40625 0 
L 14.796875 0 
z
" id="CMSS17-105"/>
       <path d="M 40.90625 29.34375 
C 40.90625 35.671875 39.40625 44 28.09375 44 
C 21.703125 44 17.5 40.6875 14.703125 37.28125 
L 14.703125 43.484375 
L 7.40625 43.484375 
L 7.40625 0 
L 15 0 
L 15 24.3125 
C 15 30.65625 17.40625 37.890625 24.203125 37.890625 
C 33 37.890625 33.296875 31.953125 33.296875 28.53125 
L 33.296875 0 
L 40.90625 0 
z
" id="CMSS17-110"/>
       <path d="M 44.5 44 
C 38.796875 43.890625 33.90625 42.796875 29.90625 40.890625 
C 26.59375 43.484375 23.203125 44 20.90625 44 
C 12.203125 44 5.59375 36.8125 5.59375 28.5 
C 5.59375 23.140625 8.59375 19.09375 8.796875 18.890625 
C 7 16.390625 6 13.6875 6 10.6875 
C 6 7.1875 7.40625 4.6875 8.5 3.296875 
C 3.296875 0.09375 2.59375 -4.8125 2.59375 -6.703125 
C 2.59375 -14 11.703125 -20 23.40625 -20 
C 35.203125 -20 44.296875 -14 44.296875 -6.609375 
C 44.296875 7.1875 29 7.296875 24.796875 7.296875 
L 16.703125 7.296875 
C 15.203125 7.296875 11.203125 7.296875 11.203125 12.390625 
C 11.203125 14.390625 12.09375 15.6875 12.203125 15.796875 
C 13.703125 14.6875 16.796875 13 20.90625 13 
C 29.203125 13 36.09375 19.984375 36.09375 28.5 
C 36.09375 33.25 33.90625 36.703125 33 37.890625 
L 33.296875 37.890625 
C 33.59375 37.890625 37.796875 38.1875 39.296875 38.1875 
C 42.5 38.1875 42.796875 38.09375 45.59375 37.796875 
z
M 20.90625 18.5 
C 17.5 18.5 12.703125 20.578125 12.703125 28.5 
C 12.703125 37.109375 18.203125 38.484375 20.796875 38.484375 
C 24.203125 38.484375 29 36.40625 29 28.5 
C 29 19.875 23.5 18.5 20.90625 18.5 
z
M 24.703125 0 
C 27.09375 0 37.203125 0 37.203125 -6.8125 
C 37.203125 -11.109375 31 -14.5 23.5 -14.5 
C 15.90625 -14.5 9.703125 -11.203125 9.703125 -6.703125 
C 9.703125 -6.203125 9.703125 0 16.59375 0 
z
" id="CMSS17-103"/>
       <path d="M 39.09375 21.484375 
C 39.09375 24.796875 38.90625 31.265625 35.703125 36.671875 
C 32.203125 42.390625 26.5 44 22.203125 44 
C 11.796875 44 3 34.125 3 21.296875 
C 3 9.046875 12.09375 -1 23.59375 -1 
C 28.09375 -1 33.59375 0.296875 38.59375 3.890625 
C 38.59375 4.296875 38.40625 6.46875 38.296875 6.578125 
C 38.296875 6.765625 38 9.828125 38 10.234375 
C 33.203125 6.375 27.703125 5.09375 23.703125 5.09375 
C 17.296875 5.09375 10.40625 10.421875 10.09375 21.484375 
z
M 10.90625 27 
C 12.203125 32.59375 16.59375 37.890625 22.203125 37.890625 
C 23.703125 37.890625 30.703125 37.6875 32.5 27 
z
" id="CMSS17-101"/>
       <path d="M 15.09375 4.296875 
C 18.40625 1.09375 22.90625 -1 27.703125 -1 
C 37 -1 45 8.640625 45 21.59375 
C 45 33.546875 39 44 30.40625 44 
C 25.40625 44 19.40625 42.1875 14.90625 38.59375 
L 14.90625 43.1875 
L 7.5 43.1875 
L 7.5 -20 
L 15.09375 -20 
z
M 15.09375 32.625 
C 15.90625 33.84375 19.296875 37.6875 24.796875 37.6875 
C 31.796875 37.6875 37.40625 30.40625 37.40625 21.59375 
C 37.40625 11.578125 30.59375 5.09375 23.90625 5.09375 
C 21.90625 5.09375 19.796875 5.59375 17.796875 7.3125 
C 15.09375 9.75 15.09375 11.265625 15.09375 12.6875 
z
" id="CMSS17-112"/>
       <path d="M 44.203125 21.1875 
C 44.203125 33.984375 34.703125 44 23.5 44 
C 12 44 2.703125 33.6875 2.703125 21.1875 
C 2.703125 8.5 12.296875 -1 23.40625 -1 
C 34.796875 -1 44.203125 8.796875 44.203125 21.1875 
z
M 23.5 5.296875 
C 16.40625 5.296875 10.296875 11.09375 10.296875 21.984375 
C 10.296875 33.59375 17.40625 37.890625 23.40625 37.890625 
C 29.90625 37.890625 36.59375 33.1875 36.59375 21.984375 
C 36.59375 10.6875 30.09375 5.296875 23.5 5.296875 
z
" id="CMSS17-111"/>
       <path d="M 38.5 39.6875 
C 38.5 40.390625 33.90625 42.390625 32.703125 42.796875 
C 29.40625 44 25.203125 44 24.09375 44 
C 11.09375 44 3.296875 32.6875 3.296875 21.296875 
C 3.296875 9.296875 12 -1 23.703125 -1 
C 30.40625 -1 35.203125 1.1875 39.09375 3.796875 
L 38.5 10.390625 
C 34.203125 7.09375 29.203125 5.296875 23.796875 5.296875 
C 16 5.296875 10.90625 12.09375 10.90625 21.390625 
C 10.90625 28.59375 14.203125 37.6875 24.203125 37.6875 
C 29.703125 37.6875 32.796875 36.59375 37.40625 33.484375 
z
" id="CMSS17-99"/>
       <path d="M 40.90625 29.34375 
C 40.90625 35.671875 39.40625 44 28.09375 44 
C 21.796875 44 17.703125 40.890625 14.796875 37.484375 
L 14.796875 69 
L 7.40625 69 
L 7.40625 0 
L 15 0 
L 15 24.3125 
C 15 30.65625 17.40625 37.890625 24.203125 37.890625 
C 33 37.890625 33.296875 31.953125 33.296875 28.53125 
L 33.296875 0 
L 40.90625 0 
z
" id="CMSS17-104"/>
       <path d="M 32.203125 40.984375 
C 26.296875 43.796875 21.703125 44 18.703125 44 
C 11.59375 44 3.09375 41.484375 3.09375 31.390625 
C 3.09375 21.296875 14.09375 19.09375 17.09375 18.484375 
C 21.703125 17.59375 26.796875 16.59375 26.796875 11.59375 
C 26.796875 5.296875 19.59375 5.296875 18.296875 5.296875 
C 14.296875 5.296875 8.796875 6.390625 3.796875 9.984375 
L 2.59375 3.296875 
C 8.296875 0 13.796875 -1 18.40625 -1 
C 30.703125 -1 33.796875 6.5 33.796875 12.1875 
C 33.796875 17.09375 31 20.390625 29.09375 21.890625 
C 25.796875 24.484375 24.59375 24.796875 16.40625 26.484375 
C 15 26.6875 10.09375 27.796875 10.09375 32.296875 
C 10.09375 37.984375 16.40625 37.984375 17.796875 37.984375 
C 24.296875 37.984375 28.296875 35.984375 31 34.484375 
z
" id="CMSS17-115"/>
      </defs>
      <use transform="scale(0.996264)" xlink:href="#CMSS17-84"/>
      <use transform="translate(56.012199 0)scale(0.996264)" xlink:href="#CMSS17-114"/>
      <use transform="translate(87.921971 0)scale(0.996264)" xlink:href="#CMSS17-97"/>
      <use transform="translate(132.843892 0)scale(0.996264)" xlink:href="#CMSS17-105"/>
      <use transform="translate(155.024615 0)scale(0.996264)" xlink:href="#CMSS17-110"/>
      <use transform="translate(203.229558 0)scale(0.996264)" xlink:href="#CMSS17-105"/>
      <use transform="translate(225.410281 0)scale(0.996264)" xlink:href="#CMSS17-110"/>
      <use transform="translate(273.615224 0)scale(0.996264)" xlink:href="#CMSS17-103"/>
      <use transform="translate(351.68796 0)scale(0.996264)" xlink:href="#CMSS17-101"/>
      <use transform="translate(393.326782 0)scale(0.996264)" xlink:href="#CMSS17-112"/>
      <use transform="translate(444.134164 0)scale(0.996264)" xlink:href="#CMSS17-111"/>
      <use transform="translate(493.580226 0)scale(0.996264)" xlink:href="#CMSS17-99"/>
      <use transform="translate(535.219049 0)scale(0.996264)" xlink:href="#CMSS17-104"/>
      <use transform="translate(583.423992 0)scale(0.996264)" xlink:href="#CMSS17-115"/>
     </g>
    </g>
   </g>
   <g id="matplotlib.axis_4">
    <g id="ytick_7">
     <g id="line2d_18">
      <path clip-path="url(#p77ca3e2c1b)" d="M 241.053616 104.167552 
L 405.182328 104.167552 
" style="fill:none;stroke:#cccccc;stroke-linecap:round;stroke-width:0.8;"/>
     </g>
     <g id="text_19">
      <!-- $\mathdefault{10^{0}}$ -->
      <g style="fill:#262626;" transform="translate(221.282416 107.049103)scale(0.0833 -0.0833)">
       <use transform="scale(0.996264)" xlink:href="#CMR17-49"/>
       <use transform="translate(45.690477 0)scale(0.996264)" xlink:href="#CMR17-48"/>
       <use transform="translate(91.380954 36.153639)scale(0.697382)" xlink:href="#CMR17-48"/>
      </g>
     </g>
    </g>
    <g id="ytick_8">
     <g id="line2d_19">
      <path clip-path="url(#p77ca3e2c1b)" d="M 241.053616 55.324552 
L 405.182328 55.324552 
" style="fill:none;stroke:#cccccc;stroke-linecap:round;stroke-width:0.8;"/>
     </g>
     <g id="text_20">
      <!-- $\mathdefault{10^{2}}$ -->
      <g style="fill:#262626;" transform="translate(221.282416 58.206103)scale(0.0833 -0.0833)">
       <use transform="scale(0.996264)" xlink:href="#CMR17-49"/>
       <use transform="translate(45.690477 0)scale(0.996264)" xlink:href="#CMR17-48"/>
       <use transform="translate(91.380954 36.153639)scale(0.697382)" xlink:href="#CMR17-50"/>
      </g>
     </g>
    </g>
    <g id="ytick_9">
     <g id="line2d_20">
      <path clip-path="url(#p77ca3e2c1b)" d="M 241.053616 6.481551 
L 405.182328 6.481551 
" style="fill:none;stroke:#cccccc;stroke-linecap:round;stroke-width:0.8;"/>
     </g>
     <g id="text_21">
      <!-- $\mathdefault{10^{4}}$ -->
      <g style="fill:#262626;" transform="translate(221.282416 9.363102)scale(0.0833 -0.0833)">
       <use transform="scale(0.996264)" xlink:href="#CMR17-49"/>
       <use transform="translate(45.690477 0)scale(0.996264)" xlink:href="#CMR17-48"/>
       <use transform="translate(91.380954 36.153639)scale(0.697382)" xlink:href="#CMR17-52"/>
      </g>
     </g>
    </g>
    <g id="text_22">
     <!-- Average cost -->
     <g style="fill:#262626;" transform="translate(215.345238 82.030009)rotate(-90)scale(0.1 -0.1)">
      <defs>
       <path d="M 35.5 69 
L 26.90625 69 
L 2.59375 0 
L 10.203125 0 
L 17.203125 20 
L 44 20 
L 51.09375 0 
L 59.796875 0 
z
M 42.09375 25.59375 
L 19.09375 25.59375 
C 23.90625 39.53125 29.90625 56.84375 30.59375 61.3125 
L 30.703125 61.3125 
C 31.40625 57.234375 33.40625 51.265625 35.09375 46.1875 
z
" id="CMSS17-65"/>
       <path d="M 41.796875 43 
L 34 43 
L 27.296875 24.296875 
C 25.203125 18.1875 22.203125 9.796875 21.703125 5.5 
L 21.59375 5.5 
C 21.40625 7.296875 20.59375 9.890625 20.09375 11.6875 
C 19.5 13.890625 18.703125 16.5 18.09375 18.296875 
L 9.296875 43 
L 1.296875 43 
L 17.09375 0 
L 26 0 
z
" id="CMSS17-118"/>
       <path d="M 16.703125 37.1875 
L 29.703125 37.1875 
L 29.703125 43 
L 16.703125 43 
L 16.703125 55 
L 9.59375 55 
L 9.59375 43 
L 1.703125 43 
L 1.703125 37.1875 
L 9.40625 37.1875 
L 9.40625 11.734375 
C 9.40625 6 10.703125 -1 17.296875 -1 
C 22.296875 -1 26.90625 0.390625 31.296875 2.6875 
L 29.703125 8.609375 
C 27.296875 6.5 24.40625 5.296875 21.296875 5.296875 
C 16.90625 5.296875 16.703125 10.921875 16.703125 13.4375 
z
" id="CMSS17-116"/>
      </defs>
      <use transform="scale(0.996264)" xlink:href="#CMSS17-65"/>
      <use transform="translate(62.217855 0)scale(0.996264)" xlink:href="#CMSS17-118"/>
      <use transform="translate(105.217997 0)scale(0.996264)" xlink:href="#CMSS17-101"/>
      <use transform="translate(146.856819 0)scale(0.996264)" xlink:href="#CMSS17-114"/>
      <use transform="translate(178.766591 0)scale(0.996264)" xlink:href="#CMSS17-97"/>
      <use transform="translate(223.688512 0)scale(0.996264)" xlink:href="#CMSS17-103"/>
      <use transform="translate(270.532135 0)scale(0.996264)" xlink:href="#CMSS17-101"/>
      <use transform="translate(343.40007 0)scale(0.996264)" xlink:href="#CMSS17-99"/>
      <use transform="translate(385.038892 0)scale(0.996264)" xlink:href="#CMSS17-111"/>
      <use transform="translate(431.882516 0)scale(0.996264)" xlink:href="#CMSS17-115"/>
      <use transform="translate(467.796058 0)scale(0.996264)" xlink:href="#CMSS17-116"/>
     </g>
    </g>
   </g>
   <g id="LineCollection_1">
    <path clip-path="url(#p77ca3e2c1b)" d="M 241.053616 79.746052 
L 418.6 79.746052 
" style="fill:none;stroke:#000000;stroke-dasharray:3.7,1.6;stroke-dashoffset:0;"/>
   </g>
   <g id="line2d_21">
    <path clip-path="url(#p77ca3e2c1b)" d="M 241.053616 15.544905 
L 241.094648 15.644665 
L 241.217745 16.582314 
L 241.258777 16.593799 
L 241.422905 17.142424 
L 241.463938 17.27626 
L 241.587034 17.915735 
L 241.710131 17.915735 
L 241.833227 18.524937 
L 241.956324 18.62113 
L 242.325613 18.773725 
L 242.489742 20.030551 
L 242.612839 20.048223 
L 242.735935 20.191058 
L 243.064193 20.191058 
L 243.187289 20.31439 
L 243.679675 20.389316 
L 243.802772 21.000191 
L 243.843804 21.000191 
L 243.9669 21.140326 
L 244.048965 21.140326 
L 244.172061 21.858103 
L 244.623415 21.858103 
L 244.746512 22.002811 
L 245.320962 22.093222 
L 245.485091 22.393885 
L 245.567155 22.393885 
L 245.690252 23.12102 
L 246.305735 23.12102 
L 246.428831 23.258812 
L 247.331539 23.364673 
L 247.454636 24.233079 
L 247.495668 24.233079 
L 247.618764 24.371726 
L 248.234247 24.371726 
L 248.357343 25.240811 
L 248.398376 25.240811 
L 248.521472 25.382319 
L 248.84973 25.382319 
L 248.972826 25.515245 
L 249.629341 25.515245 
L 249.752438 25.644628 
L 250.860306 25.644628 
L 250.983403 25.796047 
L 251.845079 25.796047 
L 251.968175 26.162667 
L 252.2554 26.162667 
L 252.378497 26.957735 
L 252.419529 26.957735 
L 252.542626 27.081343 
L 253.035012 27.081343 
L 253.158108 27.964426 
L 253.732559 27.964426 
L 253.855655 28.101934 
L 255.373846 28.101934 
L 255.414878 28.233786 
L 255.537975 28.772798 
L 255.948296 28.772798 
L 256.071393 29.249039 
L 257.34339 29.249039 
L 257.466487 29.389932 
L 257.999905 29.389932 
L 258.123002 30.423808 
L 259.066742 30.423808 
L 259.189838 30.558507 
L 261.28248 30.558507 
L 261.405576 31.389915 
L 261.446608 31.389915 
L 261.569705 31.520278 
L 262.595509 31.520278 
L 262.718606 32.501599 
L 263.498217 32.501599 
L 263.621314 32.638139 
L 265.549826 32.638139 
L 265.672923 32.77384 
L 266.247373 32.77384 
L 266.37047 33.858897 
L 267.683499 33.858897 
L 267.806596 33.996353 
L 268.545175 33.996353 
L 268.668272 35.117658 
L 270.104398 35.117658 
L 270.227494 35.247071 
L 272.525296 35.247071 
L 272.648393 35.377301 
L 274.987227 35.377301 
L 275.110324 35.508317 
L 277.736383 35.508317 
L 277.859479 36.293374 
L 277.900512 36.293374 
L 278.023608 36.422839 
L 278.146705 37.266602 
L 278.43393 37.266602 
L 278.557026 38.26671 
L 279.213541 38.26671 
L 279.336638 39.360049 
L 280.403474 39.360049 
L 280.526571 39.477062 
L 281.347215 39.477062 
L 281.470311 40.714451 
L 286.927591 40.825305 
L 287.050687 40.91895 
L 289.225393 40.91895 
L 289.348489 41.883719 
L 292.507967 41.9717 
L 292.631064 42.97817 
L 298.334536 43.069286 
L 298.457633 43.7049 
L 298.539697 43.7049 
L 298.662794 44.747948 
L 305.268974 44.670226 
L 305.392071 45.391584 
L 309.084967 45.309727 
L 309.249096 45.235919 
L 310.110771 45.235919 
L 310.233868 45.587285 
L 312.818895 45.535041 
L 312.983024 45.467502 
L 313.352313 45.467502 
L 313.47541 46.675006 
L 318.235143 46.675006 
L 318.358239 47.837551 
L 322.092167 47.837551 
L 322.1332 48.237902 
L 322.174232 47.837551 
L 322.297328 47.837551 
L 322.379393 48.237902 
L 322.420425 47.837551 
L 322.461457 48.237902 
L 322.543521 48.237902 
L 322.666618 47.837551 
L 322.70765 47.837551 
L 322.830747 48.237902 
L 322.871779 47.837551 
L 322.912811 48.237902 
L 323.117972 48.237902 
L 323.159004 47.837551 
L 323.200036 48.237902 
L 323.2821 48.237902 
L 323.323133 47.837551 
L 323.364165 48.237902 
L 323.610358 48.237902 
L 323.65139 47.837551 
L 323.692422 48.237902 
L 324.02068 48.237902 
L 324.061712 47.837551 
L 324.102744 48.237902 
L 324.472034 48.237902 
L 324.513066 47.837551 
L 324.554098 48.237902 
L 328.616284 48.237902 
L 328.73938 50.018843 
L 334.278724 50.018843 
L 334.401821 51.430436 
L 339.65394 51.430436 
L 339.777036 52.228627 
L 340.023229 52.228627 
L 340.146326 51.430436 
L 340.679744 51.430436 
L 340.80284 51.542782 
L 342.526192 51.606959 
L 342.649288 53.370545 
L 343.675093 53.333257 
L 343.798189 54.375099 
L 346.095991 54.450373 
L 346.219088 57.015155 
L 347.285925 57.015155 
L 347.409021 57.155137 
L 348.51689 57.155137 
L 348.639986 57.279642 
L 350.937788 57.379042 
L 351.101917 57.451904 
L 351.183982 57.451904 
L 351.307078 59.440066 
L 352.825269 59.520497 
L 352.948365 62.059087 
L 353.645912 62.059087 
L 353.769009 64.840534 
L 353.892105 65.104547 
L 354.138298 65.104547 
L 354.261395 70.064614 
L 354.425524 70.064614 
L 354.466556 65.104547 
L 354.507588 70.064614 
L 354.91791 70.064614 
L 354.958942 65.104547 
L 354.999974 70.064614 
L 355.082038 70.064614 
L 355.205135 70.606378 
L 355.369264 70.606378 
L 355.49236 65.274463 
L 355.533392 65.274463 
L 355.656489 70.606378 
L 355.984746 70.606378 
L 356.025779 65.274463 
L 356.066811 70.606378 
L 356.477132 70.606378 
L 356.518165 65.274463 
L 356.559197 70.606378 
L 356.682293 70.606378 
L 356.80539 71.152594 
L 356.969519 71.152594 
L 357.010551 65.691392 
L 357.051583 71.152594 
L 357.420873 71.152594 
L 357.543969 65.691392 
L 357.585001 65.691392 
L 357.708098 71.152594 
L 358.036355 71.152594 
L 358.077387 65.691392 
L 358.11842 71.152594 
L 358.32358 71.152594 
L 358.446677 71.702826 
L 358.487709 71.702826 
L 358.528741 66.019012 
L 358.569774 71.702826 
L 358.980095 71.702826 
L 359.021128 66.019012 
L 359.06216 71.702826 
L 359.431449 71.702826 
L 359.472481 66.019012 
L 359.513514 71.702826 
L 359.882803 71.702826 
L 360.0059 66.019012 
L 360.046932 66.133644 
L 360.170028 72.255739 
L 360.498286 72.255739 
L 360.539318 66.133644 
L 360.58035 72.255739 
L 360.990672 72.255739 
L 361.031704 66.133644 
L 361.072736 72.255739 
L 361.442026 72.255739 
L 361.483058 66.133644 
L 361.52409 72.255739 
L 361.647187 72.255739 
L 361.770283 72.804993 
L 361.934412 72.804993 
L 362.057509 66.659364 
L 362.098541 66.659364 
L 362.221637 72.804993 
L 362.508863 72.804993 
L 362.549895 66.659364 
L 362.590927 72.804993 
L 362.960217 72.804993 
L 363.001249 66.659364 
L 363.042281 72.804993 
L 363.411571 72.804993 
L 363.452603 66.659364 
L 363.493635 72.804993 
L 363.616731 72.804993 
L 363.739828 73.355183 
L 363.862925 73.355183 
L 363.903957 66.768246 
L 363.944989 73.355183 
L 364.314278 73.355183 
L 364.355311 66.768246 
L 364.396343 73.355183 
L 364.765632 73.355183 
L 364.806665 66.768246 
L 364.847697 73.355183 
L 365.216986 73.355183 
L 365.299051 66.768246 
L 365.340083 67.089694 
L 365.381115 67.089694 
L 365.504212 73.903432 
L 365.791437 73.903432 
L 365.832469 67.089694 
L 365.873501 73.903432 
L 366.242791 73.903432 
L 366.283823 67.089694 
L 366.324855 73.903432 
L 366.694145 73.903432 
L 366.735177 67.089694 
L 366.776209 73.903432 
L 367.145499 73.903432 
L 367.186531 67.089694 
L 367.227563 73.903432 
L 367.309627 73.903432 
L 367.432724 74.436776 
L 367.555821 74.436776 
L 367.596853 67.171412 
L 367.637885 74.436776 
L 368.007174 74.436776 
L 368.048207 67.171412 
L 368.089239 74.436776 
L 368.417496 74.436776 
L 368.458528 67.171412 
L 368.499561 74.436776 
L 368.827818 74.436776 
L 368.86885 67.171412 
L 368.909882 74.436776 
L 369.23814 74.436776 
L 369.279172 67.171412 
L 369.320204 74.436776 
L 369.361236 74.436776 
L 369.484333 74.962944 
L 369.648462 74.962944 
L 369.689494 67.457283 
L 369.730526 74.962944 
L 370.058783 74.962944 
L 370.099816 67.457283 
L 370.140848 74.962944 
L 370.469105 74.962944 
L 370.510137 67.457283 
L 370.55117 74.962944 
L 370.838395 74.962944 
L 370.879427 67.457283 
L 370.920459 74.962944 
L 371.166652 74.962944 
L 371.207684 67.059086 
L 371.248717 74.962944 
L 371.330781 74.962944 
L 371.371813 67.457283 
L 371.412845 74.962944 
L 371.535942 75.479389 
L 371.700071 75.479389 
L 371.741103 67.609757 
L 371.782135 75.479389 
L 372.028328 75.479389 
L 372.06936 67.279311 
L 372.110392 75.479389 
L 372.192457 75.479389 
L 372.315553 63.615051 
L 372.356585 63.615051 
L 372.479682 75.479389 
L 372.890004 75.479389 
L 372.931036 58.014294 
L 372.972068 75.479389 
L 373.505486 75.479389 
L 373.628583 75.980943 
L 373.751679 75.980943 
L 373.792712 67.768738 
L 373.833744 75.980943 
L 374.162001 75.980943 
L 374.203033 63.620303 
L 374.244066 75.980943 
L 374.818516 75.980943 
L 374.859548 62.228354 
L 374.90058 75.980943 
L 375.064709 75.980943 
L 375.187806 67.768738 
L 375.228838 67.768738 
L 375.351934 75.980943 
L 375.433999 75.980943 
L 375.475031 67.768738 
L 375.516063 75.980943 
L 375.598127 75.980943 
L 375.721224 76.46292 
L 375.84432 76.46292 
L 375.885353 67.857232 
L 375.926385 76.46292 
L 376.254642 76.46292 
L 376.295674 56.110741 
L 376.336707 76.46292 
L 377.116318 76.46292 
L 377.239415 67.857232 
L 377.280447 67.857232 
L 377.403543 76.46292 
L 377.52664 76.46292 
L 377.649736 67.857232 
L 377.690768 67.857232 
L 377.813865 76.46292 
L 377.936962 76.46292 
L 377.977994 67.857232 
L 378.060058 68.117815 
L 378.10109 68.117815 
L 378.224187 76.932198 
L 378.347283 76.932198 
L 378.47038 60.577176 
L 378.511412 60.577176 
L 378.634509 76.932198 
L 379.126895 76.932198 
L 379.167927 68.117815 
L 379.208959 76.932198 
L 379.455152 76.932198 
L 379.496184 67.802811 
L 379.537217 76.932198 
L 379.578249 76.932198 
L 379.701345 68.117815 
L 379.742377 68.117815 
L 379.865474 76.932198 
L 379.98857 76.932198 
L 380.111667 63.713642 
L 380.152699 63.714922 
L 380.275796 77.374725 
L 380.645085 77.374725 
L 380.686117 62.347699 
L 380.72715 77.374725 
L 381.014375 77.374725 
L 381.055407 68.120584 
L 381.096439 77.374725 
L 381.383665 77.374725 
L 381.424697 68.120584 
L 381.465729 77.374725 
L 381.793986 77.374725 
L 381.835018 68.120584 
L 381.876051 77.374725 
L 382.204308 77.374725 
L 382.24534 56.045443 
L 382.286372 77.374725 
L 382.901855 77.374725 
L 383.024952 77.785431 
L 383.065984 77.785431 
L 383.107016 68.293943 
L 383.148048 77.785431 
L 383.476306 77.785431 
L 383.517338 68.293943 
L 383.55837 77.785431 
L 383.886627 77.785431 
L 383.92766 68.293943 
L 383.968692 77.785431 
L 384.296949 77.785431 
L 384.337981 57.899489 
L 384.379014 77.785431 
L 385.158625 77.785431 
L 385.199657 68.293943 
L 385.240689 77.785431 
L 385.404818 77.785431 
L 385.527914 78.159755 
L 385.568947 78.159755 
L 385.609979 63.756125 
L 385.651011 78.159755 
L 386.102365 78.159755 
L 386.143397 62.41297 
L 386.184429 78.159755 
L 386.430622 78.159755 
L 386.471655 68.39405 
L 386.512687 78.159755 
L 386.840944 78.159755 
L 386.881976 68.39405 
L 386.923009 78.159755 
L 387.251266 78.159755 
L 387.292298 63.756125 
L 387.33333 78.159755 
L 387.948813 78.159755 
L 387.989845 55.956244 
L 388.030877 78.159755 
L 388.318103 78.159755 
L 388.441199 78.49683 
L 388.810489 78.49683 
L 388.851521 68.385813 
L 388.892553 78.49683 
L 389.220811 78.49683 
L 389.261843 68.385813 
L 389.302875 78.49683 
L 389.631132 78.49683 
L 389.672164 63.715835 
L 389.713197 78.49683 
L 390.205583 78.49683 
L 390.246615 60.41218 
L 390.287647 78.49683 
L 391.026226 78.49683 
L 391.067259 57.763991 
L 391.108291 78.49683 
L 391.518612 78.49683 
L 391.641709 78.795614 
L 391.887902 78.795614 
L 392.010999 68.559559 
L 392.052031 68.559559 
L 392.175127 78.795614 
L 392.298224 78.795614 
L 392.42132 63.736877 
L 392.462353 63.736877 
L 392.585449 78.795614 
L 392.954739 78.795614 
L 392.995771 62.385684 
L 393.036803 78.795614 
L 393.282996 78.795614 
L 393.324028 68.559559 
L 393.36506 78.795614 
L 393.693318 78.795614 
L 393.73435 68.559559 
L 393.775382 78.795614 
L 394.10364 78.795614 
L 394.144672 63.736877 
L 394.185704 78.795614 
L 394.431897 78.795614 
L 394.554994 79.035428 
L 394.637058 79.035428 
L 394.67809 68.322691 
L 394.760155 68.40144 
L 394.883251 79.035428 
L 395.129444 79.035428 
L 395.170476 63.620846 
L 395.211508 79.035428 
L 395.785959 79.035428 
L 395.826991 68.322691 
L 395.909056 68.40144 
L 396.032152 79.035428 
L 396.278345 79.035428 
L 396.319377 63.620846 
L 396.360409 79.035428 
L 396.975892 79.035428 
L 397.016924 55.738543 
L 397.057957 79.035428 
L 397.837568 79.035428 
L 397.8786 68.40144 
L 397.919632 79.035428 
L 398.165825 79.035428 
L 398.24789 79.242001 
L 398.288922 68.556962 
L 398.329954 79.242001 
L 398.658211 79.242001 
L 398.699244 68.556962 
L 398.740276 79.242001 
L 399.068533 79.242001 
L 399.109565 57.612915 
L 399.150598 79.242001 
L 399.930209 79.242001 
L 399.971241 68.556962 
L 400.012273 79.242001 
L 400.340531 79.242001 
L 400.381563 63.598225 
L 400.422595 79.242001 
L 400.873949 79.242001 
L 400.914981 62.341434 
L 400.956013 79.242001 
L 401.202206 79.242001 
L 401.243239 68.556962 
L 401.284271 79.242001 
L 401.612528 79.242001 
L 401.65356 68.556962 
L 401.694593 79.242001 
L 402.02285 79.242001 
L 402.063882 63.598225 
L 402.104914 79.242001 
L 402.638333 79.242001 
L 402.720397 79.406034 
L 402.761429 55.625163 
L 402.802461 79.406034 
L 403.582073 79.406034 
L 403.623105 68.59222 
L 403.664137 79.406034 
L 403.992395 79.406034 
L 404.033427 68.59222 
L 404.074459 79.406034 
L 404.402716 79.406034 
L 404.443749 63.707248 
L 404.484781 79.406034 
L 404.977167 79.406034 
L 405.018199 60.151427 
L 405.059231 79.406034 
L 405.22336 79.406034 
L 405.22336 79.406034 
" style="fill:none;stroke:#1f77b4;stroke-linecap:round;stroke-opacity:0.6;stroke-width:1.5;"/>
   </g>
   <g id="line2d_22">
    <path clip-path="url(#p77ca3e2c1b)" d="M 241.053616 -0.721715 
L 241.340841 -0.721715 
L 241.50497 -0.238953 
L 241.792195 -0.238953 
L 241.915292 0.006088 
L 242.161485 0.006088 
L 242.284581 0.253838 
L 242.571806 0.253838 
L 242.694903 0.504354 
L 243.02316 0.504354 
L 243.146257 0.756631 
L 243.474514 0.756631 
L 243.597611 1.011739 
L 244.213094 1.011739 
L 244.33619 1.269891 
L 244.70548 1.269891 
L 244.828576 1.530378 
L 245.526123 1.530378 
L 245.64922 1.793855 
L 246.305735 1.793855 
L 246.428831 2.060439 
L 247.16741 2.060439 
L 247.290507 2.330142 
L 247.988054 2.330142 
L 248.11115 2.602803 
L 249.136955 2.602803 
L 249.260051 2.878939 
L 249.998631 2.878939 
L 250.121727 3.158944 
L 251.188564 3.158944 
L 251.31166 3.442872 
L 252.091272 3.442872 
L 252.214368 3.730197 
L 253.281205 3.730197 
L 253.404301 4.021579 
L 254.471138 4.021579 
L 254.594235 4.316464 
L 255.702103 4.316464 
L 255.8252 4.613944 
L 256.933069 4.613944 
L 257.056165 4.915646 
L 258.164034 4.915646 
L 258.287131 5.221252 
L 259.436032 5.221252 
L 259.559128 5.531608 
L 260.666997 5.531608 
L 260.790093 5.846636 
L 261.938994 5.846636 
L 262.062091 6.166319 
L 263.498217 6.166319 
L 263.621314 6.490547 
L 264.770215 6.490547 
L 264.893311 6.818498 
L 266.042212 6.818498 
L 266.165309 7.152235 
L 267.642467 7.152235 
L 267.765564 7.491161 
L 268.914465 7.491161 
L 269.037561 7.834216 
L 270.51472 7.834216 
L 270.637816 8.182706 
L 272.114975 8.182706 
L 272.238071 8.537303 
L 273.428004 8.537303 
L 273.551101 8.897191 
L 275.028259 8.897191 
L 275.151356 9.263688 
L 276.628514 9.263688 
L 276.751611 9.635715 
L 277.941544 9.635715 
L 278.06464 10.015485 
L 279.541799 10.015485 
L 279.664895 10.401801 
L 281.142054 10.401801 
L 281.26515 10.793264 
L 282.783341 10.793264 
L 282.906437 11.190941 
L 284.096371 11.190941 
L 284.219467 11.595655 
L 285.737658 11.595655 
L 285.860754 12.006936 
L 287.337913 12.006936 
L 287.461009 12.425809 
L 288.9792 12.425809 
L 289.102296 12.85269 
L 290.620487 12.85269 
L 290.743583 13.287237 
L 292.261774 13.287237 
L 292.38487 13.732467 
L 293.903061 13.732467 
L 294.026158 14.182643 
L 295.544348 14.182643 
L 295.667445 14.641146 
L 297.185635 14.641146 
L 297.308732 15.109523 
L 298.826922 15.109523 
L 298.950019 15.586631 
L 300.46821 15.586631 
L 300.591306 16.072904 
L 302.109497 16.072904 
L 302.232593 16.56731 
L 303.791816 16.56731 
L 303.914912 17.074416 
L 305.433103 17.074416 
L 305.5562 17.59139 
L 307.402648 17.59139 
L 307.525744 18.116231 
L 309.043935 18.116231 
L 309.167031 18.654032 
L 310.726254 18.654032 
L 310.849351 19.20213 
L 312.408573 19.20213 
L 312.53167 19.763277 
L 314.378118 19.763277 
L 314.501214 20.333429 
L 316.060437 20.333429 
L 316.183534 20.917219 
L 317.742756 20.917219 
L 317.865853 21.513463 
L 319.712301 21.513463 
L 319.835398 22.122761 
L 321.39462 22.122761 
L 321.517717 22.745756 
L 323.07694 22.745756 
L 323.200036 23.386408 
L 325.087516 23.386408 
L 325.210613 24.036121 
L 327.098093 24.036121 
L 327.22119 24.69543 
L 328.821445 24.69543 
L 328.944541 25.366452 
L 330.832021 25.366452 
L 330.955118 26.052874 
L 332.842598 26.052874 
L 332.965694 26.743622 
L 334.565949 26.743622 
L 334.689046 27.44656 
L 336.617558 27.44656 
L 336.740655 28.168635 
L 338.628135 28.168635 
L 338.751232 28.904981 
L 340.679744 28.904981 
L 340.80284 29.646121 
L 342.772385 29.646121 
L 342.895482 30.40179 
L 344.823994 30.40179 
L 344.94709 31.166078 
L 347.20386 31.166078 
L 347.326957 31.939377 
L 349.296501 31.939377 
L 349.419598 32.707506 
L 351.389142 32.707506 
L 351.512239 33.471051 
L 353.810041 33.471051 
L 353.933137 34.238108 
L 356.230939 34.238108 
L 356.354036 34.985554 
L 358.69287 34.985554 
L 358.815967 35.722914 
L 361.195833 35.722914 
L 361.318929 36.436917 
L 363.698796 36.436917 
L 363.821892 37.118771 
L 366.530016 37.118771 
L 366.653113 37.777551 
L 369.361236 37.777551 
L 369.484333 38.420893 
L 371.905231 38.420893 
L 372.028328 39.052059 
L 374.777484 39.052059 
L 374.90058 39.639758 
L 378.019026 39.639758 
L 378.142122 40.164272 
L 381.260568 40.164272 
L 381.383665 40.651485 
L 384.584174 40.651485 
L 384.707271 41.099133 
L 387.907781 41.099133 
L 388.030877 41.501039 
L 391.600677 41.501039 
L 391.723773 41.851103 
L 395.62183 41.851103 
L 395.744927 42.153112 
L 399.76608 42.153112 
L 399.889177 42.402539 
L 404.27962 42.402539 
L 404.402716 42.610389 
L 405.141296 42.610389 
L 405.141296 42.610389 
" style="fill:none;stroke:#ff7f0e;stroke-linecap:round;stroke-opacity:0.6;stroke-width:1.5;"/>
   </g>
   <g id="line2d_23">
    <path clip-path="url(#p77ca3e2c1b)" style="fill:none;stroke:#000000;stroke-dasharray:3.7,1.6;stroke-dashoffset:0;"/>
   </g>
   <g id="patch_8">
    <path d="M 241.053616 104.167552 
L 241.053616 6.481551 
" style="fill:none;stroke:#cccccc;stroke-linecap:square;stroke-linejoin:miter;stroke-width:0.8;"/>
   </g>
   <g id="patch_9">
    <path d="M 405.182328 104.167552 
L 405.182328 6.481551 
" style="fill:none;stroke:#cccccc;stroke-linecap:square;stroke-linejoin:miter;stroke-width:0.8;"/>
   </g>
   <g id="patch_10">
    <path d="M 241.053616 104.167552 
L 405.182328 104.167552 
" style="fill:none;stroke:#cccccc;stroke-linecap:square;stroke-linejoin:miter;stroke-width:0.8;"/>
   </g>
   <g id="patch_11">
    <path d="M 241.053616 6.481551 
L 405.182328 6.481551 
" style="fill:none;stroke:#cccccc;stroke-linecap:square;stroke-linejoin:miter;stroke-width:0.8;"/>
   </g>
   <g id="text_23">
    <!-- (b) -->
    <g style="fill:#262626;" transform="translate(245.156834 17.616093)scale(0.1 -0.1)">
     <defs>
      <path d="M 25.203125 75 
C 19.796875 69.484375 7.40625 56.671875 7.40625 25.046875 
C 7.40625 -6.6875 19.796875 -19.40625 25.203125 -25 
L 31.296875 -25 
C 19 -12.203125 15 5.71875 15 24.9375 
C 15 44.0625 18.796875 62.078125 31.296875 75 
z
" id="CMSS17-40"/>
      <path d="M 14.90625 69 
L 7.5 69 
L 7.5 -0.203125 
L 15.09375 -0.203125 
L 15.09375 4.296875 
C 18.90625 0.59375 23.5 -1 27.59375 -1 
C 37.203125 -1 45 8.734375 45 21.59375 
C 45 33.328125 39 44 30.09375 44 
C 23.796875 44 18.203125 41.390625 14.90625 38.6875 
z
M 15.09375 32.734375 
C 17.296875 35.5625 20.40625 37.890625 24.796875 37.890625 
C 30.703125 37.890625 37.40625 33.53125 37.40625 21.59375 
C 37.40625 8.84375 29.40625 5.09375 23.90625 5.09375 
C 21.90625 5.09375 19.796875 5.59375 17.796875 7.3125 
C 15.09375 9.75 15.09375 11.265625 15.09375 12.6875 
z
" id="CMSS17-98"/>
      <path d="M 11.296875 -25 
C 16.703125 -19.5 29.09375 -6.6875 29.09375 24.9375 
C 29.09375 56.671875 16.703125 69.375 11.296875 75 
L 5.203125 75 
C 17.5 62.171875 21.5 44.265625 21.5 25.046875 
C 21.5 5.921875 17.703125 -12.09375 5.203125 -25 
z
" id="CMSS17-41"/>
     </defs>
     <use transform="scale(0.996264)" xlink:href="#CMSS17-40"/>
     <use transform="translate(36.433914 0)scale(0.996264)" xlink:href="#CMSS17-98"/>
     <use transform="translate(84.638857 0)scale(0.996264)" xlink:href="#CMSS17-41"/>
    </g>
   </g>
   <g id="legend_1">
    <g id="line2d_24">
     <path d="M 248.253616 92.175024 
L 264.253616 92.175024 
" style="fill:none;stroke:#000000;stroke-dasharray:3.7,1.6;stroke-dashoffset:0;"/>
    </g>
    <g id="line2d_25"/>
    <g id="text_24">
     <!-- base stock (optimal solution) -->
     <g style="fill:#262626;" transform="translate(270.653616 94.975024)scale(0.08 -0.08)">
      <defs>
       <path d="M 26.5 26.34375 
L 42 42.734375 
L 32.40625 42.734375 
L 14.90625 24.25 
L 14.90625 69 
L 7.5 69 
L 7.5 0 
L 14.796875 0 
L 14.796875 13.921875 
L 21.5 20.96875 
L 35.59375 0 
L 44.09375 0 
z
" id="CMSS17-107"/>
       <path d="M 67 29.34375 
C 67 36.078125 65.296875 44 54.09375 44 
C 46.59375 44 42.09375 39.296875 40.09375 36.375 
C 38.296875 41.6875 34.09375 44 28.09375 44 
C 21.296875 44 17 40.09375 14.703125 37.28125 
L 14.703125 43.484375 
L 7.40625 43.484375 
L 7.40625 0 
L 15 0 
L 15 24.3125 
C 15 30.25 17.203125 37.890625 24.296875 37.890625 
C 33.40625 37.890625 33.40625 31.453125 33.40625 28.53125 
L 33.40625 0 
L 41 0 
L 41 24.3125 
C 41 30.25 43.203125 37.890625 50.296875 37.890625 
C 59.40625 37.890625 59.40625 31.453125 59.40625 28.53125 
L 59.40625 0 
L 67 0 
z
" id="CMSS17-109"/>
       <path d="M 14.796875 69 
L 7.40625 69 
L 7.40625 0 
L 14.796875 0 
z
" id="CMSS17-108"/>
       <path d="M 40.90625 43 
L 33.296875 43 
L 33.296875 15.25 
C 33.296875 7.8125 27.90625 4.796875 22.203125 4.796875 
C 15.59375 4.796875 15 7 15 11.125 
L 15 43 
L 7.40625 43 
L 7.40625 10.625 
C 7.40625 2.796875 10.09375 -1 17 -1 
C 20.40625 -1 28.09375 -0.203125 33.5 4.796875 
L 33.5 -0.203125 
L 40.90625 -0.203125 
z
" id="CMSS17-117"/>
      </defs>
      <use transform="scale(0.996264)" xlink:href="#CMSS17-98"/>
      <use transform="translate(48.204943 0)scale(0.996264)" xlink:href="#CMSS17-97"/>
      <use transform="translate(93.126864 0)scale(0.996264)" xlink:href="#CMSS17-115"/>
      <use transform="translate(129.040406 0)scale(0.996264)" xlink:href="#CMSS17-101"/>
      <use transform="translate(201.908341 0)scale(0.996264)" xlink:href="#CMSS17-115"/>
      <use transform="translate(237.821883 0)scale(0.996264)" xlink:href="#CMSS17-116"/>
      <use transform="translate(271.653449 0)scale(0.996264)" xlink:href="#CMSS17-111"/>
      <use transform="translate(321.099511 0)scale(0.996264)" xlink:href="#CMSS17-99"/>
      <use transform="translate(362.738334 0)scale(0.996264)" xlink:href="#CMSS17-107"/>
      <use transform="translate(439.569935 0)scale(0.996264)" xlink:href="#CMSS17-40"/>
      <use transform="translate(476.00385 0)scale(0.996264)" xlink:href="#CMSS17-111"/>
      <use transform="translate(522.847473 0)scale(0.996264)" xlink:href="#CMSS17-112"/>
      <use transform="translate(571.052416 0)scale(0.996264)" xlink:href="#CMSS17-116"/>
      <use transform="translate(604.883983 0)scale(0.996264)" xlink:href="#CMSS17-105"/>
      <use transform="translate(627.064706 0)scale(0.996264)" xlink:href="#CMSS17-109"/>
      <use transform="translate(701.293961 0)scale(0.996264)" xlink:href="#CMSS17-97"/>
      <use transform="translate(746.215881 0)scale(0.996264)" xlink:href="#CMSS17-108"/>
      <use transform="translate(799.625717 0)scale(0.996264)" xlink:href="#CMSS17-115"/>
      <use transform="translate(835.539259 0)scale(0.996264)" xlink:href="#CMSS17-111"/>
      <use transform="translate(882.382882 0)scale(0.996264)" xlink:href="#CMSS17-108"/>
      <use transform="translate(904.563605 0)scale(0.996264)" xlink:href="#CMSS17-117"/>
      <use transform="translate(952.768549 0)scale(0.996264)" xlink:href="#CMSS17-116"/>
      <use transform="translate(986.600115 0)scale(0.996264)" xlink:href="#CMSS17-105"/>
      <use transform="translate(1008.780838 0)scale(0.996264)" xlink:href="#CMSS17-111"/>
      <use transform="translate(1055.624462 0)scale(0.996264)" xlink:href="#CMSS17-110"/>
      <use transform="translate(1103.829405 0)scale(0.996264)" xlink:href="#CMSS17-41"/>
     </g>
    </g>
   </g>
  </g>
  <g id="axes_3">
   <g id="patch_12">
    <path d="M 27.864513 242.767552 
L 191.993225 242.767552 
L 191.993225 145.081551 
L 27.864513 145.081551 
z
" style="fill:#ffffff;"/>
   </g>
   <g id="matplotlib.axis_5">
    <g id="xtick_12">
     <g id="line2d_26">
      <path clip-path="url(#p889ce0a857)" d="M 27.864513 242.767552 
L 27.864513 145.081551 
" style="fill:none;stroke:#cccccc;stroke-linecap:round;stroke-width:0.8;"/>
     </g>
     <g id="text_25">
      <!-- $\mathdefault{0}$ -->
      <g style="fill:#262626;" transform="translate(25.660095 255.530654)scale(0.0833 -0.0833)">
       <use transform="scale(0.996264)" xlink:href="#CMR17-48"/>
      </g>
     </g>
    </g>
    <g id="xtick_13">
     <g id="line2d_27">
      <path clip-path="url(#p889ce0a857)" d="M 60.690255 242.767552 
L 60.690255 145.081551 
" style="fill:none;stroke:#cccccc;stroke-linecap:round;stroke-width:0.8;"/>
     </g>
     <g id="text_26">
      <!-- $\mathdefault{2}$ -->
      <g style="fill:#262626;" transform="translate(58.485837 255.530654)scale(0.0833 -0.0833)">
       <use transform="scale(0.996264)" xlink:href="#CMR17-50"/>
      </g>
     </g>
    </g>
    <g id="xtick_14">
     <g id="line2d_28">
      <path clip-path="url(#p889ce0a857)" d="M 93.515998 242.767552 
L 93.515998 145.081551 
" style="fill:none;stroke:#cccccc;stroke-linecap:round;stroke-width:0.8;"/>
     </g>
     <g id="text_27">
      <!-- $\mathdefault{4}$ -->
      <g style="fill:#262626;" transform="translate(91.31158 255.530654)scale(0.0833 -0.0833)">
       <use transform="scale(0.996264)" xlink:href="#CMR17-52"/>
      </g>
     </g>
    </g>
    <g id="xtick_15">
     <g id="line2d_29">
      <path clip-path="url(#p889ce0a857)" d="M 126.34174 242.767552 
L 126.34174 145.081551 
" style="fill:none;stroke:#cccccc;stroke-linecap:round;stroke-width:0.8;"/>
     </g>
     <g id="text_28">
      <!-- $\mathdefault{6}$ -->
      <g style="fill:#262626;" transform="translate(124.137322 255.530654)scale(0.0833 -0.0833)">
       <use transform="scale(0.996264)" xlink:href="#CMR17-54"/>
      </g>
     </g>
    </g>
    <g id="xtick_16">
     <g id="line2d_30">
      <path clip-path="url(#p889ce0a857)" d="M 159.167482 242.767552 
L 159.167482 145.081551 
" style="fill:none;stroke:#cccccc;stroke-linecap:round;stroke-width:0.8;"/>
     </g>
     <g id="text_29">
      <!-- $\mathdefault{8}$ -->
      <g style="fill:#262626;" transform="translate(156.963064 255.530654)scale(0.0833 -0.0833)">
       <use transform="scale(0.996264)" xlink:href="#CMR17-56"/>
      </g>
     </g>
    </g>
    <g id="xtick_17">
     <g id="line2d_31">
      <path clip-path="url(#p889ce0a857)" d="M 191.993225 242.767552 
L 191.993225 145.081551 
" style="fill:none;stroke:#cccccc;stroke-linecap:round;stroke-width:0.8;"/>
     </g>
     <g id="text_30">
      <!-- $\mathdefault{10}$ -->
      <g style="fill:#262626;" transform="translate(187.584389 255.530654)scale(0.0833 -0.0833)">
       <use transform="scale(0.996264)" xlink:href="#CMR17-49"/>
       <use transform="translate(45.690477 0)scale(0.996264)" xlink:href="#CMR17-48"/>
      </g>
     </g>
    </g>
    <g id="text_31">
     <!-- Period -->
     <g style="fill:#262626;" transform="translate(96.57614 268.062822)scale(0.1 -0.1)">
      <defs>
       <path d="M 32.90625 29 
C 44.90625 29 54.703125 38.234375 54.703125 49.046875 
C 54.703125 59.65625 45.296875 69 32.296875 69 
L 8.90625 69 
L 8.90625 0 
L 17.296875 0 
L 17.296875 29 
z
M 30.09375 63.390625 
C 41.703125 63.390625 46.796875 56.21875 46.796875 49.046875 
C 46.796875 42.359375 42.09375 34.796875 30.09375 34.796875 
L 17.09375 34.796875 
L 17.09375 63.390625 
z
" id="CMSS17-80"/>
       <path d="M 40.796875 69 
L 33.40625 69 
L 33.40625 38.984375 
C 30.296875 41.59375 25.203125 44 19.59375 44 
C 10.5 44 3.296875 34.046875 3.296875 21.484375 
C 3.296875 8.9375 10.40625 -1 19.296875 -1 
C 26.203125 -1 30.796875 2.6875 33.203125 4.796875 
L 33.203125 -0.203125 
L 40.796875 -0.203125 
z
M 33.203125 13.296875 
C 33.203125 11.875 33.203125 10.359375 30.09375 7.625 
C 28.09375 5.90625 25.703125 5.09375 23.40625 5.09375 
C 18 5.09375 10.90625 9.140625 10.90625 21.390625 
C 10.90625 34.140625 18.90625 37.890625 24.40625 37.890625 
C 28.09375 37.890625 31.09375 36.0625 33.203125 33.03125 
z
" id="CMSS17-100"/>
      </defs>
      <use transform="scale(0.996264)" xlink:href="#CMSS17-80"/>
      <use transform="translate(57.133132 0)scale(0.996264)" xlink:href="#CMSS17-101"/>
      <use transform="translate(98.771954 0)scale(0.996264)" xlink:href="#CMSS17-114"/>
      <use transform="translate(130.681727 0)scale(0.996264)" xlink:href="#CMSS17-105"/>
      <use transform="translate(152.86245 0)scale(0.996264)" xlink:href="#CMSS17-111"/>
      <use transform="translate(202.308512 0)scale(0.996264)" xlink:href="#CMSS17-100"/>
     </g>
    </g>
   </g>
   <g id="matplotlib.axis_6">
    <g id="ytick_10">
     <g id="line2d_32">
      <path clip-path="url(#p889ce0a857)" d="M 27.864513 242.767552 
L 191.993225 242.767552 
" style="fill:none;stroke:#cccccc;stroke-linecap:round;stroke-width:0.8;"/>
     </g>
     <g id="text_32">
      <!-- $\mathdefault{0}$ -->
      <g style="fill:#262626;" transform="translate(16.455677 245.649103)scale(0.0833 -0.0833)">
       <use transform="scale(0.996264)" xlink:href="#CMR17-48"/>
      </g>
     </g>
    </g>
    <g id="ytick_11">
     <g id="line2d_33">
      <path clip-path="url(#p889ce0a857)" d="M 27.864513 223.230352 
L 191.993225 223.230352 
" style="fill:none;stroke:#cccccc;stroke-linecap:round;stroke-width:0.8;"/>
     </g>
     <g id="text_33">
      <!-- $\mathdefault{1}$ -->
      <g style="fill:#262626;" transform="translate(16.455677 226.111903)scale(0.0833 -0.0833)">
       <use transform="scale(0.996264)" xlink:href="#CMR17-49"/>
      </g>
     </g>
    </g>
    <g id="ytick_12">
     <g id="line2d_34">
      <path clip-path="url(#p889ce0a857)" d="M 27.864513 203.693152 
L 191.993225 203.693152 
" style="fill:none;stroke:#cccccc;stroke-linecap:round;stroke-width:0.8;"/>
     </g>
     <g id="text_34">
      <!-- $\mathdefault{2}$ -->
      <g style="fill:#262626;" transform="translate(16.455677 206.574703)scale(0.0833 -0.0833)">
       <use transform="scale(0.996264)" xlink:href="#CMR17-50"/>
      </g>
     </g>
    </g>
    <g id="ytick_13">
     <g id="line2d_35">
      <path clip-path="url(#p889ce0a857)" d="M 27.864513 184.155951 
L 191.993225 184.155951 
" style="fill:none;stroke:#cccccc;stroke-linecap:round;stroke-width:0.8;"/>
     </g>
     <g id="text_35">
      <!-- $\mathdefault{3}$ -->
      <g style="fill:#262626;" transform="translate(16.455677 187.037502)scale(0.0833 -0.0833)">
       <use transform="scale(0.996264)" xlink:href="#CMR17-51"/>
      </g>
     </g>
    </g>
    <g id="ytick_14">
     <g id="line2d_36">
      <path clip-path="url(#p889ce0a857)" d="M 27.864513 164.618751 
L 191.993225 164.618751 
" style="fill:none;stroke:#cccccc;stroke-linecap:round;stroke-width:0.8;"/>
     </g>
     <g id="text_36">
      <!-- $\mathdefault{4}$ -->
      <g style="fill:#262626;" transform="translate(16.455677 167.500302)scale(0.0833 -0.0833)">
       <use transform="scale(0.996264)" xlink:href="#CMR17-52"/>
      </g>
     </g>
    </g>
    <g id="ytick_15">
     <g id="line2d_37">
      <path clip-path="url(#p889ce0a857)" d="M 27.864513 145.081551 
L 191.993225 145.081551 
" style="fill:none;stroke:#cccccc;stroke-linecap:round;stroke-width:0.8;"/>
     </g>
     <g id="text_37">
      <!-- $\mathdefault{5}$ -->
      <g style="fill:#262626;" transform="translate(16.455677 147.963102)scale(0.0833 -0.0833)">
       <defs>
        <path d="M 11.40625 58.59375 
C 12.40625 58.1875 16.5 56.890625 20.703125 56.890625 
C 30 56.890625 35.09375 61.890625 38 64.6875 
C 38 65.484375 38 66 37.40625 66 
C 37.296875 66 37.09375 66 36.296875 65.59375 
C 32.796875 64.09375 28.703125 63 23.703125 63 
C 20.703125 63 16.203125 63.359375 11.296875 65.484375 
C 10.203125 66 10 66 9.90625 66 
C 9.40625 66 9.296875 65.890625 9.296875 63.90625 
L 9.296875 34.859375 
C 9.296875 33.015625 9.296875 32.5 10.296875 32.5 
C 10.796875 32.5 11 32.703125 11.5 33.421875 
C 14.703125 38.046875 19.09375 40 24.09375 40 
C 27.59375 40 35.09375 37.734375 35.09375 20.203125 
C 35.09375 16.984375 35.09375 11.1875 32.09375 6.59375 
C 29.59375 2.484375 25.703125 0.390625 21.40625 0.390625 
C 14.796875 0.390625 8.09375 4.984375 6.296875 12.6875 
C 6.703125 12.59375 7.5 12.390625 7.90625 12.390625 
C 9.203125 12.390625 11.703125 13.09375 11.703125 16.1875 
C 11.703125 18.890625 9.796875 20 7.90625 20 
C 5.59375 20 4.09375 18.59375 4.09375 15.796875 
C 4.09375 7.09375 11 -2 21.59375 -2 
C 31.90625 -2 41.703125 6.890625 41.703125 19.796875 
C 41.703125 32.09375 33.90625 41.59375 24.203125 41.59375 
C 19.09375 41.59375 14.796875 39.6875 11.40625 36 
z
" id="CMR17-53"/>
       </defs>
       <use transform="scale(0.996264)" xlink:href="#CMR17-53"/>
      </g>
     </g>
    </g>
    <g id="text_38">
     <!-- Quantity -->
     <g style="fill:#262626;" transform="translate(10.518498 212.078718)rotate(-90)scale(0.1 -0.1)">
      <defs>
       <path d="M 50 3.296875 
C 62.203125 13.25 64 26.734375 64 34.390625 
C 64 55.328125 50.296875 71 34.59375 71 
C 18.90625 71 5.203125 55.234375 5.203125 34.390625 
C 5.203125 13.359375 19.09375 -2 34.59375 -2 
C 38.09375 -2 41.09375 -1.203125 43.203125 -0.40625 
L 51.59375 -13 
L 61.40625 -13 
z
M 39.5 5.09375 
C 38.09375 4.59375 36.40625 4.296875 34.59375 4.296875 
C 23.796875 4.296875 13.40625 15.671875 13.40625 34.390625 
C 13.40625 53.015625 23.703125 64.6875 34.59375 64.6875 
C 45.59375 64.6875 55.796875 52.90625 55.796875 34.390625 
C 55.796875 27.953125 54.796875 17.171875 46.09375 8.921875 
L 38.90625 19.09375 
L 30.296875 19.09375 
z
" id="CMSS17-81"/>
       <path d="M 41.796875 43 
L 34 43 
C 25.5 20.203125 22.59375 10.953125 22.40625 5.984375 
L 22.296875 5.984375 
C 22 10.859375 17.59375 22.796875 14.09375 31.34375 
L 9.40625 43 
L 1.296875 43 
L 19 0.21875 
C 17.90625 -2.765625 16.296875 -7.25 15.796875 -8.234375 
C 13.59375 -13.8125 12.09375 -13.8125 10.5 -13.8125 
C 10.09375 -13.8125 6.90625 -13.703125 3.296875 -12.609375 
L 3.90625 -19.203125 
C 6.40625 -19.703125 8.90625 -20 10.703125 -20 
C 13.203125 -20 18.203125 -20 22.796875 -7.734375 
z
" id="CMSS17-121"/>
      </defs>
      <use transform="scale(0.996264)" xlink:href="#CMSS17-81"/>
      <use transform="translate(69.024255 0)scale(0.996264)" xlink:href="#CMSS17-117"/>
      <use transform="translate(117.229198 0)scale(0.996264)" xlink:href="#CMSS17-97"/>
      <use transform="translate(162.151119 0)scale(0.996264)" xlink:href="#CMSS17-110"/>
      <use transform="translate(210.356062 0)scale(0.996264)" xlink:href="#CMSS17-116"/>
      <use transform="translate(244.187629 0)scale(0.996264)" xlink:href="#CMSS17-105"/>
      <use transform="translate(266.368352 0)scale(0.996264)" xlink:href="#CMSS17-116"/>
      <use transform="translate(297.597465 0)scale(0.996264)" xlink:href="#CMSS17-121"/>
     </g>
    </g>
   </g>
   <g id="line2d_38">
    <path clip-path="url(#p889ce0a857)" d="M 27.864513 164.618751 
L 44.277384 164.618751 
L 60.690255 223.230352 
L 77.103126 164.618751 
L 93.515998 164.618751 
L 109.928869 223.230352 
L 126.34174 223.230352 
L 142.754611 223.230352 
L 159.167482 184.155951 
L 175.580354 164.618751 
L 191.993225 223.230352 
L 208.406096 164.618751 
" style="fill:none;stroke:#1f77b4;stroke-dasharray:3.7,1.6;stroke-dashoffset:0;"/>
   </g>
   <g id="line2d_39">
    <path clip-path="url(#p889ce0a857)" d="M 27.864513 242.767552 
L 44.277384 242.767552 
L 60.690255 242.767552 
L 77.103126 184.155951 
L 93.515998 242.767552 
L 109.928869 242.767552 
L 126.34174 184.155951 
L 142.754611 184.155951 
L 159.167482 184.155951 
L 175.580354 223.230352 
L 191.993225 242.767552 
L 208.406096 184.155951 
" style="fill:none;stroke:#1f77b4;stroke-dasharray:6.4,1.6,1,1.6;stroke-dashoffset:0;"/>
   </g>
   <g id="line2d_40">
    <path clip-path="url(#p889ce0a857)" d="M 27.864513 164.618751 
L 418.6 164.618751 
L 418.6 164.618751 
" style="fill:none;stroke:#1f77b4;stroke-linecap:round;"/>
   </g>
   <g id="patch_13">
    <path d="M 27.864513 242.767552 
L 27.864513 145.081551 
" style="fill:none;stroke:#cccccc;stroke-linecap:square;stroke-linejoin:miter;stroke-width:0.8;"/>
   </g>
   <g id="patch_14">
    <path d="M 191.993225 242.767552 
L 191.993225 145.081551 
" style="fill:none;stroke:#cccccc;stroke-linecap:square;stroke-linejoin:miter;stroke-width:0.8;"/>
   </g>
   <g id="patch_15">
    <path d="M 27.864513 242.767552 
L 191.993225 242.767552 
" style="fill:none;stroke:#cccccc;stroke-linecap:square;stroke-linejoin:miter;stroke-width:0.8;"/>
   </g>
   <g id="patch_16">
    <path d="M 27.864513 145.081551 
L 191.993225 145.081551 
" style="fill:none;stroke:#cccccc;stroke-linecap:square;stroke-linejoin:miter;stroke-width:0.8;"/>
   </g>
   <g id="text_39">
    <!-- (c) -->
    <g style="fill:#262626;" transform="translate(31.147087 156.803871)scale(0.1 -0.1)">
     <use transform="scale(0.996264)" xlink:href="#CMSS17-40"/>
     <use transform="translate(36.433914 0)scale(0.996264)" xlink:href="#CMSS17-99"/>
     <use transform="translate(78.072736 0)scale(0.996264)" xlink:href="#CMSS17-41"/>
    </g>
   </g>
   <g id="text_40">
    <!-- inventory position ($z^*+1$) -->
    <g style="fill:#262626;" transform="translate(85.309562 158.757591)scale(0.09 -0.09)">
     <defs>
      <path d="M 12.703125 7.59375 
C 17 12.640625 20.5 15.859375 25.5 20.515625 
C 31.5 25.890625 34.09375 28.46875 35.5 30.03125 
C 42.5 37.046875 46 42.390625 46 43.1875 
C 46 44 45.203125 44 45 44 
C 44.296875 44 44.09375 43.59375 43.59375 42.890625 
C 41.09375 38.59375 38.703125 37 36.09375 37 
C 34 37 32.90625 37.546875 31 39.796875 
C 28.90625 42.296875 27.203125 44 24.296875 44 
C 17 44 12.59375 35.390625 12.59375 33.234375 
C 12.59375 32.921875 12.703125 32.296875 13.59375 32.296875 
C 14.40625 32.296875 14.5 32.71875 14.796875 33.4375 
C 16.5 37.296875 21.296875 37.734375 23.203125 37.734375 
C 25.296875 37.734375 27.296875 37.296875 29.40625 36.59375 
C 33.203125 34.984375 34.796875 34.984375 35.796875 34.984375 
C 36.5 34.984375 36.90625 34.984375 37.40625 35.09375 
C 34.09375 31.0625 28.703125 26.09375 24.203125 21.859375 
L 14.09375 12.234375 
C 8 5.9375 4.296875 0.5 4.296875 -0.203125 
C 4.296875 -0.8125 4.796875 -1 5.40625 -1 
C 6 -1 6.09375 -0.90625 6.796875 0.296875 
C 8.40625 2.796875 11.59375 6 15.296875 6 
C 17.40625 6 18.40625 5.5625 20.40625 3.296875 
C 22.296875 1.09375 24 -1 27.203125 -1 
C 37 -1 42.59375 11.296875 42.59375 13.6875 
C 42.59375 14.09375 42.5 14.71875 41.5 14.71875 
C 40.703125 14.71875 40.59375 14.296875 40.296875 13.265625 
C 38.09375 7.1875 32.203125 5.25 28.296875 5.25 
C 26.203125 5.25 24.203125 5.6875 22.09375 6.390625 
C 18.09375 8 17 8 15.703125 8 
C 14.703125 8 13.59375 8 12.703125 7.59375 
z
" id="CMMI12-122"/>
      <path d="M 27.5 43.15625 
C 27.59375 44.578125 27.59375 47 25 47 
C 23.40625 47 22.09375 45.6875 22.40625 44.375 
L 22.40625 43.046875 
L 23.796875 27.1875 
L 11 36.703125 
C 10.09375 37.21875 9.90625 37.421875 9.203125 37.421875 
C 7.796875 37.421875 6.5 35.984375 6.5 34.5625 
C 6.5 32.921875 7.5 32.515625 8.5 32 
L 22.703125 25.046875 
L 8.90625 18.1875 
C 7.296875 17.375 6.5 16.953125 6.5 15.421875 
C 6.5 13.890625 7.796875 12.5625 9.203125 12.5625 
C 9.90625 12.5625 10.09375 12.5625 12.59375 14.5 
L 23.796875 22.796875 
L 22.296875 5.609375 
C 22.296875 3.5 24.09375 3 24.90625 3 
C 26.09375 3 27.59375 3.6875 27.59375 5.609375 
L 26.09375 22.796875 
L 38.90625 13.28125 
C 39.796875 12.765625 40 12.5625 40.703125 12.5625 
C 42.09375 12.5625 43.40625 14 43.40625 15.421875 
C 43.40625 16.953125 42.5 17.46875 41.296875 18.078125 
C 35.296875 21.15625 35.09375 21.15625 27.203125 24.9375 
L 41 31.796875 
C 42.59375 32.609375 43.40625 33.015625 43.40625 34.5625 
C 43.40625 36.09375 42.09375 37.421875 40.703125 37.421875 
C 40 37.421875 39.796875 37.421875 37.296875 35.484375 
L 26.09375 27.1875 
z
" id="CMSY10-3"/>
      <path d="M 37.703125 23 
L 64.203125 23 
C 65.59375 23 67.296875 23 67.296875 24.6875 
C 67.296875 26.5 65.703125 26.5 64.203125 26.5 
L 37.703125 26.5 
L 37.703125 52.890625 
C 37.703125 54.296875 37.703125 56 36 56 
C 34.203125 56 34.203125 54.390625 34.203125 52.890625 
L 34.203125 26.5 
L 7.703125 26.5 
C 6.296875 26.5 4.59375 26.5 4.59375 24.796875 
C 4.59375 23 6.203125 23 7.703125 23 
L 34.203125 23 
L 34.203125 -3.03125 
C 34.203125 -4.40625 34.203125 -6.109375 35.90625 -6.109375 
C 37.703125 -6.109375 37.703125 -4.515625 37.703125 -3.03125 
z
" id="CMR17-43"/>
     </defs>
     <use transform="scale(0.996264)" xlink:href="#CMSS17-105"/>
     <use transform="translate(22.180723 0)scale(0.996264)" xlink:href="#CMSS17-110"/>
     <use transform="translate(70.385666 0)scale(0.996264)" xlink:href="#CMSS17-118"/>
     <use transform="translate(113.385808 0)scale(0.996264)" xlink:href="#CMSS17-101"/>
     <use transform="translate(155.02463 0)scale(0.996264)" xlink:href="#CMSS17-110"/>
     <use transform="translate(203.229573 0)scale(0.996264)" xlink:href="#CMSS17-116"/>
     <use transform="translate(237.06114 0)scale(0.996264)" xlink:href="#CMSS17-111"/>
     <use transform="translate(281.302309 0)scale(0.996264)" xlink:href="#CMSS17-114"/>
     <use transform="translate(313.212082 0)scale(0.996264)" xlink:href="#CMSS17-121"/>
     <use transform="translate(387.441336 0)scale(0.996264)" xlink:href="#CMSS17-112"/>
     <use transform="translate(438.248718 0)scale(0.996264)" xlink:href="#CMSS17-111"/>
     <use transform="translate(485.092342 0)scale(0.996264)" xlink:href="#CMSS17-115"/>
     <use transform="translate(521.005884 0)scale(0.996264)" xlink:href="#CMSS17-105"/>
     <use transform="translate(543.186607 0)scale(0.996264)" xlink:href="#CMSS17-116"/>
     <use transform="translate(577.018173 0)scale(0.996264)" xlink:href="#CMSS17-105"/>
     <use transform="translate(599.198896 0)scale(0.996264)" xlink:href="#CMSS17-111"/>
     <use transform="translate(646.04252 0)scale(0.996264)" xlink:href="#CMSS17-110"/>
     <use transform="translate(725.476576 0)scale(0.996264)" xlink:href="#CMSS17-40"/>
     <use transform="translate(761.91049 0)scale(0.996264)" xlink:href="#CMMI12-122"/>
     <use transform="translate(811.665635 36.153639)scale(0.697382)" xlink:href="#CMSY10-3"/>
     <use transform="translate(869.172184 0)scale(0.996264)" xlink:href="#CMR17-43"/>
     <use transform="translate(963.026179 0)scale(0.996264)" xlink:href="#CMR17-49"/>
     <use transform="translate(1008.716656 0)scale(0.996264)" xlink:href="#CMSS17-41"/>
    </g>
   </g>
   <g id="legend_2">
    <g id="patch_17">
     <path d="M 72.191908 238.767552 
L 186.393225 238.767552 
Q 187.993225 238.767552 187.993225 237.167552 
L 187.993225 226.339056 
Q 187.993225 224.739056 186.393225 224.739056 
L 72.191908 224.739056 
Q 70.591908 224.739056 70.591908 226.339056 
L 70.591908 237.167552 
Q 70.591908 238.767552 72.191908 238.767552 
z
" style="fill:#ffffff;opacity:0.8;stroke:#cccccc;stroke-linejoin:miter;"/>
    </g>
    <g id="line2d_41">
     <path d="M 73.791908 231.217806 
L 89.791908 231.217806 
" style="fill:none;stroke:#1f77b4;stroke-dasharray:3.7,1.6;stroke-dashoffset:0;"/>
    </g>
    <g id="line2d_42"/>
    <g id="text_41">
     <!-- inventory -->
     <g style="fill:#262626;" transform="translate(96.191908 234.017806)scale(0.08 -0.08)">
      <use transform="scale(0.996264)" xlink:href="#CMSS17-105"/>
      <use transform="translate(22.180723 0)scale(0.996264)" xlink:href="#CMSS17-110"/>
      <use transform="translate(70.385666 0)scale(0.996264)" xlink:href="#CMSS17-118"/>
      <use transform="translate(113.385808 0)scale(0.996264)" xlink:href="#CMSS17-101"/>
      <use transform="translate(155.02463 0)scale(0.996264)" xlink:href="#CMSS17-110"/>
      <use transform="translate(203.229573 0)scale(0.996264)" xlink:href="#CMSS17-116"/>
      <use transform="translate(237.06114 0)scale(0.996264)" xlink:href="#CMSS17-111"/>
      <use transform="translate(281.302309 0)scale(0.996264)" xlink:href="#CMSS17-114"/>
      <use transform="translate(313.212082 0)scale(0.996264)" xlink:href="#CMSS17-121"/>
     </g>
    </g>
    <g id="line2d_43">
     <path d="M 144.474063 231.217806 
L 160.474063 231.217806 
" style="fill:none;stroke:#1f77b4;stroke-dasharray:6.4,1.6,1,1.6;stroke-dashoffset:0;"/>
    </g>
    <g id="line2d_44"/>
    <g id="text_42">
     <!-- order -->
     <g style="fill:#262626;" transform="translate(166.874063 234.017806)scale(0.08 -0.08)">
      <use transform="scale(0.996264)" xlink:href="#CMSS17-111"/>
      <use transform="translate(44.24117 0)scale(0.996264)" xlink:href="#CMSS17-114"/>
      <use transform="translate(76.150942 0)scale(0.996264)" xlink:href="#CMSS17-100"/>
      <use transform="translate(124.355885 0)scale(0.996264)" xlink:href="#CMSS17-101"/>
      <use transform="translate(165.994707 0)scale(0.996264)" xlink:href="#CMSS17-114"/>
     </g>
    </g>
   </g>
  </g>
  <g id="axes_4">
   <g id="patch_18">
    <path d="M 241.053616 242.767552 
L 405.182328 242.767552 
L 405.182328 145.081551 
L 241.053616 145.081551 
z
" style="fill:#ffffff;"/>
   </g>
   <g id="matplotlib.axis_7">
    <g id="xtick_18">
     <g id="line2d_45">
      <path clip-path="url(#pa208f534ea)" d="M 241.053616 242.767552 
L 241.053616 145.081551 
" style="fill:none;stroke:#cccccc;stroke-linecap:round;stroke-width:0.8;"/>
     </g>
     <g id="text_43">
      <!-- $\mathdefault{0}$ -->
      <g style="fill:#262626;" transform="translate(238.849198 255.530654)scale(0.0833 -0.0833)">
       <use transform="scale(0.996264)" xlink:href="#CMR17-48"/>
      </g>
     </g>
    </g>
    <g id="xtick_19">
     <g id="line2d_46">
      <path clip-path="url(#pa208f534ea)" d="M 273.879358 242.767552 
L 273.879358 145.081551 
" style="fill:none;stroke:#cccccc;stroke-linecap:round;stroke-width:0.8;"/>
     </g>
     <g id="text_44">
      <!-- $\mathdefault{2}$ -->
      <g style="fill:#262626;" transform="translate(271.67494 255.530654)scale(0.0833 -0.0833)">
       <use transform="scale(0.996264)" xlink:href="#CMR17-50"/>
      </g>
     </g>
    </g>
    <g id="xtick_20">
     <g id="line2d_47">
      <path clip-path="url(#pa208f534ea)" d="M 306.705101 242.767552 
L 306.705101 145.081551 
" style="fill:none;stroke:#cccccc;stroke-linecap:round;stroke-width:0.8;"/>
     </g>
     <g id="text_45">
      <!-- $\mathdefault{4}$ -->
      <g style="fill:#262626;" transform="translate(304.500683 255.530654)scale(0.0833 -0.0833)">
       <use transform="scale(0.996264)" xlink:href="#CMR17-52"/>
      </g>
     </g>
    </g>
    <g id="xtick_21">
     <g id="line2d_48">
      <path clip-path="url(#pa208f534ea)" d="M 339.530843 242.767552 
L 339.530843 145.081551 
" style="fill:none;stroke:#cccccc;stroke-linecap:round;stroke-width:0.8;"/>
     </g>
     <g id="text_46">
      <!-- $\mathdefault{6}$ -->
      <g style="fill:#262626;" transform="translate(337.326425 255.530654)scale(0.0833 -0.0833)">
       <use transform="scale(0.996264)" xlink:href="#CMR17-54"/>
      </g>
     </g>
    </g>
    <g id="xtick_22">
     <g id="line2d_49">
      <path clip-path="url(#pa208f534ea)" d="M 372.356585 242.767552 
L 372.356585 145.081551 
" style="fill:none;stroke:#cccccc;stroke-linecap:round;stroke-width:0.8;"/>
     </g>
     <g id="text_47">
      <!-- $\mathdefault{8}$ -->
      <g style="fill:#262626;" transform="translate(370.152167 255.530654)scale(0.0833 -0.0833)">
       <use transform="scale(0.996264)" xlink:href="#CMR17-56"/>
      </g>
     </g>
    </g>
    <g id="xtick_23">
     <g id="line2d_50">
      <path clip-path="url(#pa208f534ea)" d="M 405.182328 242.767552 
L 405.182328 145.081551 
" style="fill:none;stroke:#cccccc;stroke-linecap:round;stroke-width:0.8;"/>
     </g>
     <g id="text_48">
      <!-- $\mathdefault{10}$ -->
      <g style="fill:#262626;" transform="translate(400.773492 255.530654)scale(0.0833 -0.0833)">
       <use transform="scale(0.996264)" xlink:href="#CMR17-49"/>
       <use transform="translate(45.690477 0)scale(0.996264)" xlink:href="#CMR17-48"/>
      </g>
     </g>
    </g>
    <g id="text_49">
     <!-- Period -->
     <g style="fill:#262626;" transform="translate(309.765243 268.062822)scale(0.1 -0.1)">
      <use transform="scale(0.996264)" xlink:href="#CMSS17-80"/>
      <use transform="translate(57.133132 0)scale(0.996264)" xlink:href="#CMSS17-101"/>
      <use transform="translate(98.771954 0)scale(0.996264)" xlink:href="#CMSS17-114"/>
      <use transform="translate(130.681727 0)scale(0.996264)" xlink:href="#CMSS17-105"/>
      <use transform="translate(152.86245 0)scale(0.996264)" xlink:href="#CMSS17-111"/>
      <use transform="translate(202.308512 0)scale(0.996264)" xlink:href="#CMSS17-100"/>
     </g>
    </g>
   </g>
   <g id="matplotlib.axis_8">
    <g id="ytick_16">
     <g id="line2d_51">
      <path clip-path="url(#pa208f534ea)" d="M 241.053616 242.767552 
L 405.182328 242.767552 
" style="fill:none;stroke:#cccccc;stroke-linecap:round;stroke-width:0.8;"/>
     </g>
     <g id="text_50">
      <!-- $\mathdefault{0}$ -->
      <g style="fill:#262626;" transform="translate(229.64478 245.649103)scale(0.0833 -0.0833)">
       <use transform="scale(0.996264)" xlink:href="#CMR17-48"/>
      </g>
     </g>
    </g>
    <g id="ytick_17">
     <g id="line2d_52">
      <path clip-path="url(#pa208f534ea)" d="M 241.053616 223.230352 
L 405.182328 223.230352 
" style="fill:none;stroke:#cccccc;stroke-linecap:round;stroke-width:0.8;"/>
     </g>
     <g id="text_51">
      <!-- $\mathdefault{5}$ -->
      <g style="fill:#262626;" transform="translate(229.64478 226.111903)scale(0.0833 -0.0833)">
       <use transform="scale(0.996264)" xlink:href="#CMR17-53"/>
      </g>
     </g>
    </g>
    <g id="ytick_18">
     <g id="line2d_53">
      <path clip-path="url(#pa208f534ea)" d="M 241.053616 203.693152 
L 405.182328 203.693152 
" style="fill:none;stroke:#cccccc;stroke-linecap:round;stroke-width:0.8;"/>
     </g>
     <g id="text_52">
      <!-- $\mathdefault{10}$ -->
      <g style="fill:#262626;" transform="translate(225.235944 206.574703)scale(0.0833 -0.0833)">
       <use transform="scale(0.996264)" xlink:href="#CMR17-49"/>
       <use transform="translate(45.690477 0)scale(0.996264)" xlink:href="#CMR17-48"/>
      </g>
     </g>
    </g>
    <g id="ytick_19">
     <g id="line2d_54">
      <path clip-path="url(#pa208f534ea)" d="M 241.053616 184.155951 
L 405.182328 184.155951 
" style="fill:none;stroke:#cccccc;stroke-linecap:round;stroke-width:0.8;"/>
     </g>
     <g id="text_53">
      <!-- $\mathdefault{15}$ -->
      <g style="fill:#262626;" transform="translate(225.235944 187.037502)scale(0.0833 -0.0833)">
       <use transform="scale(0.996264)" xlink:href="#CMR17-49"/>
       <use transform="translate(45.690477 0)scale(0.996264)" xlink:href="#CMR17-53"/>
      </g>
     </g>
    </g>
    <g id="ytick_20">
     <g id="line2d_55">
      <path clip-path="url(#pa208f534ea)" d="M 241.053616 164.618751 
L 405.182328 164.618751 
" style="fill:none;stroke:#cccccc;stroke-linecap:round;stroke-width:0.8;"/>
     </g>
     <g id="text_54">
      <!-- $\mathdefault{20}$ -->
      <g style="fill:#262626;" transform="translate(225.235944 167.500302)scale(0.0833 -0.0833)">
       <use transform="scale(0.996264)" xlink:href="#CMR17-50"/>
       <use transform="translate(45.690477 0)scale(0.996264)" xlink:href="#CMR17-48"/>
      </g>
     </g>
    </g>
    <g id="ytick_21">
     <g id="line2d_56">
      <path clip-path="url(#pa208f534ea)" d="M 241.053616 145.081551 
L 405.182328 145.081551 
" style="fill:none;stroke:#cccccc;stroke-linecap:round;stroke-width:0.8;"/>
     </g>
     <g id="text_55">
      <!-- $\mathdefault{25}$ -->
      <g style="fill:#262626;" transform="translate(225.235944 147.963102)scale(0.0833 -0.0833)">
       <use transform="scale(0.996264)" xlink:href="#CMR17-50"/>
       <use transform="translate(45.690477 0)scale(0.996264)" xlink:href="#CMR17-53"/>
      </g>
     </g>
    </g>
    <g id="text_56">
     <!-- Cost -->
     <g style="fill:#262626;" transform="translate(219.298765 203.30605)rotate(-90)scale(0.1 -0.1)">
      <defs>
       <path d="M 54.703125 11.015625 
C 48 6.5 44.90625 5.1875 36.796875 5.1875 
C 22.796875 5.1875 14.59375 20.375 14.59375 34.234375 
C 14.59375 49.015625 23 63.59375 37.203125 63.59375 
C 43.59375 63.59375 47.796875 61.78125 52.90625 58.5625 
L 54.296875 66.484375 
C 49.5 68.890625 43.40625 70 37.296875 70 
C 18.09375 70 6.203125 52.234375 6.203125 34.234375 
C 6.203125 14.4375 20.296875 -1.203125 36.296875 -1.203125 
C 44.90625 -1.203125 47.90625 -0.5 55.296875 4.1875 
z
" id="CMSS17-67"/>
      </defs>
      <use transform="scale(0.996264)" xlink:href="#CMSS17-67"/>
      <use transform="translate(59.855772 0)scale(0.996264)" xlink:href="#CMSS17-111"/>
      <use transform="translate(106.699395 0)scale(0.996264)" xlink:href="#CMSS17-115"/>
      <use transform="translate(142.612937 0)scale(0.996264)" xlink:href="#CMSS17-116"/>
     </g>
    </g>
   </g>
   <g id="line2d_57">
    <path clip-path="url(#pa208f534ea)" d="M 241.053616 164.618751 
L 257.466487 223.230352 
L 273.879358 164.618751 
L 290.292229 164.618751 
L 306.705101 223.230352 
L 339.530843 223.230352 
L 355.943714 184.155951 
L 372.356585 164.618751 
L 388.769457 223.230352 
L 405.182328 164.618751 
L 418.6 228.50611 
L 418.6 228.50611 
" style="fill:none;stroke:#1f77b4;stroke-linecap:round;"/>
   </g>
   <g id="patch_19">
    <path d="M 241.053616 242.767552 
L 241.053616 145.081551 
" style="fill:none;stroke:#cccccc;stroke-linecap:square;stroke-linejoin:miter;stroke-width:0.8;"/>
   </g>
   <g id="patch_20">
    <path d="M 405.182328 242.767552 
L 405.182328 145.081551 
" style="fill:none;stroke:#cccccc;stroke-linecap:square;stroke-linejoin:miter;stroke-width:0.8;"/>
   </g>
   <g id="patch_21">
    <path d="M 241.053616 242.767552 
L 405.182328 242.767552 
" style="fill:none;stroke:#cccccc;stroke-linecap:square;stroke-linejoin:miter;stroke-width:0.8;"/>
   </g>
   <g id="patch_22">
    <path d="M 241.053616 145.081551 
L 405.182328 145.081551 
" style="fill:none;stroke:#cccccc;stroke-linecap:square;stroke-linejoin:miter;stroke-width:0.8;"/>
   </g>
   <g id="text_57">
    <!-- (a) -->
    <g style="fill:#262626;" transform="translate(244.33619 156.803871)scale(0.1 -0.1)">
     <use transform="scale(0.996264)" xlink:href="#CMSS17-40"/>
     <use transform="translate(36.433914 0)scale(0.996264)" xlink:href="#CMSS17-97"/>
     <use transform="translate(81.355835 0)scale(0.996264)" xlink:href="#CMSS17-41"/>
    </g>
   </g>
   <g id="legend_3"/>
  </g>
 </g>
 <defs>
  <clipPath id="p70d8e26da9">
   <rect height="97.686001" width="164.128712" x="27.864513" y="6.481551"/>
  </clipPath>
  <clipPath id="p77ca3e2c1b">
   <rect height="97.686001" width="164.128712" x="241.053616" y="6.481551"/>
  </clipPath>
  <clipPath id="p889ce0a857">
   <rect height="97.686001" width="164.128712" x="27.864513" y="145.081551"/>
  </clipPath>
  <clipPath id="pa208f534ea">
   <rect height="97.686001" width="164.128712" x="241.053616" y="145.081551"/>
  </clipPath>
 </defs>
</svg>
