<?xml version="1.0" encoding="utf-8" standalone="no"?>
<!DOCTYPE svg PUBLIC "-//W3C//DTD SVG 1.1//EN"
  "http://www.w3.org/Graphics/SVG/1.1/DTD/svg11.dtd">
<!-- Created with matplotlib (https://matplotlib.org/) -->
<svg height="274.497746pt" version="1.1" viewBox="0 0 452.847821 274.497746" width="452.847821pt" xmlns="http://www.w3.org/2000/svg" xmlns:xlink="http://www.w3.org/1999/xlink">
 <metadata>
  <rdf:RDF xmlns:cc="http://creativecommons.org/ns#" xmlns:dc="http://purl.org/dc/elements/1.1/" xmlns:rdf="http://www.w3.org/1999/02/22-rdf-syntax-ns#">
   <cc:Work>
    <dc:type rdf:resource="http://purl.org/dc/dcmitype/StillImage"/>
    <dc:date>2021-12-21T12:52:47.825438</dc:date>
    <dc:format>image/svg+xml</dc:format>
    <dc:creator>
     <cc:Agent>
      <dc:title>Matplotlib v3.3.4, https://matplotlib.org/</dc:title>
     </cc:Agent>
    </dc:creator>
   </cc:Work>
  </rdf:RDF>
 </metadata>
 <defs>
  <style type="text/css">*{stroke-linecap:butt;stroke-linejoin:round;}</style>
 </defs>
 <g id="figure_1">
  <g id="patch_1">
   <path d="M 0 274.497746 
L 452.847821 274.497746 
L 452.847821 0 
L 0 0 
z
" style="fill:#ffffff;"/>
  </g>
  <g id="axes_1">
   <g id="patch_2">
    <path d="M 27.864513 104.677781 
L 209.617135 104.677781 
L 209.617135 6.604263 
L 27.864513 6.604263 
z
" style="fill:#ffffff;"/>
   </g>
   <g id="matplotlib.axis_1">
    <g id="xtick_1">
     <g id="line2d_1">
      <path clip-path="url(#p17f8e7297a)" d="M 27.864513 104.677781 
L 27.864513 6.604263 
" style="fill:none;stroke:#cccccc;stroke-linecap:round;stroke-width:0.8;"/>
     </g>
     <g id="text_1">
      <!-- $\mathdefault{0.0}$ -->
      <g style="fill:#262626;" transform="translate(22.230998 117.440883)scale(0.0833 -0.0833)">
       <defs>
        <path d="M 42 31.84375 
C 42 37.96875 41.90625 48.421875 37.703125 56.453125 
C 34 63.484375 28.09375 66 22.90625 66 
C 18.09375 66 12 63.78125 8.203125 56.5625 
C 4.203125 49.015625 3.796875 39.671875 3.796875 31.84375 
C 3.796875 26.109375 3.90625 17.375 7 9.734375 
C 11.296875 -0.609375 19 -2 22.90625 -2 
C 27.5 -2 34.5 -0.109375 38.59375 9.4375 
C 41.59375 16.375 42 24.5 42 31.84375 
z
M 22.90625 -0.40625 
C 16.5 -0.40625 12.703125 5.125 11.296875 12.75 
C 10.203125 18.6875 10.203125 27.328125 10.203125 32.953125 
C 10.203125 40.6875 10.203125 47.109375 11.5 53.234375 
C 13.40625 61.78125 19 64.390625 22.90625 64.390625 
C 27 64.390625 32.296875 61.671875 34.203125 53.4375 
C 35.5 47.71875 35.59375 40.984375 35.59375 32.953125 
C 35.59375 26.421875 35.59375 18.375 34.40625 12.453125 
C 32.296875 1.5 26.40625 -0.40625 22.90625 -0.40625 
z
" id="CMR17-48"/>
        <path d="M 18.40625 4.796875 
C 18.40625 7.6875 16 9.6875 13.59375 9.6875 
C 10.703125 9.6875 8.703125 7.296875 8.703125 4.890625 
C 8.703125 2 11.09375 0 13.5 0 
C 16.40625 0 18.40625 2.390625 18.40625 4.796875 
z
" id="CMMI12-58"/>
       </defs>
       <use transform="scale(0.996264)" xlink:href="#CMR17-48"/>
       <use transform="translate(45.690477 0)scale(0.996264)" xlink:href="#CMMI12-58"/>
       <use transform="translate(72.787654 0)scale(0.996264)" xlink:href="#CMR17-48"/>
      </g>
     </g>
    </g>
    <g id="xtick_2">
     <g id="line2d_2">
      <path clip-path="url(#p17f8e7297a)" d="M 64.215037 104.677781 
L 64.215037 6.604263 
" style="fill:none;stroke:#cccccc;stroke-linecap:round;stroke-width:0.8;"/>
     </g>
     <g id="text_2">
      <!-- $\mathdefault{0.2}$ -->
      <g style="fill:#262626;" transform="translate(58.581523 117.440883)scale(0.0833 -0.0833)">
       <defs>
        <path d="M 41.703125 15.46875 
L 39.90625 15.46875 
C 38.90625 8.390625 38.09375 7.1875 37.703125 6.59375 
C 37.203125 5.796875 30 5.796875 28.59375 5.796875 
L 9.40625 5.796875 
C 13 9.6875 20 16.765625 28.5 24.9375 
C 34.59375 30.71875 41.703125 37.5 41.703125 47.390625 
C 41.703125 59.1875 32.296875 66 21.796875 66 
C 10.796875 66 4.09375 56.296875 4.09375 47.296875 
C 4.09375 43.390625 7 42.890625 8.203125 42.890625 
C 9.203125 42.890625 12.203125 43.484375 12.203125 46.984375 
C 12.203125 50.09375 9.59375 51 8.203125 51 
C 7.59375 51 7 50.890625 6.59375 50.6875 
C 8.5 59.1875 14.296875 63.390625 20.40625 63.390625 
C 29.09375 63.390625 34.796875 56.5 34.796875 47.390625 
C 34.796875 38.703125 29.703125 31.21875 24 24.734375 
L 4.09375 2.296875 
L 4.09375 0 
L 39.296875 0 
z
" id="CMR17-50"/>
       </defs>
       <use transform="scale(0.996264)" xlink:href="#CMR17-48"/>
       <use transform="translate(45.690477 0)scale(0.996264)" xlink:href="#CMMI12-58"/>
       <use transform="translate(72.787654 0)scale(0.996264)" xlink:href="#CMR17-50"/>
      </g>
     </g>
    </g>
    <g id="xtick_3">
     <g id="line2d_3">
      <path clip-path="url(#p17f8e7297a)" d="M 100.565562 104.677781 
L 100.565562 6.604263 
" style="fill:none;stroke:#cccccc;stroke-linecap:round;stroke-width:0.8;"/>
     </g>
     <g id="text_3">
      <!-- $\mathdefault{0.4}$ -->
      <g style="fill:#262626;" transform="translate(94.932047 117.440883)scale(0.0833 -0.0833)">
       <defs>
        <path d="M 33.59375 64.796875 
C 33.59375 66.890625 33.5 67 31.703125 67 
L 2 19.59375 
L 2 17 
L 27.796875 17 
L 27.796875 7.1875 
C 27.796875 3.59375 27.59375 2.59375 20.59375 2.59375 
L 18.703125 2.59375 
L 18.703125 0 
C 21.90625 0.1875 27.296875 0.1875 30.703125 0.1875 
C 34.09375 0.1875 39.5 0.1875 42.703125 0 
L 42.703125 2.59375 
L 40.796875 2.59375 
C 33.796875 2.59375 33.59375 3.59375 33.59375 7.1875 
L 33.59375 17 
L 43.796875 17 
L 43.796875 19.59375 
L 33.59375 19.59375 
z
M 28.09375 58.171875 
L 28.09375 19.59375 
L 4 19.59375 
z
" id="CMR17-52"/>
       </defs>
       <use transform="scale(0.996264)" xlink:href="#CMR17-48"/>
       <use transform="translate(45.690477 0)scale(0.996264)" xlink:href="#CMMI12-58"/>
       <use transform="translate(72.787654 0)scale(0.996264)" xlink:href="#CMR17-52"/>
      </g>
     </g>
    </g>
    <g id="xtick_4">
     <g id="line2d_4">
      <path clip-path="url(#p17f8e7297a)" d="M 136.916086 104.677781 
L 136.916086 6.604263 
" style="fill:none;stroke:#cccccc;stroke-linecap:round;stroke-width:0.8;"/>
     </g>
     <g id="text_4">
      <!-- $\mathdefault{0.6}$ -->
      <g style="fill:#262626;" transform="translate(131.282572 117.440883)scale(0.0833 -0.0833)">
       <defs>
        <path d="M 10.59375 34.34375 
C 10.59375 58 21.796875 63.6875 28.296875 63.6875 
C 30.40625 63.6875 35.5 63.265625 37.5 59.09375 
C 35.90625 59.09375 32.90625 59.09375 32.90625 55.59375 
C 32.90625 52.890625 35.09375 52 36.5 52 
C 37.40625 52 40.09375 52.390625 40.09375 55.796875 
C 40.09375 62.296875 35.09375 66 28.203125 66 
C 16.296875 66 3.796875 53.296875 3.796875 31.421875 
C 3.796875 4.015625 15.09375 -2 23.09375 -2 
C 32.796875 -2 42 6.734375 42 20.234375 
C 42 32.828125 33.90625 42 23.703125 42 
C 17.59375 42 13.09375 37.96875 10.59375 30.921875 
z
M 23.09375 0.390625 
C 10.796875 0.390625 10.796875 18.9375 10.796875 22.65625 
C 10.796875 29.90625 14.203125 40.390625 23.5 40.390625 
C 25.203125 40.390625 30.09375 40.390625 33.40625 33.4375 
C 35.203125 29.515625 35.203125 25.375 35.203125 20.34375 
C 35.203125 14.90625 35.203125 10.875 33.09375 6.84375 
C 30.90625 2.703125 27.703125 0.390625 23.09375 0.390625 
z
" id="CMR17-54"/>
       </defs>
       <use transform="scale(0.996264)" xlink:href="#CMR17-48"/>
       <use transform="translate(45.690477 0)scale(0.996264)" xlink:href="#CMMI12-58"/>
       <use transform="translate(72.787654 0)scale(0.996264)" xlink:href="#CMR17-54"/>
      </g>
     </g>
    </g>
    <g id="xtick_5">
     <g id="line2d_5">
      <path clip-path="url(#p17f8e7297a)" d="M 173.266611 104.677781 
L 173.266611 6.604263 
" style="fill:none;stroke:#cccccc;stroke-linecap:round;stroke-width:0.8;"/>
     </g>
     <g id="text_5">
      <!-- $\mathdefault{0.8}$ -->
      <g style="fill:#262626;" transform="translate(167.633096 117.440883)scale(0.0833 -0.0833)">
       <defs>
        <path d="M 27.203125 35.765625 
C 33.5 38.96875 39.90625 43.796875 39.90625 51.53125 
C 39.90625 60.6875 31.09375 66 23 66 
C 13.90625 66 5.90625 59.375 5.90625 50.234375 
C 5.90625 47.71875 6.5 43.390625 10.40625 39.578125 
C 11.40625 38.578125 15.59375 35.5625 18.296875 33.65625 
C 13.796875 31.34375 3.296875 25.8125 3.296875 14.765625 
C 3.296875 4.40625 13.09375 -2 22.796875 -2 
C 33.5 -2 42.5 5.71875 42.5 15.96875 
C 42.5 25.109375 36.40625 29.328125 32.40625 32.046875 
z
M 14.09375 44.609375 
C 13.296875 45.109375 9.296875 48.21875 9.296875 52.9375 
C 9.296875 59.078125 15.59375 63.6875 22.796875 63.6875 
C 30.703125 63.6875 36.5 58.0625 36.5 51.53125 
C 36.5 42.1875 26.09375 36.859375 25.59375 36.859375 
C 25.5 36.859375 25.40625 36.859375 24.59375 37.46875 
z
M 32.5 24 
C 34 22.90625 38.796875 19.578125 38.796875 13.453125 
C 38.796875 6.015625 31.40625 0.390625 23 0.390625 
C 13.90625 0.390625 7 6.921875 7 14.859375 
C 7 22.796875 13.09375 29.4375 20 32.546875 
z
" id="CMR17-56"/>
       </defs>
       <use transform="scale(0.996264)" xlink:href="#CMR17-48"/>
       <use transform="translate(45.690477 0)scale(0.996264)" xlink:href="#CMMI12-58"/>
       <use transform="translate(72.787654 0)scale(0.996264)" xlink:href="#CMR17-56"/>
      </g>
     </g>
    </g>
    <g id="xtick_6">
     <g id="line2d_6">
      <path clip-path="url(#p17f8e7297a)" d="M 209.617135 104.677781 
L 209.617135 6.604263 
" style="fill:none;stroke:#cccccc;stroke-linecap:round;stroke-width:0.8;"/>
     </g>
     <g id="text_6">
      <!-- $\mathdefault{1.0}$ -->
      <g style="fill:#262626;" transform="translate(203.983621 117.440883)scale(0.0833 -0.0833)">
       <defs>
        <path d="M 26.59375 63.796875 
C 26.59375 65.890625 26.5 66 25.09375 66 
C 21.203125 61.359375 15.296875 59.890625 9.703125 59.6875 
C 9.40625 59.6875 8.90625 59.6875 8.796875 59.5 
C 8.703125 59.296875 8.703125 59.09375 8.703125 57 
C 11.796875 57 17 57.59375 21 59.984375 
L 21 7.296875 
C 21 3.796875 20.796875 2.59375 12.203125 2.59375 
L 9.203125 2.59375 
L 9.203125 0 
C 14 0.09375 19 0.1875 23.796875 0.1875 
C 28.59375 0.1875 33.59375 0.09375 38.40625 0 
L 38.40625 2.59375 
L 35.40625 2.59375 
C 26.796875 2.59375 26.59375 3.6875 26.59375 7.296875 
z
" id="CMR17-49"/>
       </defs>
       <use transform="scale(0.996264)" xlink:href="#CMR17-49"/>
       <use transform="translate(45.690477 0)scale(0.996264)" xlink:href="#CMMI12-58"/>
       <use transform="translate(72.787654 0)scale(0.996264)" xlink:href="#CMR17-48"/>
      </g>
     </g>
    </g>
   </g>
   <g id="matplotlib.axis_2">
    <g id="ytick_1">
     <g id="line2d_7">
      <path clip-path="url(#p17f8e7297a)" d="M 27.864513 104.677781 
L 209.617135 104.677781 
" style="fill:none;stroke:#cccccc;stroke-linecap:round;stroke-width:0.8;"/>
     </g>
     <g id="text_7">
      <!-- $\mathdefault{0.0}$ -->
      <g style="fill:#262626;" transform="translate(9.597484 107.559332)scale(0.0833 -0.0833)">
       <use transform="scale(0.996264)" xlink:href="#CMR17-48"/>
       <use transform="translate(45.690477 0)scale(0.996264)" xlink:href="#CMMI12-58"/>
       <use transform="translate(72.787654 0)scale(0.996264)" xlink:href="#CMR17-48"/>
      </g>
     </g>
    </g>
    <g id="ytick_2">
     <g id="line2d_8">
      <path clip-path="url(#p17f8e7297a)" d="M 27.864513 85.063077 
L 209.617135 85.063077 
" style="fill:none;stroke:#cccccc;stroke-linecap:round;stroke-width:0.8;"/>
     </g>
     <g id="text_8">
      <!-- $\mathdefault{0.2}$ -->
      <g style="fill:#262626;" transform="translate(9.597484 87.944628)scale(0.0833 -0.0833)">
       <use transform="scale(0.996264)" xlink:href="#CMR17-48"/>
       <use transform="translate(45.690477 0)scale(0.996264)" xlink:href="#CMMI12-58"/>
       <use transform="translate(72.787654 0)scale(0.996264)" xlink:href="#CMR17-50"/>
      </g>
     </g>
    </g>
    <g id="ytick_3">
     <g id="line2d_9">
      <path clip-path="url(#p17f8e7297a)" d="M 27.864513 65.448374 
L 209.617135 65.448374 
" style="fill:none;stroke:#cccccc;stroke-linecap:round;stroke-width:0.8;"/>
     </g>
     <g id="text_9">
      <!-- $\mathdefault{0.4}$ -->
      <g style="fill:#262626;" transform="translate(9.597484 68.329925)scale(0.0833 -0.0833)">
       <use transform="scale(0.996264)" xlink:href="#CMR17-48"/>
       <use transform="translate(45.690477 0)scale(0.996264)" xlink:href="#CMMI12-58"/>
       <use transform="translate(72.787654 0)scale(0.996264)" xlink:href="#CMR17-52"/>
      </g>
     </g>
    </g>
    <g id="ytick_4">
     <g id="line2d_10">
      <path clip-path="url(#p17f8e7297a)" d="M 27.864513 45.83367 
L 209.617135 45.83367 
" style="fill:none;stroke:#cccccc;stroke-linecap:round;stroke-width:0.8;"/>
     </g>
     <g id="text_10">
      <!-- $\mathdefault{0.6}$ -->
      <g style="fill:#262626;" transform="translate(9.597484 48.715221)scale(0.0833 -0.0833)">
       <use transform="scale(0.996264)" xlink:href="#CMR17-48"/>
       <use transform="translate(45.690477 0)scale(0.996264)" xlink:href="#CMMI12-58"/>
       <use transform="translate(72.787654 0)scale(0.996264)" xlink:href="#CMR17-54"/>
      </g>
     </g>
    </g>
    <g id="ytick_5">
     <g id="line2d_11">
      <path clip-path="url(#p17f8e7297a)" d="M 27.864513 26.218966 
L 209.617135 26.218966 
" style="fill:none;stroke:#cccccc;stroke-linecap:round;stroke-width:0.8;"/>
     </g>
     <g id="text_11">
      <!-- $\mathdefault{0.8}$ -->
      <g style="fill:#262626;" transform="translate(9.597484 29.100517)scale(0.0833 -0.0833)">
       <use transform="scale(0.996264)" xlink:href="#CMR17-48"/>
       <use transform="translate(45.690477 0)scale(0.996264)" xlink:href="#CMMI12-58"/>
       <use transform="translate(72.787654 0)scale(0.996264)" xlink:href="#CMR17-56"/>
      </g>
     </g>
    </g>
    <g id="ytick_6">
     <g id="line2d_12">
      <path clip-path="url(#p17f8e7297a)" d="M 27.864513 6.604263 
L 209.617135 6.604263 
" style="fill:none;stroke:#cccccc;stroke-linecap:round;stroke-width:0.8;"/>
     </g>
     <g id="text_12">
      <!-- $\mathdefault{1.0}$ -->
      <g style="fill:#262626;" transform="translate(9.597484 9.485814)scale(0.0833 -0.0833)">
       <use transform="scale(0.996264)" xlink:href="#CMR17-49"/>
       <use transform="translate(45.690477 0)scale(0.996264)" xlink:href="#CMMI12-58"/>
       <use transform="translate(72.787654 0)scale(0.996264)" xlink:href="#CMR17-48"/>
      </g>
     </g>
    </g>
   </g>
   <g id="patch_3">
    <path d="M 27.864513 104.677781 
L 27.864513 6.604263 
" style="fill:none;stroke:#cccccc;stroke-linecap:square;stroke-linejoin:miter;stroke-width:0.8;"/>
   </g>
   <g id="patch_4">
    <path d="M 209.617135 104.677781 
L 209.617135 6.604263 
" style="fill:none;stroke:#cccccc;stroke-linecap:square;stroke-linejoin:miter;stroke-width:0.8;"/>
   </g>
   <g id="patch_5">
    <path d="M 27.864513 104.677781 
L 209.617135 104.677781 
" style="fill:none;stroke:#cccccc;stroke-linecap:square;stroke-linejoin:miter;stroke-width:0.8;"/>
   </g>
   <g id="patch_6">
    <path d="M 27.864513 6.604263 
L 209.617135 6.604263 
" style="fill:none;stroke:#cccccc;stroke-linecap:square;stroke-linejoin:miter;stroke-width:0.8;"/>
   </g>
  </g>
  <g id="axes_2">
   <g id="patch_7">
    <path d="M 258.677526 104.677781 
L 440.430148 104.677781 
L 440.430148 6.604263 
L 258.677526 6.604263 
z
" style="fill:#ffffff;"/>
   </g>
   <g id="matplotlib.axis_3">
    <g id="xtick_7">
     <g id="line2d_13">
      <path clip-path="url(#p0282f375e3)" d="M 258.677526 104.677781 
L 258.677526 6.604263 
" style="fill:none;stroke:#cccccc;stroke-linecap:round;stroke-width:0.8;"/>
     </g>
     <g id="text_13">
      <!-- $\mathdefault{0}$ -->
      <g style="fill:#262626;" transform="translate(256.473108 117.440883)scale(0.0833 -0.0833)">
       <use transform="scale(0.996264)" xlink:href="#CMR17-48"/>
      </g>
     </g>
    </g>
    <g id="xtick_8">
     <g id="line2d_14">
      <path clip-path="url(#p0282f375e3)" d="M 295.028051 104.677781 
L 295.028051 6.604263 
" style="fill:none;stroke:#cccccc;stroke-linecap:round;stroke-width:0.8;"/>
     </g>
     <g id="text_14">
      <!-- $\mathdefault{1000}$ -->
      <g style="fill:#262626;" transform="translate(286.210378 117.440883)scale(0.0833 -0.0833)">
       <use transform="scale(0.996264)" xlink:href="#CMR17-49"/>
       <use transform="translate(45.690477 0)scale(0.996264)" xlink:href="#CMR17-48"/>
       <use transform="translate(91.380954 0)scale(0.996264)" xlink:href="#CMR17-48"/>
       <use transform="translate(137.071431 0)scale(0.996264)" xlink:href="#CMR17-48"/>
      </g>
     </g>
    </g>
    <g id="xtick_9">
     <g id="line2d_15">
      <path clip-path="url(#p0282f375e3)" d="M 331.378575 104.677781 
L 331.378575 6.604263 
" style="fill:none;stroke:#cccccc;stroke-linecap:round;stroke-width:0.8;"/>
     </g>
     <g id="text_15">
      <!-- $\mathdefault{2000}$ -->
      <g style="fill:#262626;" transform="translate(322.560903 117.440883)scale(0.0833 -0.0833)">
       <use transform="scale(0.996264)" xlink:href="#CMR17-50"/>
       <use transform="translate(45.690477 0)scale(0.996264)" xlink:href="#CMR17-48"/>
       <use transform="translate(91.380954 0)scale(0.996264)" xlink:href="#CMR17-48"/>
       <use transform="translate(137.071431 0)scale(0.996264)" xlink:href="#CMR17-48"/>
      </g>
     </g>
    </g>
    <g id="xtick_10">
     <g id="line2d_16">
      <path clip-path="url(#p0282f375e3)" d="M 367.7291 104.677781 
L 367.7291 6.604263 
" style="fill:none;stroke:#cccccc;stroke-linecap:round;stroke-width:0.8;"/>
     </g>
     <g id="text_16">
      <!-- $\mathdefault{3000}$ -->
      <g style="fill:#262626;" transform="translate(358.911427 117.440883)scale(0.0833 -0.0833)">
       <defs>
        <path d="M 22.09375 34 
C 31 34 34.90625 26.140625 34.90625 17.09375 
C 34.90625 5.03125 28.5 0.390625 22.703125 0.390625 
C 17.40625 0.390625 8.796875 3.015625 6.09375 10.796875 
C 6.59375 10.59375 7.09375 10.59375 7.59375 10.59375 
C 10 10.59375 11.796875 12.1875 11.796875 14.796875 
C 11.796875 17.6875 9.59375 19 7.59375 19 
C 5.90625 19 3.296875 18.1875 3.296875 14.484375 
C 3.296875 5.234375 12.296875 -2 22.90625 -2 
C 34 -2 42.5 6.75 42.5 16.984375 
C 42.5 26.84375 34.5 34 25 35.09375 
C 32.59375 36.671875 39.90625 43.375 39.90625 52.390625 
C 39.90625 60.25 32 66 23 66 
C 13.90625 66 5.90625 60.34375 5.90625 52.296875 
C 5.90625 48.796875 8.5 48.1875 9.796875 48.1875 
C 11.90625 48.1875 13.703125 49.484375 13.703125 52.09375 
C 13.703125 54.6875 11.90625 56 9.796875 56 
C 9.40625 56 8.90625 56 8.5 55.796875 
C 11.40625 62.484375 19.296875 63.6875 22.796875 63.6875 
C 26.296875 63.6875 32.90625 61.96875 32.90625 52.296875 
C 32.90625 49.484375 32.5 44.546875 29.09375 40.21875 
C 26.09375 36.390625 22.703125 36.1875 19.40625 35.890625 
C 18.90625 35.890625 16.59375 35.6875 16.203125 35.6875 
C 15.5 35.59375 15.09375 35.5 15.09375 34.796875 
C 15.09375 34.09375 15.203125 34 17.203125 34 
z
" id="CMR17-51"/>
       </defs>
       <use transform="scale(0.996264)" xlink:href="#CMR17-51"/>
       <use transform="translate(45.690477 0)scale(0.996264)" xlink:href="#CMR17-48"/>
       <use transform="translate(91.380954 0)scale(0.996264)" xlink:href="#CMR17-48"/>
       <use transform="translate(137.071431 0)scale(0.996264)" xlink:href="#CMR17-48"/>
      </g>
     </g>
    </g>
    <g id="xtick_11">
     <g id="line2d_17">
      <path clip-path="url(#p0282f375e3)" d="M 404.079624 104.677781 
L 404.079624 6.604263 
" style="fill:none;stroke:#cccccc;stroke-linecap:round;stroke-width:0.8;"/>
     </g>
     <g id="text_17">
      <!-- $\mathdefault{4000}$ -->
      <g style="fill:#262626;" transform="translate(395.261952 117.440883)scale(0.0833 -0.0833)">
       <use transform="scale(0.996264)" xlink:href="#CMR17-52"/>
       <use transform="translate(45.690477 0)scale(0.996264)" xlink:href="#CMR17-48"/>
       <use transform="translate(91.380954 0)scale(0.996264)" xlink:href="#CMR17-48"/>
       <use transform="translate(137.071431 0)scale(0.996264)" xlink:href="#CMR17-48"/>
      </g>
     </g>
    </g>
    <g id="xtick_12">
     <g id="line2d_18">
      <path clip-path="url(#p0282f375e3)" d="M 440.430148 104.677781 
L 440.430148 6.604263 
" style="fill:none;stroke:#cccccc;stroke-linecap:round;stroke-width:0.8;"/>
     </g>
     <g id="text_18">
      <!-- $\mathdefault{5000}$ -->
      <g style="fill:#262626;" transform="translate(431.612476 117.440883)scale(0.0833 -0.0833)">
       <defs>
        <path d="M 11.40625 58.59375 
C 12.40625 58.1875 16.5 56.890625 20.703125 56.890625 
C 30 56.890625 35.09375 61.890625 38 64.6875 
C 38 65.484375 38 66 37.40625 66 
C 37.296875 66 37.09375 66 36.296875 65.59375 
C 32.796875 64.09375 28.703125 63 23.703125 63 
C 20.703125 63 16.203125 63.359375 11.296875 65.484375 
C 10.203125 66 10 66 9.90625 66 
C 9.40625 66 9.296875 65.890625 9.296875 63.90625 
L 9.296875 34.859375 
C 9.296875 33.015625 9.296875 32.5 10.296875 32.5 
C 10.796875 32.5 11 32.703125 11.5 33.421875 
C 14.703125 38.046875 19.09375 40 24.09375 40 
C 27.59375 40 35.09375 37.734375 35.09375 20.203125 
C 35.09375 16.984375 35.09375 11.1875 32.09375 6.59375 
C 29.59375 2.484375 25.703125 0.390625 21.40625 0.390625 
C 14.796875 0.390625 8.09375 4.984375 6.296875 12.6875 
C 6.703125 12.59375 7.5 12.390625 7.90625 12.390625 
C 9.203125 12.390625 11.703125 13.09375 11.703125 16.1875 
C 11.703125 18.890625 9.796875 20 7.90625 20 
C 5.59375 20 4.09375 18.59375 4.09375 15.796875 
C 4.09375 7.09375 11 -2 21.59375 -2 
C 31.90625 -2 41.703125 6.890625 41.703125 19.796875 
C 41.703125 32.09375 33.90625 41.59375 24.203125 41.59375 
C 19.09375 41.59375 14.796875 39.6875 11.40625 36 
z
" id="CMR17-53"/>
       </defs>
       <use transform="scale(0.996264)" xlink:href="#CMR17-53"/>
       <use transform="translate(45.690477 0)scale(0.996264)" xlink:href="#CMR17-48"/>
       <use transform="translate(91.380954 0)scale(0.996264)" xlink:href="#CMR17-48"/>
       <use transform="translate(137.071431 0)scale(0.996264)" xlink:href="#CMR17-48"/>
      </g>
     </g>
    </g>
    <g id="text_19">
     <!-- Training epochs -->
     <g style="fill:#262626;" transform="translate(316.552546 129.97305)scale(0.1 -0.1)">
      <defs>
       <path d="M 36.203125 62.296875 
L 44.5 62.296875 
C 45.703125 62.296875 46.90625 62.1875 48.09375 62.1875 
L 60.59375 62.1875 
L 60.59375 68.6875 
L 3.40625 68.6875 
L 3.40625 62.1875 
L 15.90625 62.1875 
C 17.09375 62.1875 18.296875 62.296875 19.5 62.296875 
L 27.796875 62.296875 
L 27.796875 0 
L 36.203125 0 
z
" id="CMSS17-84"/>
       <path d="M 14.90625 21.390625 
C 14.90625 30.84375 21.796875 37.171875 30.59375 37.375 
L 30.59375 44 
C 24.203125 43.890625 18.203125 40.6875 14.59375 35.46875 
L 14.59375 43.484375 
L 7.5 43.484375 
L 7.5 0 
L 14.90625 0 
z
" id="CMSS17-114"/>
       <path d="M 37.59375 27.953125 
C 37.59375 37.484375 30.90625 44 21.90625 44 
C 17.5 44 12.703125 43.1875 7.203125 39.984375 
L 7.796875 33.328125 
C 10.296875 35.15625 14.59375 38.09375 21.796875 38.09375 
C 26.90625 38.09375 30 34.140625 30 27.84375 
L 30 24 
C 14 23.5 4 18.890625 4 11.109375 
C 4 7.0625 6.5 -1 14.796875 -1 
C 16.296875 -1 24.40625 -0.8125 30.203125 3.5 
L 30.203125 -0.203125 
L 37.59375 -0.203125 
z
M 30 12.875 
C 30 11.109375 30 8.734375 27 6.96875 
C 24.40625 5.296875 21.09375 5.09375 19.703125 5.09375 
C 14.703125 5.09375 11.296875 7.859375 11.296875 11.296875 
C 11.296875 18.203125 26.90625 18.890625 30 19 
z
" id="CMSS17-97"/>
       <path d="M 15.296875 66 
L 6.90625 66 
L 6.90625 57.59375 
L 15.296875 57.59375 
z
M 14.796875 43 
L 7.40625 43 
L 7.40625 0 
L 14.796875 0 
z
" id="CMSS17-105"/>
       <path d="M 40.90625 29.34375 
C 40.90625 35.671875 39.40625 44 28.09375 44 
C 21.703125 44 17.5 40.6875 14.703125 37.28125 
L 14.703125 43.484375 
L 7.40625 43.484375 
L 7.40625 0 
L 15 0 
L 15 24.3125 
C 15 30.65625 17.40625 37.890625 24.203125 37.890625 
C 33 37.890625 33.296875 31.953125 33.296875 28.53125 
L 33.296875 0 
L 40.90625 0 
z
" id="CMSS17-110"/>
       <path d="M 44.5 44 
C 38.796875 43.890625 33.90625 42.796875 29.90625 40.890625 
C 26.59375 43.484375 23.203125 44 20.90625 44 
C 12.203125 44 5.59375 36.8125 5.59375 28.5 
C 5.59375 23.140625 8.59375 19.09375 8.796875 18.890625 
C 7 16.390625 6 13.6875 6 10.6875 
C 6 7.1875 7.40625 4.6875 8.5 3.296875 
C 3.296875 0.09375 2.59375 -4.8125 2.59375 -6.703125 
C 2.59375 -14 11.703125 -20 23.40625 -20 
C 35.203125 -20 44.296875 -14 44.296875 -6.609375 
C 44.296875 7.1875 29 7.296875 24.796875 7.296875 
L 16.703125 7.296875 
C 15.203125 7.296875 11.203125 7.296875 11.203125 12.390625 
C 11.203125 14.390625 12.09375 15.6875 12.203125 15.796875 
C 13.703125 14.6875 16.796875 13 20.90625 13 
C 29.203125 13 36.09375 19.984375 36.09375 28.5 
C 36.09375 33.25 33.90625 36.703125 33 37.890625 
L 33.296875 37.890625 
C 33.59375 37.890625 37.796875 38.1875 39.296875 38.1875 
C 42.5 38.1875 42.796875 38.09375 45.59375 37.796875 
z
M 20.90625 18.5 
C 17.5 18.5 12.703125 20.578125 12.703125 28.5 
C 12.703125 37.109375 18.203125 38.484375 20.796875 38.484375 
C 24.203125 38.484375 29 36.40625 29 28.5 
C 29 19.875 23.5 18.5 20.90625 18.5 
z
M 24.703125 0 
C 27.09375 0 37.203125 0 37.203125 -6.8125 
C 37.203125 -11.109375 31 -14.5 23.5 -14.5 
C 15.90625 -14.5 9.703125 -11.203125 9.703125 -6.703125 
C 9.703125 -6.203125 9.703125 0 16.59375 0 
z
" id="CMSS17-103"/>
       <path d="M 39.09375 21.484375 
C 39.09375 24.796875 38.90625 31.265625 35.703125 36.671875 
C 32.203125 42.390625 26.5 44 22.203125 44 
C 11.796875 44 3 34.125 3 21.296875 
C 3 9.046875 12.09375 -1 23.59375 -1 
C 28.09375 -1 33.59375 0.296875 38.59375 3.890625 
C 38.59375 4.296875 38.40625 6.46875 38.296875 6.578125 
C 38.296875 6.765625 38 9.828125 38 10.234375 
C 33.203125 6.375 27.703125 5.09375 23.703125 5.09375 
C 17.296875 5.09375 10.40625 10.421875 10.09375 21.484375 
z
M 10.90625 27 
C 12.203125 32.59375 16.59375 37.890625 22.203125 37.890625 
C 23.703125 37.890625 30.703125 37.6875 32.5 27 
z
" id="CMSS17-101"/>
       <path d="M 15.09375 4.296875 
C 18.40625 1.09375 22.90625 -1 27.703125 -1 
C 37 -1 45 8.640625 45 21.59375 
C 45 33.546875 39 44 30.40625 44 
C 25.40625 44 19.40625 42.1875 14.90625 38.59375 
L 14.90625 43.1875 
L 7.5 43.1875 
L 7.5 -20 
L 15.09375 -20 
z
M 15.09375 32.625 
C 15.90625 33.84375 19.296875 37.6875 24.796875 37.6875 
C 31.796875 37.6875 37.40625 30.40625 37.40625 21.59375 
C 37.40625 11.578125 30.59375 5.09375 23.90625 5.09375 
C 21.90625 5.09375 19.796875 5.59375 17.796875 7.3125 
C 15.09375 9.75 15.09375 11.265625 15.09375 12.6875 
z
" id="CMSS17-112"/>
       <path d="M 44.203125 21.1875 
C 44.203125 33.984375 34.703125 44 23.5 44 
C 12 44 2.703125 33.6875 2.703125 21.1875 
C 2.703125 8.5 12.296875 -1 23.40625 -1 
C 34.796875 -1 44.203125 8.796875 44.203125 21.1875 
z
M 23.5 5.296875 
C 16.40625 5.296875 10.296875 11.09375 10.296875 21.984375 
C 10.296875 33.59375 17.40625 37.890625 23.40625 37.890625 
C 29.90625 37.890625 36.59375 33.1875 36.59375 21.984375 
C 36.59375 10.6875 30.09375 5.296875 23.5 5.296875 
z
" id="CMSS17-111"/>
       <path d="M 38.5 39.6875 
C 38.5 40.390625 33.90625 42.390625 32.703125 42.796875 
C 29.40625 44 25.203125 44 24.09375 44 
C 11.09375 44 3.296875 32.6875 3.296875 21.296875 
C 3.296875 9.296875 12 -1 23.703125 -1 
C 30.40625 -1 35.203125 1.1875 39.09375 3.796875 
L 38.5 10.390625 
C 34.203125 7.09375 29.203125 5.296875 23.796875 5.296875 
C 16 5.296875 10.90625 12.09375 10.90625 21.390625 
C 10.90625 28.59375 14.203125 37.6875 24.203125 37.6875 
C 29.703125 37.6875 32.796875 36.59375 37.40625 33.484375 
z
" id="CMSS17-99"/>
       <path d="M 40.90625 29.34375 
C 40.90625 35.671875 39.40625 44 28.09375 44 
C 21.796875 44 17.703125 40.890625 14.796875 37.484375 
L 14.796875 69 
L 7.40625 69 
L 7.40625 0 
L 15 0 
L 15 24.3125 
C 15 30.65625 17.40625 37.890625 24.203125 37.890625 
C 33 37.890625 33.296875 31.953125 33.296875 28.53125 
L 33.296875 0 
L 40.90625 0 
z
" id="CMSS17-104"/>
       <path d="M 32.203125 40.984375 
C 26.296875 43.796875 21.703125 44 18.703125 44 
C 11.59375 44 3.09375 41.484375 3.09375 31.390625 
C 3.09375 21.296875 14.09375 19.09375 17.09375 18.484375 
C 21.703125 17.59375 26.796875 16.59375 26.796875 11.59375 
C 26.796875 5.296875 19.59375 5.296875 18.296875 5.296875 
C 14.296875 5.296875 8.796875 6.390625 3.796875 9.984375 
L 2.59375 3.296875 
C 8.296875 0 13.796875 -1 18.40625 -1 
C 30.703125 -1 33.796875 6.5 33.796875 12.1875 
C 33.796875 17.09375 31 20.390625 29.09375 21.890625 
C 25.796875 24.484375 24.59375 24.796875 16.40625 26.484375 
C 15 26.6875 10.09375 27.796875 10.09375 32.296875 
C 10.09375 37.984375 16.40625 37.984375 17.796875 37.984375 
C 24.296875 37.984375 28.296875 35.984375 31 34.484375 
z
" id="CMSS17-115"/>
      </defs>
      <use transform="scale(0.996264)" xlink:href="#CMSS17-84"/>
      <use transform="translate(56.012199 0)scale(0.996264)" xlink:href="#CMSS17-114"/>
      <use transform="translate(87.921971 0)scale(0.996264)" xlink:href="#CMSS17-97"/>
      <use transform="translate(132.843892 0)scale(0.996264)" xlink:href="#CMSS17-105"/>
      <use transform="translate(155.024615 0)scale(0.996264)" xlink:href="#CMSS17-110"/>
      <use transform="translate(203.229558 0)scale(0.996264)" xlink:href="#CMSS17-105"/>
      <use transform="translate(225.410281 0)scale(0.996264)" xlink:href="#CMSS17-110"/>
      <use transform="translate(273.615224 0)scale(0.996264)" xlink:href="#CMSS17-103"/>
      <use transform="translate(351.68796 0)scale(0.996264)" xlink:href="#CMSS17-101"/>
      <use transform="translate(393.326782 0)scale(0.996264)" xlink:href="#CMSS17-112"/>
      <use transform="translate(444.134164 0)scale(0.996264)" xlink:href="#CMSS17-111"/>
      <use transform="translate(493.580226 0)scale(0.996264)" xlink:href="#CMSS17-99"/>
      <use transform="translate(535.219049 0)scale(0.996264)" xlink:href="#CMSS17-104"/>
      <use transform="translate(583.423992 0)scale(0.996264)" xlink:href="#CMSS17-115"/>
     </g>
    </g>
   </g>
   <g id="matplotlib.axis_4">
    <g id="ytick_7">
     <g id="line2d_19">
      <path clip-path="url(#p0282f375e3)" d="M 258.677526 104.677781 
L 440.430148 104.677781 
" style="fill:none;stroke:#cccccc;stroke-linecap:round;stroke-width:0.8;"/>
     </g>
     <g id="text_20">
      <!-- $\mathdefault{10^{0}}$ -->
      <g style="fill:#262626;" transform="translate(238.906326 107.559332)scale(0.0833 -0.0833)">
       <use transform="scale(0.996264)" xlink:href="#CMR17-49"/>
       <use transform="translate(45.690477 0)scale(0.996264)" xlink:href="#CMR17-48"/>
       <use transform="translate(91.380954 36.153639)scale(0.697382)" xlink:href="#CMR17-48"/>
      </g>
     </g>
    </g>
    <g id="ytick_8">
     <g id="line2d_20">
      <path clip-path="url(#p0282f375e3)" d="M 258.677526 55.641022 
L 440.430148 55.641022 
" style="fill:none;stroke:#cccccc;stroke-linecap:round;stroke-width:0.8;"/>
     </g>
     <g id="text_21">
      <!-- $\mathdefault{10^{2}}$ -->
      <g style="fill:#262626;" transform="translate(238.906326 58.522573)scale(0.0833 -0.0833)">
       <use transform="scale(0.996264)" xlink:href="#CMR17-49"/>
       <use transform="translate(45.690477 0)scale(0.996264)" xlink:href="#CMR17-48"/>
       <use transform="translate(91.380954 36.153639)scale(0.697382)" xlink:href="#CMR17-50"/>
      </g>
     </g>
    </g>
    <g id="ytick_9">
     <g id="line2d_21">
      <path clip-path="url(#p0282f375e3)" d="M 258.677526 6.604263 
L 440.430148 6.604263 
" style="fill:none;stroke:#cccccc;stroke-linecap:round;stroke-width:0.8;"/>
     </g>
     <g id="text_22">
      <!-- $\mathdefault{10^{4}}$ -->
      <g style="fill:#262626;" transform="translate(238.906326 9.485814)scale(0.0833 -0.0833)">
       <use transform="scale(0.996264)" xlink:href="#CMR17-49"/>
       <use transform="translate(45.690477 0)scale(0.996264)" xlink:href="#CMR17-48"/>
       <use transform="translate(91.380954 36.153639)scale(0.697382)" xlink:href="#CMR17-52"/>
      </g>
     </g>
    </g>
    <g id="text_23">
     <!-- Expected cost per period -->
     <g style="fill:#262626;" transform="translate(232.969148 107.682043)rotate(-90)scale(0.1 -0.1)">
      <defs>
       <path d="M 30.59375 6.796875 
C 22.59375 6.796875 19 6.796875 17.203125 6.6875 
L 17.203125 32.890625 
L 48.203125 32.890625 
L 48.203125 39 
L 17.203125 39 
L 17.203125 62.390625 
L 30.09375 62.390625 
C 31.296875 62.390625 32.5 62.296875 33.703125 62.296875 
L 50.796875 62.296875 
L 50.796875 68.796875 
L 8.796875 68.796875 
L 8.796875 0 
L 52.09375 0 
L 52.09375 6.890625 
z
" id="CMSS17-69"/>
       <path d="M 24.796875 22.1875 
L 41.5 43 
L 32.796875 43 
L 21.296875 27.890625 
L 9.40625 43 
L 0.5 43 
L 17.796875 22.1875 
L 0 0 
L 8.796875 0 
L 21.296875 17.59375 
L 34.296875 0 
L 43.09375 0 
z
" id="CMSS17-120"/>
       <path d="M 16.703125 37.1875 
L 29.703125 37.1875 
L 29.703125 43 
L 16.703125 43 
L 16.703125 55 
L 9.59375 55 
L 9.59375 43 
L 1.703125 43 
L 1.703125 37.1875 
L 9.40625 37.1875 
L 9.40625 11.734375 
C 9.40625 6 10.703125 -1 17.296875 -1 
C 22.296875 -1 26.90625 0.390625 31.296875 2.6875 
L 29.703125 8.609375 
C 27.296875 6.5 24.40625 5.296875 21.296875 5.296875 
C 16.90625 5.296875 16.703125 10.921875 16.703125 13.4375 
z
" id="CMSS17-116"/>
       <path d="M 40.796875 69 
L 33.40625 69 
L 33.40625 38.984375 
C 30.296875 41.59375 25.203125 44 19.59375 44 
C 10.5 44 3.296875 34.046875 3.296875 21.484375 
C 3.296875 8.9375 10.40625 -1 19.296875 -1 
C 26.203125 -1 30.796875 2.6875 33.203125 4.796875 
L 33.203125 -0.203125 
L 40.796875 -0.203125 
z
M 33.203125 13.296875 
C 33.203125 11.875 33.203125 10.359375 30.09375 7.625 
C 28.09375 5.90625 25.703125 5.09375 23.40625 5.09375 
C 18 5.09375 10.90625 9.140625 10.90625 21.390625 
C 10.90625 34.140625 18.90625 37.890625 24.40625 37.890625 
C 28.09375 37.890625 31.09375 36.0625 33.203125 33.03125 
z
" id="CMSS17-100"/>
      </defs>
      <use transform="scale(0.996264)" xlink:href="#CMSS17-69"/>
      <use transform="translate(55.892013 0)scale(0.996264)" xlink:href="#CMSS17-120"/>
      <use transform="translate(98.892155 0)scale(0.996264)" xlink:href="#CMSS17-112"/>
      <use transform="translate(149.699537 0)scale(0.996264)" xlink:href="#CMSS17-101"/>
      <use transform="translate(191.338359 0)scale(0.996264)" xlink:href="#CMSS17-99"/>
      <use transform="translate(232.977181 0)scale(0.996264)" xlink:href="#CMSS17-116"/>
      <use transform="translate(266.808748 0)scale(0.996264)" xlink:href="#CMSS17-101"/>
      <use transform="translate(308.44757 0)scale(0.996264)" xlink:href="#CMSS17-100"/>
      <use transform="translate(387.881626 0)scale(0.996264)" xlink:href="#CMSS17-99"/>
      <use transform="translate(429.520448 0)scale(0.996264)" xlink:href="#CMSS17-111"/>
      <use transform="translate(476.364071 0)scale(0.996264)" xlink:href="#CMSS17-115"/>
      <use transform="translate(512.277613 0)scale(0.996264)" xlink:href="#CMSS17-116"/>
      <use transform="translate(577.338293 0)scale(0.996264)" xlink:href="#CMSS17-112"/>
      <use transform="translate(628.145674 0)scale(0.996264)" xlink:href="#CMSS17-101"/>
      <use transform="translate(669.784496 0)scale(0.996264)" xlink:href="#CMSS17-114"/>
      <use transform="translate(732.923382 0)scale(0.996264)" xlink:href="#CMSS17-112"/>
      <use transform="translate(783.730764 0)scale(0.996264)" xlink:href="#CMSS17-101"/>
      <use transform="translate(825.369586 0)scale(0.996264)" xlink:href="#CMSS17-114"/>
      <use transform="translate(857.279358 0)scale(0.996264)" xlink:href="#CMSS17-105"/>
      <use transform="translate(879.460081 0)scale(0.996264)" xlink:href="#CMSS17-111"/>
      <use transform="translate(928.906144 0)scale(0.996264)" xlink:href="#CMSS17-100"/>
     </g>
    </g>
   </g>
   <g id="LineCollection_1">
    <path clip-path="url(#p0282f375e3)" d="M 258.677526 80.159401 
L 440.430148 80.159401 
" style="fill:none;stroke:#000000;stroke-dasharray:3.7,1.6;stroke-dashoffset:0;"/>
   </g>
   <g id="line2d_22">
    <path clip-path="url(#p0282f375e3)" d="M 258.677526 15.703571 
L 258.895629 19.714499 
L 259.041031 20.048175 
L 259.259135 22.412546 
L 259.331836 22.412546 
L 259.477238 22.642777 
L 259.513588 22.642777 
L 259.695341 24.411592 
L 259.877093 24.665411 
L 260.095197 24.665411 
L 260.240599 24.800223 
L 260.276949 24.800223 
L 260.495052 25.97369 
L 260.531403 25.97369 
L 260.676805 26.888898 
L 260.822207 26.888898 
L 261.258413 28.022604 
L 261.549218 28.022604 
L 261.585568 28.140029 
L 261.73097 29.221969 
L 262.38528 29.221969 
L 262.530682 30.06166 
L 262.603383 30.06166 
L 262.676084 30.180908 
L 262.821486 31.209831 
L 263.693899 31.209831 
L 263.7666 31.333666 
L 263.912002 32.444782 
L 264.49361 32.444782 
L 264.639012 33.612409 
L 265.111569 33.612409 
L 265.256971 33.73232 
L 266.56559 33.73232 
L 266.710992 33.852887 
L 267.619755 33.852887 
L 267.910559 39.143173 
L 269.146477 39.143173 
L 269.291879 39.254692 
L 273.363138 39.254692 
L 273.50854 40.317636 
L 274.526355 40.317636 
L 274.671757 41.452233 
L 276.525634 41.554445 
L 276.671036 42.9149 
L 278.415861 42.838383 
L 278.561263 43.258033 
L 278.597614 43.3428 
L 278.670315 43.258033 
L 279.906232 43.258033 
L 280.051635 44.783999 
L 280.087985 44.689738 
L 280.160686 44.783999 
L 280.669593 44.783999 
L 280.742294 45.797845 
L 280.778645 45.72951 
L 283.541285 45.72951 
L 283.686687 45.92876 
L 284.268295 45.92876 
L 284.413697 47.278814 
L 285.97677 47.278814 
L 286.122172 49.203964 
L 287.103636 49.203964 
L 287.249038 49.807643 
L 289.575472 49.807643 
L 289.720874 51.608223 
L 291.756503 51.608223 
L 291.901905 52.660634 
L 294.519143 52.660634 
L 294.664545 54.944864 
L 296.591123 54.944864 
L 296.736525 58.070054 
L 297.79069 58.17286 
L 297.936093 60.500823 
L 299.426464 60.591413 
L 299.571866 63.593747 
L 299.935371 63.593747 
L 300.080773 67.130113 
L 300.298877 67.130113 
L 300.444279 73.74318 
L 300.589681 73.74318 
L 300.626031 67.130113 
L 300.698732 73.74318 
L 300.989537 73.74318 
L 301.025887 67.130113 
L 301.098588 73.74318 
L 301.171289 73.74318 
L 301.316691 74.293604 
L 301.425743 74.293604 
L 301.571145 67.452836 
L 301.716547 74.293604 
L 301.93465 74.293604 
L 301.971001 67.452836 
L 302.043702 74.293604 
L 302.370857 74.293604 
L 302.407207 67.452836 
L 302.479908 74.293604 
L 302.770712 74.293604 
L 302.807063 67.452836 
L 302.879764 74.293604 
L 303.206919 74.293604 
L 303.243269 67.452836 
L 303.31597 74.293604 
L 303.606774 74.293604 
L 303.679475 67.452836 
L 303.752176 67.534878 
L 303.897579 74.829064 
L 304.152032 74.829064 
L 304.188383 67.534878 
L 304.261084 74.829064 
L 304.551888 74.829064 
L 304.588239 67.534878 
L 304.66094 74.829064 
L 304.988094 74.829064 
L 305.024445 67.534878 
L 305.097146 74.829064 
L 305.38795 74.829064 
L 305.424301 67.534878 
L 305.497002 74.829064 
L 305.933208 74.829064 
L 305.969558 67.534878 
L 306.04226 74.829064 
L 306.187662 74.829064 
L 306.333064 75.357319 
L 306.369414 67.821884 
L 306.442115 75.357319 
L 306.732919 75.357319 
L 306.76927 67.821884 
L 306.841971 75.357319 
L 307.169126 75.357319 
L 307.205476 67.821884 
L 307.278177 75.357319 
L 307.568982 75.357319 
L 307.605332 67.821884 
L 307.678033 75.357319 
L 307.968837 75.357319 
L 308.114239 67.821884 
L 308.259641 75.357319 
L 308.405044 75.357319 
L 308.514095 75.875813 
L 308.550446 67.974962 
L 308.623147 75.875813 
L 308.913951 75.875813 
L 308.950301 67.974962 
L 309.023003 75.875813 
L 309.313807 75.875813 
L 309.350157 67.974962 
L 309.422858 75.875813 
L 309.713662 75.875813 
L 309.750013 67.974962 
L 309.822714 75.875813 
L 310.113518 75.875813 
L 310.149869 67.974962 
L 310.22257 75.875813 
L 310.513374 75.875813 
L 310.658776 67.974962 
L 310.804178 75.875813 
L 310.91323 75.875813 
L 311.022281 76.379357 
L 311.058632 68.134574 
L 311.131333 76.379357 
L 311.385787 76.379357 
L 311.422137 68.134574 
L 311.494838 76.379357 
L 311.785642 76.379357 
L 311.821993 68.134574 
L 311.894694 76.379357 
L 312.149148 76.379357 
L 312.185498 68.134574 
L 312.258199 76.379357 
L 312.512653 76.379357 
L 312.549003 68.134574 
L 312.621704 76.379357 
L 312.876158 76.379357 
L 312.912509 68.134574 
L 312.98521 76.379357 
L 313.166962 76.379357 
L 313.239663 76.863246 
L 313.276014 68.223419 
L 313.348715 76.863246 
L 313.603169 76.863246 
L 313.639519 68.223419 
L 313.71222 76.863246 
L 313.966674 76.863246 
L 314.003024 68.223419 
L 314.075725 76.863246 
L 314.330179 76.863246 
L 314.36653 63.923949 
L 314.439231 76.863246 
L 314.802736 76.863246 
L 314.839086 67.987685 
L 314.948138 68.223419 
L 315.020839 68.223419 
L 315.166241 76.863246 
L 315.238942 76.863246 
L 315.384344 68.223419 
L 315.529746 76.863246 
L 315.566097 76.863246 
L 315.602447 67.987685 
L 315.675148 76.863246 
L 315.74785 77.334385 
L 315.7842 68.485036 
L 315.856901 77.334385 
L 316.111355 77.334385 
L 316.147705 64.063391 
L 316.220406 77.334385 
L 316.583912 77.334385 
L 316.620262 68.168782 
L 316.692963 68.485036 
L 316.838365 77.334385 
L 317.020118 77.334385 
L 317.056468 64.063391 
L 317.129169 77.334385 
L 317.601726 77.334385 
L 317.638077 68.168782 
L 317.710778 68.485036 
L 317.85618 77.334385 
L 318.037933 77.334385 
L 318.074283 64.063391 
L 318.146984 77.334385 
L 318.219685 77.334385 
L 318.365087 77.778668 
L 318.510489 77.778668 
L 318.655891 68.276157 
L 318.801294 77.778668 
L 319.055747 77.778668 
L 319.092098 64.064676 
L 319.164799 77.778668 
L 319.564655 77.778668 
L 319.601005 56.364773 
L 319.673706 77.778668 
L 320.328016 77.778668 
L 320.473418 68.487815 
L 320.61882 77.778668 
L 320.691521 77.778668 
L 320.764222 68.487815 
L 320.836923 68.661863 
L 320.982325 78.191003 
L 321.055026 78.191003 
L 321.200428 68.661863 
L 321.34583 78.191003 
L 321.418531 78.191003 
L 321.563933 58.226174 
L 321.709336 78.191003 
L 322.290944 78.191003 
L 322.327294 68.661863 
L 322.399996 78.191003 
L 322.654449 78.191003 
L 322.6908 60.830997 
L 322.763501 78.191003 
L 323.236058 78.191003 
L 323.345109 68.661863 
L 323.38146 68.762367 
L 323.526862 78.566811 
L 323.563212 68.517045 
L 323.635913 78.566811 
L 323.744965 78.566811 
L 323.781315 68.762367 
L 323.854016 78.566811 
L 324.10847 78.566811 
L 324.144821 64.106043 
L 324.217522 78.566811 
L 324.544676 78.566811 
L 324.581027 68.517045 
L 324.690079 68.762367 
L 324.835481 78.566811 
L 325.017233 78.566811 
L 325.053584 64.106043 
L 325.126285 78.566811 
L 325.562491 78.566811 
L 325.598842 68.517045 
L 325.707893 68.762367 
L 325.853295 78.566811 
L 326.035048 78.566811 
L 326.071398 64.106043 
L 326.1441 78.566811 
L 326.253151 78.566811 
L 326.398553 78.905224 
L 326.471254 78.905224 
L 326.507605 68.650566 
L 326.580306 78.905224 
L 326.689357 78.905224 
L 326.725708 68.754097 
L 326.798409 78.905224 
L 327.052863 78.905224 
L 327.089213 64.065594 
L 327.161914 78.905224 
L 327.489069 78.905224 
L 327.525419 68.650566 
L 327.634471 68.754097 
L 327.743523 68.754097 
L 327.888925 78.905224 
L 327.961626 78.905224 
L 328.107028 64.065594 
L 328.25243 78.905224 
L 328.506884 78.905224 
L 328.543234 68.650566 
L 328.652286 68.754097 
L 328.797688 78.905224 
L 328.97944 78.905224 
L 329.015791 64.065594 
L 329.088492 78.905224 
L 329.161193 78.905224 
L 329.306595 79.205193 
L 329.415647 79.205193 
L 329.561049 68.712564 
L 329.706451 79.205193 
L 329.997255 79.205193 
L 330.033606 64.086719 
L 330.106307 79.205193 
L 330.433461 79.205193 
L 330.469812 68.712564 
L 330.542513 79.205193 
L 330.651565 79.205193 
L 330.687915 68.928532 
L 330.760616 79.205193 
L 331.01507 79.205193 
L 331.05142 60.712875 
L 331.124121 79.205193 
L 331.596678 79.205193 
L 331.74208 68.928532 
L 331.887482 79.205193 
L 331.923833 68.712564 
L 331.996534 79.205193 
L 332.105586 79.205193 
L 332.141936 68.928532 
L 332.214637 79.205193 
L 332.43274 79.205193 
L 332.469091 79.445959 
L 332.505441 60.627493 
L 332.578142 79.445959 
L 333.050699 79.445959 
L 333.196101 68.769785 
L 333.341503 79.445959 
L 333.377854 68.690724 
L 333.450555 79.445959 
L 333.595957 79.445959 
L 333.632308 68.769785 
L 333.705009 79.445959 
L 333.923112 79.445959 
L 333.959462 63.970227 
L 334.032163 79.445959 
L 334.359318 79.445959 
L 334.395669 68.690724 
L 334.46837 79.445959 
L 334.50472 79.445959 
L 334.650122 68.769785 
L 334.795524 79.445959 
L 334.868225 79.445959 
L 335.013627 56.056655 
L 335.15903 79.445959 
L 335.740638 79.445959 
L 335.776989 68.769785 
L 335.84969 79.445959 
L 335.995092 79.445959 
L 336.104143 79.653351 
L 336.140494 68.925925 
L 336.213195 79.653351 
L 336.467648 79.653351 
L 336.503999 68.925925 
L 336.5767 79.653351 
L 336.685752 79.653351 
L 336.831154 68.925925 
L 336.976556 79.653351 
L 337.012906 68.712848 
L 337.085607 79.653351 
L 337.194659 79.653351 
L 337.231009 68.925925 
L 337.303711 79.653351 
L 337.558164 79.653351 
L 337.594515 60.612622 
L 337.667216 79.653351 
L 338.285175 79.653351 
L 338.321525 57.938463 
L 338.394226 79.653351 
L 339.048536 79.653351 
L 339.084886 68.925925 
L 339.157587 79.653351 
L 339.412041 79.653351 
L 339.448391 63.947517 
L 339.521093 79.653351 
L 339.702845 79.653351 
L 339.848247 79.818034 
L 339.884598 68.718812 
L 339.993649 68.961323 
L 340.102701 68.961323 
L 340.248103 79.818034 
L 340.320804 79.818034 
L 340.466206 64.056972 
L 340.611608 79.818034 
L 340.866062 79.818034 
L 340.902412 68.718812 
L 341.011464 68.961323 
L 341.156866 79.818034 
L 341.338619 79.818034 
L 341.374969 60.487045 
L 341.44767 79.818034 
L 342.029279 79.818034 
L 342.065629 68.961323 
L 342.13833 79.818034 
L 342.320083 79.818034 
L 342.356433 68.718812 
L 342.429134 79.818034 
L 342.465485 79.818034 
L 342.501836 64.056972 
L 342.574537 79.818034 
L 343.047093 79.818034 
L 343.083444 68.961323 
L 343.156145 79.818034 
L 343.228846 79.818034 
L 343.374248 68.718812 
L 343.51965 79.818034 
L 343.810454 79.818034 
L 343.846805 60.487045 
L 343.919506 79.818034 
L 344.028558 79.818034 
L 344.17396 79.95017 
L 344.501114 79.95017 
L 344.537465 68.978193 
L 344.610166 79.95017 
L 344.682867 79.95017 
L 344.828269 68.635615 
L 344.973671 79.95017 
L 345.264475 79.95017 
L 345.300826 60.495047 
L 345.373527 79.95017 
L 345.955135 79.95017 
L 345.991486 63.961501 
L 346.064187 79.95017 
L 346.391342 79.95017 
L 346.427692 68.635615 
L 346.536744 68.978193 
L 346.645795 68.978193 
L 346.791197 79.95017 
L 346.863898 79.95017 
L 347.009301 60.495047 
L 347.154703 79.95017 
L 347.554558 79.95017 
L 347.590909 63.961501 
L 347.66361 79.95017 
L 348.099816 79.95017 
L 348.136167 68.635615 
L 348.245218 68.978193 
L 348.39062 79.95017 
L 348.536023 79.95017 
L 348.572373 68.978193 
L 348.645074 79.95017 
L 348.826827 79.95017 
L 348.863177 68.635615 
L 348.972229 68.978193 
L 349.117631 79.95017 
L 349.299384 79.95017 
L 349.335734 63.961501 
L 349.408435 79.95017 
L 349.73559 79.95017 
L 349.77194 68.635615 
L 349.844641 79.95017 
L 349.953693 79.95017 
L 349.990044 68.978193 
L 350.062745 79.95017 
L 350.317198 79.95017 
L 350.353549 60.495047 
L 350.42625 79.95017 
L 351.007858 79.95017 
L 351.044209 63.961501 
L 351.11691 79.95017 
L 351.444065 79.95017 
L 351.480415 68.635615 
L 351.589467 68.978193 
L 351.734869 79.95017 
L 351.880271 79.95017 
L 351.916621 68.978193 
L 351.989322 79.95017 
L 352.207426 79.95017 
L 352.243776 58.646023 
L 352.316477 79.95017 
L 352.679982 79.95017 
L 352.825384 68.978193 
L 352.970787 79.95017 
L 353.043488 79.95017 
L 353.18889 68.978193 
L 353.334292 79.95017 
L 353.370642 79.95017 
L 353.406993 68.978193 
L 353.479694 79.95017 
L 353.697797 79.95017 
L 353.734148 68.978193 
L 353.806849 79.95017 
L 353.988601 79.95017 
L 354.024952 68.635615 
L 354.134003 68.978193 
L 354.279405 79.95017 
L 354.461158 79.95017 
L 354.497509 63.961501 
L 354.57021 79.95017 
L 355.006416 79.95017 
L 355.042766 68.635615 
L 355.151818 68.978193 
L 355.29722 79.95017 
L 355.442622 79.95017 
L 355.478973 68.978193 
L 355.551674 79.95017 
L 355.769777 79.95017 
L 355.806127 62.456567 
L 355.878829 79.95017 
L 356.096932 79.95017 
L 356.133282 68.978193 
L 356.205983 79.95017 
L 356.315035 79.95017 
L 356.460437 68.978193 
L 356.605839 79.95017 
L 356.67854 79.95017 
L 356.823942 63.961501 
L 356.969344 79.95017 
L 357.260148 79.95017 
L 357.296499 55.883598 
L 357.3692 79.95017 
L 358.023509 79.95017 
L 358.05986 68.978193 
L 358.132561 79.95017 
L 358.387015 79.95017 
L 358.423365 68.978193 
L 358.496066 79.95017 
L 358.714169 79.95017 
L 358.75052 68.978193 
L 358.823221 79.95017 
L 359.077675 79.95017 
L 359.114025 60.495047 
L 359.186726 79.95017 
L 359.768335 79.95017 
L 359.804685 63.961501 
L 359.877386 79.95017 
L 360.204541 79.95017 
L 360.240891 68.635615 
L 360.349943 68.978193 
L 360.458995 68.978193 
L 360.604397 79.95017 
L 360.677098 79.95017 
L 360.8225 60.495047 
L 360.967902 79.95017 
L 361.367758 79.95017 
L 361.404108 63.961501 
L 361.476809 79.95017 
L 361.913016 79.95017 
L 361.949366 68.635615 
L 362.058418 68.978193 
L 362.20382 79.95017 
L 362.385572 79.95017 
L 362.421923 60.495047 
L 362.494624 79.95017 
L 363.076232 79.95017 
L 363.112583 63.961501 
L 363.185284 79.95017 
L 363.512439 79.95017 
L 363.548789 68.635615 
L 363.62149 79.95017 
L 363.730542 79.95017 
L 363.766892 68.978193 
L 363.839593 79.95017 
L 364.094047 79.95017 
L 364.130398 60.075726 
L 364.203099 79.95017 
L 364.821058 79.95017 
L 364.857408 60.075726 
L 364.930109 79.95017 
L 365.548068 79.95017 
L 365.584419 60.075726 
L 365.65712 79.95017 
L 366.275079 79.95017 
L 366.311429 55.578481 
L 366.38413 79.95017 
L 367.07479 79.95017 
L 367.111141 68.148028 
L 367.183842 79.95017 
L 367.438295 79.95017 
L 367.474646 68.148028 
L 367.547347 79.95017 
L 367.838151 79.95017 
L 367.874502 63.399776 
L 367.947203 79.95017 
L 368.45611 79.95017 
L 368.492461 57.510354 
L 368.565162 79.95017 
L 369.255822 79.95017 
L 369.292172 68.148028 
L 369.364873 79.95017 
L 369.619327 79.95017 
L 369.655677 63.399776 
L 369.728378 79.95017 
L 370.055533 79.95017 
L 370.091884 68.635615 
L 370.164585 79.95017 
L 370.309987 79.95017 
L 370.346337 68.148028 
L 370.419038 79.95017 
L 370.673492 79.95017 
L 370.709843 60.075726 
L 370.782544 79.95017 
L 371.400502 79.95017 
L 371.436853 55.578481 
L 371.509554 79.95017 
L 372.200214 79.95017 
L 372.236565 68.148028 
L 372.309266 79.95017 
L 372.60007 79.95017 
L 372.63642 68.148028 
L 372.709121 79.95017 
L 372.963575 79.95017 
L 372.999926 68.148028 
L 373.072627 79.95017 
L 373.32708 79.95017 
L 373.363431 55.578481 
L 373.436132 79.95017 
L 374.126792 79.95017 
L 374.272194 68.148028 
L 374.417596 79.95017 
L 374.490297 79.95017 
L 374.635699 68.148028 
L 374.781101 79.95017 
L 374.999204 79.95017 
L 375.035555 63.399776 
L 375.108256 79.95017 
L 375.508112 79.95017 
L 375.544462 55.578481 
L 375.617163 79.95017 
L 376.307823 79.95017 
L 376.453225 68.148028 
L 376.598627 79.95017 
L 376.671329 79.95017 
L 376.816731 68.148028 
L 376.962133 79.95017 
L 377.180236 79.95017 
L 377.216586 63.399776 
L 377.289287 79.95017 
L 377.689143 79.95017 
L 377.725494 55.578481 
L 377.798195 79.95017 
L 378.488855 79.95017 
L 378.634257 68.148028 
L 378.779659 79.95017 
L 378.85236 79.95017 
L 378.997762 68.148028 
L 379.143164 79.95017 
L 379.215865 79.95017 
L 379.361267 68.148028 
L 379.506669 79.95017 
L 379.724773 79.95017 
L 379.761123 55.578481 
L 379.833824 79.95017 
L 380.488134 79.95017 
L 380.524484 68.148028 
L 380.597185 79.95017 
L 380.887989 79.95017 
L 380.92434 68.148028 
L 380.997041 79.95017 
L 381.251495 79.95017 
L 381.287845 68.148028 
L 381.360546 79.95017 
L 381.615 79.95017 
L 381.65135 60.075726 
L 381.724051 79.95017 
L 382.34201 79.95017 
L 382.378361 55.578481 
L 382.451062 79.95017 
L 383.141722 79.95017 
L 383.178072 68.148028 
L 383.250773 79.95017 
L 383.505227 79.95017 
L 383.541578 68.148028 
L 383.614279 79.95017 
L 383.905083 79.95017 
L 383.941433 63.399776 
L 384.014134 79.95017 
L 384.523042 79.95017 
L 384.559392 60.075726 
L 384.632093 79.95017 
L 385.250052 79.95017 
L 385.286403 55.578481 
L 385.359104 79.95017 
L 386.049764 79.95017 
L 386.086114 68.148028 
L 386.158815 79.95017 
L 386.413269 79.95017 
L 386.44962 68.148028 
L 386.522321 79.95017 
L 386.813125 79.95017 
L 386.849475 63.399776 
L 386.922176 79.95017 
L 387.431084 79.95017 
L 387.467434 57.510354 
L 387.540135 79.95017 
L 388.230795 79.95017 
L 388.267146 68.148028 
L 388.339847 79.95017 
L 388.594301 79.95017 
L 388.630651 63.399776 
L 388.703352 79.95017 
L 389.030507 79.95017 
L 389.175909 68.635615 
L 389.284961 79.95017 
L 389.321311 68.148028 
L 389.394012 79.95017 
L 389.648466 79.95017 
L 389.684816 60.075726 
L 389.757517 79.95017 
L 390.375476 79.95017 
L 390.411827 57.510354 
L 390.484528 79.95017 
L 391.175188 79.95017 
L 391.211538 68.148028 
L 391.284239 79.95017 
L 391.538693 79.95017 
L 391.575044 63.399776 
L 391.647745 79.95017 
L 392.083951 79.95017 
L 392.120301 68.635615 
L 392.193002 79.95017 
L 392.229353 79.95017 
L 392.265704 68.148028 
L 392.338405 79.95017 
L 392.592858 79.95017 
L 392.629209 63.399776 
L 392.70191 79.95017 
L 393.029065 79.95017 
L 393.174467 68.635615 
L 393.283518 79.95017 
L 393.319869 68.148028 
L 393.39257 79.95017 
L 393.647023 79.95017 
L 393.683374 57.510354 
L 393.756075 79.95017 
L 394.446735 79.95017 
L 394.483086 68.148028 
L 394.555787 79.95017 
L 394.81024 79.95017 
L 394.846591 63.399776 
L 394.919292 79.95017 
L 395.355498 79.95017 
L 395.391849 68.635615 
L 395.46455 79.95017 
L 395.5009 79.95017 
L 395.537251 68.148028 
L 395.609952 79.95017 
L 395.864405 79.95017 
L 395.900756 63.399776 
L 395.973457 79.95017 
L 396.300612 79.95017 
L 396.446014 68.635615 
L 396.555065 79.95017 
L 396.591416 68.148028 
L 396.664117 79.95017 
L 396.918571 79.95017 
L 396.954921 60.075726 
L 397.027622 79.95017 
L 397.645581 79.95017 
L 397.681932 55.578481 
L 397.754633 79.95017 
L 398.445293 79.95017 
L 398.481643 68.148028 
L 398.554344 79.95017 
L 398.808798 79.95017 
L 398.845148 68.148028 
L 398.917849 79.95017 
L 399.208654 79.95017 
L 399.354056 63.399776 
L 399.499458 79.95017 
L 399.826613 79.95017 
L 399.862963 57.510354 
L 399.935664 79.95017 
L 400.626324 79.95017 
L 400.662675 68.148028 
L 400.735376 79.95017 
L 400.989829 79.95017 
L 401.02618 63.399776 
L 401.098881 79.95017 
L 401.535087 79.95017 
L 401.571438 68.635615 
L 401.644139 79.95017 
L 401.680489 79.95017 
L 401.71684 68.148028 
L 401.789541 79.95017 
L 402.043995 79.95017 
L 402.080345 60.075726 
L 402.153046 79.95017 
L 402.771005 79.95017 
L 402.807356 55.578481 
L 402.880057 79.95017 
L 403.570717 79.95017 
L 403.716119 68.148028 
L 403.861521 79.95017 
L 403.934222 79.95017 
L 404.079624 68.148028 
L 404.225026 79.95017 
L 404.443129 79.95017 
L 404.47948 63.399776 
L 404.552181 79.95017 
L 404.952037 79.95017 
L 404.988387 60.075726 
L 405.061088 79.95017 
L 405.679047 79.95017 
L 405.715398 55.578481 
L 405.788099 79.95017 
L 406.478759 79.95017 
L 406.624161 68.978193 
L 406.769563 79.95017 
L 406.842264 79.95017 
L 406.987666 68.148028 
L 407.133068 79.95017 
L 407.205769 79.95017 
L 407.24212 68.148028 
L 407.314821 68.978193 
L 407.351171 68.978193 
L 407.496573 79.95017 
L 407.569274 79.95017 
L 407.714676 57.510354 
L 407.860079 79.95017 
L 408.441687 79.95017 
L 408.478037 68.978193 
L 408.550738 79.95017 
L 408.805192 79.95017 
L 408.841543 63.399776 
L 408.914244 79.95017 
L 409.277749 79.95017 
L 409.314099 62.456567 
L 409.386801 79.95017 
L 409.604904 79.95017 
L 409.641254 68.978193 
L 409.713955 79.95017 
L 409.932058 79.95017 
L 409.968409 68.978193 
L 410.04111 79.95017 
L 410.295564 79.95017 
L 410.331914 63.399776 
L 410.404615 79.95017 
L 410.804471 79.95017 
L 410.840822 55.578481 
L 410.913523 79.95017 
L 411.713234 79.95017 
L 411.749585 68.978193 
L 411.822286 79.95017 
L 411.931337 79.95017 
L 412.076739 68.978193 
L 412.222141 79.95017 
L 412.294842 79.95017 
L 412.440245 68.978193 
L 412.585647 79.95017 
L 412.658348 79.95017 
L 412.80375 57.510354 
L 412.949152 79.95017 
L 413.53076 79.95017 
L 413.567111 68.978193 
L 413.639812 79.95017 
L 413.894266 79.95017 
L 413.930616 60.075726 
L 414.003317 79.95017 
L 414.621276 79.95017 
L 414.657627 60.075726 
L 414.730328 79.95017 
L 415.348287 79.95017 
L 415.384637 60.075726 
L 415.457338 79.95017 
L 416.075297 79.95017 
L 416.111648 60.075726 
L 416.184349 79.95017 
L 416.802308 79.95017 
L 416.838658 55.578481 
L 416.911359 79.95017 
L 417.602019 79.95017 
L 417.63837 68.978193 
L 417.711071 79.95017 
L 417.965524 79.95017 
L 418.001875 68.978193 
L 418.074576 79.95017 
L 418.292679 79.95017 
L 418.32903 68.978193 
L 418.401731 79.95017 
L 418.656184 79.95017 
L 418.692535 60.075726 
L 418.765236 79.95017 
L 419.383195 79.95017 
L 419.419545 57.510354 
L 419.492246 79.95017 
L 420.146556 79.95017 
L 420.182906 68.978193 
L 420.255607 79.95017 
L 420.510061 79.95017 
L 420.546412 63.399776 
L 420.619113 79.95017 
L 420.982618 79.95017 
L 421.018968 68.635615 
L 421.091669 79.95017 
L 421.200721 79.95017 
L 421.237072 68.978193 
L 421.309773 79.95017 
L 421.527876 79.95017 
L 421.564226 63.399776 
L 421.636927 79.95017 
L 422.000433 79.95017 
L 422.036783 68.635615 
L 422.145835 68.978193 
L 422.254886 68.978193 
L 422.400288 79.95017 
L 422.436639 79.95017 
L 422.472989 68.978193 
L 422.54569 79.95017 
L 422.727443 79.95017 
L 422.763794 68.635615 
L 422.872845 68.978193 
L 422.981897 68.978193 
L 423.127299 79.95017 
L 423.2 79.95017 
L 423.345402 63.399776 
L 423.490804 79.95017 
L 423.781608 79.95017 
L 423.817959 62.456567 
L 423.89066 79.95017 
L 424.108763 79.95017 
L 424.145113 68.978193 
L 424.217815 79.95017 
L 424.435918 79.95017 
L 424.472268 68.978193 
L 424.544969 79.95017 
L 424.799423 79.95017 
L 424.835773 63.399776 
L 424.908474 79.95017 
L 425.30833 79.95017 
L 425.344681 55.578481 
L 425.417382 79.95017 
L 426.108042 79.95017 
L 426.253444 68.978193 
L 426.398846 79.95017 
L 426.435197 79.95017 
L 426.471547 68.978193 
L 426.544248 79.95017 
L 426.798702 79.95017 
L 426.835052 68.978193 
L 426.907753 79.95017 
L 427.125856 79.95017 
L 427.162207 68.978193 
L 427.234908 79.95017 
L 427.416661 79.95017 
L 427.453011 68.635615 
L 427.562063 68.978193 
L 427.707465 79.95017 
L 427.889217 79.95017 
L 427.925568 57.510354 
L 427.998269 79.95017 
L 428.652578 79.95017 
L 428.797981 68.978193 
L 428.943383 79.95017 
L 429.016084 79.95017 
L 429.161486 63.399776 
L 429.306888 79.95017 
L 429.597692 79.95017 
L 429.634043 68.635615 
L 429.743094 68.978193 
L 429.888496 79.95017 
L 430.033898 79.95017 
L 430.070249 63.399776 
L 430.14295 79.95017 
L 430.615507 79.95017 
L 430.651857 68.635615 
L 430.760909 68.978193 
L 430.906311 79.95017 
L 431.051713 79.95017 
L 431.088064 68.978193 
L 431.160765 79.95017 
L 431.342517 79.95017 
L 431.378868 68.635615 
L 431.487919 68.978193 
L 431.633321 79.95017 
L 431.815074 79.95017 
L 431.851425 63.399776 
L 431.924126 79.95017 
L 432.287631 79.95017 
L 432.433033 62.456567 
L 432.578435 79.95017 
L 432.614786 79.95017 
L 432.651136 68.978193 
L 432.723837 79.95017 
L 432.94194 79.95017 
L 432.978291 68.978193 
L 433.050992 79.95017 
L 433.305446 79.95017 
L 433.341796 63.399776 
L 433.414497 79.95017 
L 433.923405 79.95017 
L 433.959755 55.578481 
L 434.032456 79.95017 
L 434.723116 79.95017 
L 434.759467 68.978193 
L 434.832168 79.95017 
L 435.050271 79.95017 
L 435.086621 68.978193 
L 435.159322 79.95017 
L 435.413776 79.95017 
L 435.450127 68.978193 
L 435.522828 79.95017 
L 435.740931 79.95017 
L 435.777281 68.978193 
L 435.849982 79.95017 
L 435.922683 79.95017 
L 436.068085 68.635615 
L 436.213488 79.95017 
L 436.504292 79.95017 
L 436.540642 57.510354 
L 436.613343 79.95017 
L 437.267653 79.95017 
L 437.304003 68.978193 
L 437.376704 79.95017 
L 437.631158 79.95017 
L 437.667509 63.399776 
L 437.74021 79.95017 
L 438.103715 79.95017 
L 438.249117 68.635615 
L 438.394519 79.95017 
L 438.648973 79.95017 
L 438.685323 63.399776 
L 438.758024 79.95017 
L 439.12153 79.95017 
L 439.15788 68.635615 
L 439.230581 79.95017 
L 439.339633 79.95017 
L 439.375983 68.978193 
L 439.448684 79.95017 
L 439.557736 79.95017 
L 439.703138 68.978193 
L 439.84854 79.95017 
L 439.884891 68.635615 
L 439.957592 79.95017 
L 440.066643 79.95017 
L 440.102994 68.978193 
L 440.175695 79.95017 
L 440.430148 79.95017 
L 440.466499 63.399776 
L 440.466499 63.399776 
" style="fill:none;stroke:#1f77b4;stroke-linecap:round;stroke-opacity:0.6;stroke-width:1.5;"/>
   </g>
   <g id="line2d_23">
    <path clip-path="url(#p0282f375e3)" d="M 258.677526 -0.627578 
L 258.93198 -0.627578 
L 259.113732 -0.142901 
L 259.331836 -0.142901 
L 259.477238 0.103112 
L 259.65899 0.103112 
L 259.804392 0.351845 
L 260.022496 0.351845 
L 260.167898 0.603354 
L 260.422351 0.603354 
L 260.567753 0.856632 
L 260.822207 0.856632 
L 260.967609 1.112752 
L 261.476517 1.112752 
L 261.621919 1.371928 
L 261.912723 1.371928 
L 262.058125 1.633448 
L 262.639733 1.633448 
L 262.785135 1.89797 
L 263.330393 1.89797 
L 263.475795 2.165612 
L 264.093754 2.165612 
L 264.239156 2.436386 
L 264.820765 2.436386 
L 264.966167 2.710127 
L 265.838579 2.710127 
L 265.983982 2.98736 
L 266.60194 2.98736 
L 266.747343 3.268475 
L 267.656106 3.268475 
L 267.801508 3.553529 
L 268.455817 3.553529 
L 268.601219 3.841994 
L 269.509982 3.841994 
L 269.655385 4.134532 
L 270.564148 4.134532 
L 270.70955 4.430587 
L 271.654663 4.430587 
L 271.800065 4.729247 
L 272.745179 4.729247 
L 272.890581 5.032145 
L 273.835695 5.032145 
L 273.981097 5.338965 
L 274.962561 5.338965 
L 275.107963 5.650551 
L 276.053077 5.650551 
L 276.198479 5.966829 
L 277.179943 5.966829 
L 277.325345 6.28778 
L 278.561263 6.28778 
L 278.706665 6.613295 
L 279.688129 6.613295 
L 279.833531 6.942546 
L 280.814996 6.942546 
L 280.960398 7.277607 
L 282.232666 7.277607 
L 282.378068 7.617878 
L 283.359532 7.617878 
L 283.504934 7.962294 
L 284.777203 7.962294 
L 284.922605 8.312166 
L 286.194873 8.312166 
L 286.340275 8.66817 
L 287.35809 8.66817 
L 287.503492 9.029486 
L 288.77576 9.029486 
L 288.921162 9.397437 
L 290.193431 9.397437 
L 290.338833 9.77094 
L 291.356648 9.77094 
L 291.50205 10.152216 
L 292.774318 10.152216 
L 292.91972 10.540064 
L 294.191989 10.540064 
L 294.337391 10.93308 
L 295.64601 10.93308 
L 295.791412 11.332334 
L 296.809226 11.332334 
L 296.954628 11.738654 
L 298.263247 11.738654 
L 298.408649 12.151566 
L 299.680918 12.151566 
L 299.82632 12.572102 
L 301.134939 12.572102 
L 301.280341 13.000676 
L 302.58896 13.000676 
L 302.734362 13.436946 
L 304.042981 13.436946 
L 304.188383 13.883943 
L 305.497002 13.883943 
L 305.642404 14.335905 
L 306.951023 14.335905 
L 307.096425 14.796227 
L 308.405044 14.796227 
L 308.550446 15.266461 
L 309.859065 15.266461 
L 310.004467 15.745462 
L 311.313086 15.745462 
L 311.458488 16.233664 
L 312.767107 16.233664 
L 312.912509 16.730031 
L 314.257478 16.730031 
L 314.40288 17.239149 
L 315.711499 17.239149 
L 315.856901 17.758174 
L 317.456324 17.758174 
L 317.601726 18.285097 
L 318.910345 18.285097 
L 319.055747 18.825031 
L 320.400717 18.825031 
L 320.546119 19.375304 
L 321.891088 19.375304 
L 322.03649 19.938677 
L 323.635913 19.938677 
L 323.781315 20.51109 
L 325.126285 20.51109 
L 325.271687 21.097197 
L 326.616656 21.097197 
L 326.762058 21.695806 
L 328.361482 21.695806 
L 328.506884 22.30752 
L 329.851853 22.30752 
L 329.997255 22.932987 
L 331.342225 22.932987 
L 331.487627 23.576181 
L 333.1234 23.576181 
L 333.268802 24.228471 
L 334.904576 24.228471 
L 335.049978 24.890395 
L 336.431298 24.890395 
L 336.5767 25.564079 
L 338.212474 25.564079 
L 338.357876 26.253224 
L 339.993649 26.253224 
L 340.139051 26.946712 
L 341.520371 26.946712 
L 341.665773 27.652439 
L 343.337898 27.652439 
L 343.4833 28.377378 
L 345.119073 28.377378 
L 345.264475 29.116645 
L 346.9366 29.116645 
L 347.082002 29.860726 
L 348.790476 29.860726 
L 348.935878 30.619393 
L 350.608002 30.619393 
L 350.753405 31.386712 
L 352.716333 31.386712 
L 352.861735 32.163079 
L 354.57021 32.163079 
L 354.715612 32.934255 
L 356.424086 32.934255 
L 356.569488 33.700829 
L 358.568767 33.700829 
L 358.714169 34.470929 
L 360.713448 34.470929 
L 360.85885 35.22134 
L 362.89448 35.22134 
L 363.039882 35.961625 
L 365.111862 35.961625 
L 365.257264 36.678461 
L 367.329244 36.678461 
L 367.474646 37.36302 
L 369.83743 37.36302 
L 369.982832 38.024413 
L 372.345616 38.024413 
L 372.491018 38.670307 
L 374.599349 38.670307 
L 374.744751 39.303977 
L 377.143885 39.303977 
L 377.289287 39.894007 
L 380.015577 39.894007 
L 380.160979 40.420602 
L 382.887268 40.420602 
L 383.03267 40.909748 
L 385.831661 40.909748 
L 385.977063 41.359171 
L 388.776053 41.359171 
L 388.921455 41.762672 
L 392.0476 41.762672 
L 392.193002 42.114124 
L 395.609952 42.114124 
L 395.755354 42.417332 
L 399.281355 42.417332 
L 399.426757 42.667748 
L 403.279912 42.667748 
L 403.425315 42.876423 
L 407.96913 42.876423 
L 408.114532 43.030565 
L 421.055319 43.140579 
L 421.200721 43.199894 
L 440.393798 43.233567 
L 440.393798 43.233567 
" style="fill:none;stroke:#d62728;stroke-linecap:round;stroke-opacity:0.6;stroke-width:1.5;"/>
   </g>
   <g id="line2d_24">
    <path clip-path="url(#p0282f375e3)" style="fill:none;stroke:#000000;stroke-dasharray:3.7,1.6;stroke-dashoffset:0;"/>
   </g>
   <g id="patch_8">
    <path d="M 258.677526 104.677781 
L 258.677526 6.604263 
" style="fill:none;stroke:#cccccc;stroke-linecap:square;stroke-linejoin:miter;stroke-width:0.8;"/>
   </g>
   <g id="patch_9">
    <path d="M 440.430148 104.677781 
L 440.430148 6.604263 
" style="fill:none;stroke:#cccccc;stroke-linecap:square;stroke-linejoin:miter;stroke-width:0.8;"/>
   </g>
   <g id="patch_10">
    <path d="M 258.677526 104.677781 
L 440.430148 104.677781 
" style="fill:none;stroke:#cccccc;stroke-linecap:square;stroke-linejoin:miter;stroke-width:0.8;"/>
   </g>
   <g id="patch_11">
    <path d="M 258.677526 6.604263 
L 440.430148 6.604263 
" style="fill:none;stroke:#cccccc;stroke-linecap:square;stroke-linejoin:miter;stroke-width:0.8;"/>
   </g>
   <g id="text_24">
    <!-- (b) -->
    <g style="fill:#262626;" transform="translate(262.312579 17.782975)scale(0.1 -0.1)">
     <defs>
      <path d="M 25.203125 75 
C 19.796875 69.484375 7.40625 56.671875 7.40625 25.046875 
C 7.40625 -6.6875 19.796875 -19.40625 25.203125 -25 
L 31.296875 -25 
C 19 -12.203125 15 5.71875 15 24.9375 
C 15 44.0625 18.796875 62.078125 31.296875 75 
z
" id="CMSS17-40"/>
      <path d="M 14.90625 69 
L 7.5 69 
L 7.5 -0.203125 
L 15.09375 -0.203125 
L 15.09375 4.296875 
C 18.90625 0.59375 23.5 -1 27.59375 -1 
C 37.203125 -1 45 8.734375 45 21.59375 
C 45 33.328125 39 44 30.09375 44 
C 23.796875 44 18.203125 41.390625 14.90625 38.6875 
z
M 15.09375 32.734375 
C 17.296875 35.5625 20.40625 37.890625 24.796875 37.890625 
C 30.703125 37.890625 37.40625 33.53125 37.40625 21.59375 
C 37.40625 8.84375 29.40625 5.09375 23.90625 5.09375 
C 21.90625 5.09375 19.796875 5.59375 17.796875 7.3125 
C 15.09375 9.75 15.09375 11.265625 15.09375 12.6875 
z
" id="CMSS17-98"/>
      <path d="M 11.296875 -25 
C 16.703125 -19.5 29.09375 -6.6875 29.09375 24.9375 
C 29.09375 56.671875 16.703125 69.375 11.296875 75 
L 5.203125 75 
C 17.5 62.171875 21.5 44.265625 21.5 25.046875 
C 21.5 5.921875 17.703125 -12.09375 5.203125 -25 
z
" id="CMSS17-41"/>
     </defs>
     <use transform="scale(0.996264)" xlink:href="#CMSS17-40"/>
     <use transform="translate(36.433914 0)scale(0.996264)" xlink:href="#CMSS17-98"/>
     <use transform="translate(84.638857 0)scale(0.996264)" xlink:href="#CMSS17-41"/>
    </g>
   </g>
   <g id="legend_1">
    <g id="line2d_25">
     <path d="M 265.877526 92.685253 
L 281.877526 92.685253 
" style="fill:none;stroke:#000000;stroke-dasharray:3.7,1.6;stroke-dashoffset:0;"/>
    </g>
    <g id="line2d_26"/>
    <g id="text_25">
     <!-- base stock (optimal solution) -->
     <g style="fill:#262626;" transform="translate(288.277526 95.485253)scale(0.08 -0.08)">
      <defs>
       <path d="M 26.5 26.34375 
L 42 42.734375 
L 32.40625 42.734375 
L 14.90625 24.25 
L 14.90625 69 
L 7.5 69 
L 7.5 0 
L 14.796875 0 
L 14.796875 13.921875 
L 21.5 20.96875 
L 35.59375 0 
L 44.09375 0 
z
" id="CMSS17-107"/>
       <path d="M 67 29.34375 
C 67 36.078125 65.296875 44 54.09375 44 
C 46.59375 44 42.09375 39.296875 40.09375 36.375 
C 38.296875 41.6875 34.09375 44 28.09375 44 
C 21.296875 44 17 40.09375 14.703125 37.28125 
L 14.703125 43.484375 
L 7.40625 43.484375 
L 7.40625 0 
L 15 0 
L 15 24.3125 
C 15 30.25 17.203125 37.890625 24.296875 37.890625 
C 33.40625 37.890625 33.40625 31.453125 33.40625 28.53125 
L 33.40625 0 
L 41 0 
L 41 24.3125 
C 41 30.25 43.203125 37.890625 50.296875 37.890625 
C 59.40625 37.890625 59.40625 31.453125 59.40625 28.53125 
L 59.40625 0 
L 67 0 
z
" id="CMSS17-109"/>
       <path d="M 14.796875 69 
L 7.40625 69 
L 7.40625 0 
L 14.796875 0 
z
" id="CMSS17-108"/>
       <path d="M 40.90625 43 
L 33.296875 43 
L 33.296875 15.25 
C 33.296875 7.8125 27.90625 4.796875 22.203125 4.796875 
C 15.59375 4.796875 15 7 15 11.125 
L 15 43 
L 7.40625 43 
L 7.40625 10.625 
C 7.40625 2.796875 10.09375 -1 17 -1 
C 20.40625 -1 28.09375 -0.203125 33.5 4.796875 
L 33.5 -0.203125 
L 40.90625 -0.203125 
z
" id="CMSS17-117"/>
      </defs>
      <use transform="scale(0.996264)" xlink:href="#CMSS17-98"/>
      <use transform="translate(48.204943 0)scale(0.996264)" xlink:href="#CMSS17-97"/>
      <use transform="translate(93.126864 0)scale(0.996264)" xlink:href="#CMSS17-115"/>
      <use transform="translate(129.040406 0)scale(0.996264)" xlink:href="#CMSS17-101"/>
      <use transform="translate(201.908341 0)scale(0.996264)" xlink:href="#CMSS17-115"/>
      <use transform="translate(237.821883 0)scale(0.996264)" xlink:href="#CMSS17-116"/>
      <use transform="translate(271.653449 0)scale(0.996264)" xlink:href="#CMSS17-111"/>
      <use transform="translate(321.099511 0)scale(0.996264)" xlink:href="#CMSS17-99"/>
      <use transform="translate(362.738334 0)scale(0.996264)" xlink:href="#CMSS17-107"/>
      <use transform="translate(439.569935 0)scale(0.996264)" xlink:href="#CMSS17-40"/>
      <use transform="translate(476.00385 0)scale(0.996264)" xlink:href="#CMSS17-111"/>
      <use transform="translate(522.847473 0)scale(0.996264)" xlink:href="#CMSS17-112"/>
      <use transform="translate(571.052416 0)scale(0.996264)" xlink:href="#CMSS17-116"/>
      <use transform="translate(604.883983 0)scale(0.996264)" xlink:href="#CMSS17-105"/>
      <use transform="translate(627.064706 0)scale(0.996264)" xlink:href="#CMSS17-109"/>
      <use transform="translate(701.293961 0)scale(0.996264)" xlink:href="#CMSS17-97"/>
      <use transform="translate(746.215881 0)scale(0.996264)" xlink:href="#CMSS17-108"/>
      <use transform="translate(799.625717 0)scale(0.996264)" xlink:href="#CMSS17-115"/>
      <use transform="translate(835.539259 0)scale(0.996264)" xlink:href="#CMSS17-111"/>
      <use transform="translate(882.382882 0)scale(0.996264)" xlink:href="#CMSS17-108"/>
      <use transform="translate(904.563605 0)scale(0.996264)" xlink:href="#CMSS17-117"/>
      <use transform="translate(952.768549 0)scale(0.996264)" xlink:href="#CMSS17-116"/>
      <use transform="translate(986.600115 0)scale(0.996264)" xlink:href="#CMSS17-105"/>
      <use transform="translate(1008.780838 0)scale(0.996264)" xlink:href="#CMSS17-111"/>
      <use transform="translate(1055.624462 0)scale(0.996264)" xlink:href="#CMSS17-110"/>
      <use transform="translate(1103.829405 0)scale(0.996264)" xlink:href="#CMSS17-41"/>
     </g>
    </g>
   </g>
  </g>
  <g id="axes_3">
   <g id="patch_12">
    <path d="M 27.864513 243.665298 
L 209.617135 243.665298 
L 209.617135 145.59178 
L 27.864513 145.59178 
z
" style="fill:#ffffff;"/>
   </g>
   <g id="matplotlib.axis_5">
    <g id="xtick_13">
     <g id="line2d_27">
      <path clip-path="url(#p443fb71c7e)" d="M 27.864513 243.665298 
L 27.864513 145.59178 
" style="fill:none;stroke:#cccccc;stroke-linecap:round;stroke-width:0.8;"/>
     </g>
     <g id="text_26">
      <!-- $\mathdefault{0}$ -->
      <g style="fill:#262626;" transform="translate(25.660095 256.4284)scale(0.0833 -0.0833)">
       <use transform="scale(0.996264)" xlink:href="#CMR17-48"/>
      </g>
     </g>
    </g>
    <g id="xtick_14">
     <g id="line2d_28">
      <path clip-path="url(#p443fb71c7e)" d="M 73.302668 243.665298 
L 73.302668 145.59178 
" style="fill:none;stroke:#cccccc;stroke-linecap:round;stroke-width:0.8;"/>
     </g>
     <g id="text_27">
      <!-- $\mathdefault{10}$ -->
      <g style="fill:#262626;" transform="translate(68.893832 256.4284)scale(0.0833 -0.0833)">
       <use transform="scale(0.996264)" xlink:href="#CMR17-49"/>
       <use transform="translate(45.690477 0)scale(0.996264)" xlink:href="#CMR17-48"/>
      </g>
     </g>
    </g>
    <g id="xtick_15">
     <g id="line2d_29">
      <path clip-path="url(#p443fb71c7e)" d="M 118.740824 243.665298 
L 118.740824 145.59178 
" style="fill:none;stroke:#cccccc;stroke-linecap:round;stroke-width:0.8;"/>
     </g>
     <g id="text_28">
      <!-- $\mathdefault{20}$ -->
      <g style="fill:#262626;" transform="translate(114.331988 256.4284)scale(0.0833 -0.0833)">
       <use transform="scale(0.996264)" xlink:href="#CMR17-50"/>
       <use transform="translate(45.690477 0)scale(0.996264)" xlink:href="#CMR17-48"/>
      </g>
     </g>
    </g>
    <g id="xtick_16">
     <g id="line2d_30">
      <path clip-path="url(#p443fb71c7e)" d="M 164.17898 243.665298 
L 164.17898 145.59178 
" style="fill:none;stroke:#cccccc;stroke-linecap:round;stroke-width:0.8;"/>
     </g>
     <g id="text_29">
      <!-- $\mathdefault{30}$ -->
      <g style="fill:#262626;" transform="translate(159.770143 256.4284)scale(0.0833 -0.0833)">
       <use transform="scale(0.996264)" xlink:href="#CMR17-51"/>
       <use transform="translate(45.690477 0)scale(0.996264)" xlink:href="#CMR17-48"/>
      </g>
     </g>
    </g>
    <g id="xtick_17">
     <g id="line2d_31">
      <path clip-path="url(#p443fb71c7e)" d="M 209.617135 243.665298 
L 209.617135 145.59178 
" style="fill:none;stroke:#cccccc;stroke-linecap:round;stroke-width:0.8;"/>
     </g>
     <g id="text_30">
      <!-- $\mathdefault{40}$ -->
      <g style="fill:#262626;" transform="translate(205.208299 256.4284)scale(0.0833 -0.0833)">
       <use transform="scale(0.996264)" xlink:href="#CMR17-52"/>
       <use transform="translate(45.690477 0)scale(0.996264)" xlink:href="#CMR17-48"/>
      </g>
     </g>
    </g>
    <g id="text_31">
     <!-- Period -->
     <g style="fill:#262626;" transform="translate(105.388095 268.960568)scale(0.1 -0.1)">
      <defs>
       <path d="M 32.90625 29 
C 44.90625 29 54.703125 38.234375 54.703125 49.046875 
C 54.703125 59.65625 45.296875 69 32.296875 69 
L 8.90625 69 
L 8.90625 0 
L 17.296875 0 
L 17.296875 29 
z
M 30.09375 63.390625 
C 41.703125 63.390625 46.796875 56.21875 46.796875 49.046875 
C 46.796875 42.359375 42.09375 34.796875 30.09375 34.796875 
L 17.09375 34.796875 
L 17.09375 63.390625 
z
" id="CMSS17-80"/>
      </defs>
      <use transform="scale(0.996264)" xlink:href="#CMSS17-80"/>
      <use transform="translate(57.133132 0)scale(0.996264)" xlink:href="#CMSS17-101"/>
      <use transform="translate(98.771954 0)scale(0.996264)" xlink:href="#CMSS17-114"/>
      <use transform="translate(130.681727 0)scale(0.996264)" xlink:href="#CMSS17-105"/>
      <use transform="translate(152.86245 0)scale(0.996264)" xlink:href="#CMSS17-111"/>
      <use transform="translate(202.308512 0)scale(0.996264)" xlink:href="#CMSS17-100"/>
     </g>
    </g>
   </g>
   <g id="matplotlib.axis_6">
    <g id="ytick_10">
     <g id="line2d_32">
      <path clip-path="url(#p443fb71c7e)" d="M 27.864513 243.665298 
L 209.617135 243.665298 
" style="fill:none;stroke:#cccccc;stroke-linecap:round;stroke-width:0.8;"/>
     </g>
     <g id="text_32">
      <!-- $\mathdefault{0}$ -->
      <g style="fill:#262626;" transform="translate(16.455677 246.546849)scale(0.0833 -0.0833)">
       <use transform="scale(0.996264)" xlink:href="#CMR17-48"/>
      </g>
     </g>
    </g>
    <g id="ytick_11">
     <g id="line2d_33">
      <path clip-path="url(#p443fb71c7e)" d="M 27.864513 224.050594 
L 209.617135 224.050594 
" style="fill:none;stroke:#cccccc;stroke-linecap:round;stroke-width:0.8;"/>
     </g>
     <g id="text_33">
      <!-- $\mathdefault{1}$ -->
      <g style="fill:#262626;" transform="translate(16.455677 226.932145)scale(0.0833 -0.0833)">
       <use transform="scale(0.996264)" xlink:href="#CMR17-49"/>
      </g>
     </g>
    </g>
    <g id="ytick_12">
     <g id="line2d_34">
      <path clip-path="url(#p443fb71c7e)" d="M 27.864513 204.435891 
L 209.617135 204.435891 
" style="fill:none;stroke:#cccccc;stroke-linecap:round;stroke-width:0.8;"/>
     </g>
     <g id="text_34">
      <!-- $\mathdefault{2}$ -->
      <g style="fill:#262626;" transform="translate(16.455677 207.317442)scale(0.0833 -0.0833)">
       <use transform="scale(0.996264)" xlink:href="#CMR17-50"/>
      </g>
     </g>
    </g>
    <g id="ytick_13">
     <g id="line2d_35">
      <path clip-path="url(#p443fb71c7e)" d="M 27.864513 184.821187 
L 209.617135 184.821187 
" style="fill:none;stroke:#cccccc;stroke-linecap:round;stroke-width:0.8;"/>
     </g>
     <g id="text_35">
      <!-- $\mathdefault{3}$ -->
      <g style="fill:#262626;" transform="translate(16.455677 187.702738)scale(0.0833 -0.0833)">
       <use transform="scale(0.996264)" xlink:href="#CMR17-51"/>
      </g>
     </g>
    </g>
    <g id="ytick_14">
     <g id="line2d_36">
      <path clip-path="url(#p443fb71c7e)" d="M 27.864513 165.206483 
L 209.617135 165.206483 
" style="fill:none;stroke:#cccccc;stroke-linecap:round;stroke-width:0.8;"/>
     </g>
     <g id="text_36">
      <!-- $\mathdefault{4}$ -->
      <g style="fill:#262626;" transform="translate(16.455677 168.088035)scale(0.0833 -0.0833)">
       <use transform="scale(0.996264)" xlink:href="#CMR17-52"/>
      </g>
     </g>
    </g>
    <g id="ytick_15">
     <g id="line2d_37">
      <path clip-path="url(#p443fb71c7e)" d="M 27.864513 145.59178 
L 209.617135 145.59178 
" style="fill:none;stroke:#cccccc;stroke-linecap:round;stroke-width:0.8;"/>
     </g>
     <g id="text_37">
      <!-- $\mathdefault{5}$ -->
      <g style="fill:#262626;" transform="translate(16.455677 148.473331)scale(0.0833 -0.0833)">
       <use transform="scale(0.996264)" xlink:href="#CMR17-53"/>
      </g>
     </g>
    </g>
    <g id="text_38">
     <!-- Quantity -->
     <g style="fill:#262626;" transform="translate(10.518498 212.782705)rotate(-90)scale(0.1 -0.1)">
      <defs>
       <path d="M 50 3.296875 
C 62.203125 13.25 64 26.734375 64 34.390625 
C 64 55.328125 50.296875 71 34.59375 71 
C 18.90625 71 5.203125 55.234375 5.203125 34.390625 
C 5.203125 13.359375 19.09375 -2 34.59375 -2 
C 38.09375 -2 41.09375 -1.203125 43.203125 -0.40625 
L 51.59375 -13 
L 61.40625 -13 
z
M 39.5 5.09375 
C 38.09375 4.59375 36.40625 4.296875 34.59375 4.296875 
C 23.796875 4.296875 13.40625 15.671875 13.40625 34.390625 
C 13.40625 53.015625 23.703125 64.6875 34.59375 64.6875 
C 45.59375 64.6875 55.796875 52.90625 55.796875 34.390625 
C 55.796875 27.953125 54.796875 17.171875 46.09375 8.921875 
L 38.90625 19.09375 
L 30.296875 19.09375 
z
" id="CMSS17-81"/>
       <path d="M 41.796875 43 
L 34 43 
C 25.5 20.203125 22.59375 10.953125 22.40625 5.984375 
L 22.296875 5.984375 
C 22 10.859375 17.59375 22.796875 14.09375 31.34375 
L 9.40625 43 
L 1.296875 43 
L 19 0.21875 
C 17.90625 -2.765625 16.296875 -7.25 15.796875 -8.234375 
C 13.59375 -13.8125 12.09375 -13.8125 10.5 -13.8125 
C 10.09375 -13.8125 6.90625 -13.703125 3.296875 -12.609375 
L 3.90625 -19.203125 
C 6.40625 -19.703125 8.90625 -20 10.703125 -20 
C 13.203125 -20 18.203125 -20 22.796875 -7.734375 
z
" id="CMSS17-121"/>
      </defs>
      <use transform="scale(0.996264)" xlink:href="#CMSS17-81"/>
      <use transform="translate(69.024255 0)scale(0.996264)" xlink:href="#CMSS17-117"/>
      <use transform="translate(117.229198 0)scale(0.996264)" xlink:href="#CMSS17-97"/>
      <use transform="translate(162.151119 0)scale(0.996264)" xlink:href="#CMSS17-110"/>
      <use transform="translate(210.356062 0)scale(0.996264)" xlink:href="#CMSS17-116"/>
      <use transform="translate(244.187629 0)scale(0.996264)" xlink:href="#CMSS17-105"/>
      <use transform="translate(266.368352 0)scale(0.996264)" xlink:href="#CMSS17-116"/>
      <use transform="translate(297.597465 0)scale(0.996264)" xlink:href="#CMSS17-121"/>
     </g>
    </g>
   </g>
   <g id="line2d_38">
    <path clip-path="url(#p443fb71c7e)" d="M 27.864513 165.206483 
L 32.408328 165.206483 
L 36.952144 224.050594 
L 41.49596 165.206483 
L 46.039775 165.206483 
L 50.583591 224.050594 
L 55.127406 224.050594 
L 59.671222 224.050594 
L 64.215037 184.821187 
L 68.758853 165.206483 
L 73.302668 224.050594 
L 77.846484 165.206483 
L 82.3903 243.665298 
L 86.934115 224.050594 
L 91.477931 243.665298 
L 96.021746 165.206483 
L 100.565562 224.050594 
L 105.109377 184.821187 
L 109.653193 243.665298 
L 114.197008 184.821187 
L 118.740824 243.665298 
L 123.28464 224.050594 
L 127.828455 224.050594 
L 132.372271 243.665298 
L 136.916086 224.050594 
L 141.459902 224.050594 
L 146.003717 165.206483 
L 150.547533 243.665298 
L 155.091348 165.206483 
L 159.635164 224.050594 
L 164.17898 165.206483 
L 168.722795 204.435891 
L 173.266611 165.206483 
L 177.810426 204.435891 
L 182.354242 224.050594 
L 186.898057 204.435891 
L 191.441873 243.665298 
L 195.985688 243.665298 
L 200.529504 224.050594 
L 205.07332 184.821187 
L 209.617135 204.435891 
L 214.160951 184.821187 
" style="fill:none;stroke:#1f77b4;stroke-linecap:round;stroke-opacity:0.8;"/>
   </g>
   <g id="line2d_39">
    <path clip-path="url(#p443fb71c7e)" d="M 27.864513 243.665298 
L 32.408328 243.665298 
L 36.952144 184.821187 
L 41.49596 243.665298 
L 46.039775 243.665298 
L 50.583591 184.821187 
L 59.671222 184.821187 
L 64.215037 224.050594 
L 68.758853 243.665298 
L 73.302668 184.821187 
L 77.846484 243.665298 
L 82.3903 165.206483 
L 86.934115 184.821187 
L 91.477931 165.206483 
L 96.021746 243.665298 
L 100.565562 184.821187 
L 105.109377 224.050594 
L 109.653193 165.206483 
L 114.197008 224.050594 
L 118.740824 165.206483 
L 123.28464 184.821187 
L 127.828455 184.821187 
L 132.372271 165.206483 
L 136.916086 184.821187 
L 141.459902 184.821187 
L 146.003717 243.665298 
L 150.547533 165.206483 
L 155.091348 243.665298 
L 159.635164 184.821187 
L 164.17898 243.665298 
L 168.722795 204.435891 
L 173.266611 243.665298 
L 177.810426 204.435891 
L 182.354242 184.821187 
L 186.898057 204.435891 
L 191.441873 165.206483 
L 195.985688 165.206483 
L 200.529504 184.821187 
L 205.07332 224.050594 
L 209.617135 204.435891 
L 214.160951 224.050594 
L 218.704766 184.821187 
L 223.248582 224.050594 
L 227.792397 165.206483 
L 232.336213 243.665298 
L 236.880028 165.206483 
L 250.511475 165.206483 
L 255.055291 243.665298 
L 259.599106 224.050594 
L 264.142922 165.206483 
L 268.686737 204.435891 
L 273.230553 224.050594 
L 277.774368 224.050594 
L 282.318184 165.206483 
L 286.862 224.050594 
L 291.405815 243.665298 
L 295.949631 243.665298 
L 300.493446 224.050594 
L 305.037262 165.206483 
L 309.581077 243.665298 
L 314.124893 165.206483 
L 318.668708 165.206483 
L 323.212524 184.821187 
L 327.75634 243.665298 
L 332.300155 224.050594 
L 336.843971 243.665298 
L 350.475417 184.821187 
L 355.019233 184.821187 
L 359.563048 243.665298 
L 368.65068 243.665298 
L 373.194495 184.821187 
L 382.282126 224.050594 
L 391.369757 224.050594 
L 395.913573 243.665298 
L 400.457389 184.821187 
L 405.001204 204.435891 
L 409.54502 204.435891 
L 414.088835 165.206483 
L 418.632651 224.050594 
L 427.720282 224.050594 
L 432.264097 184.821187 
L 436.807913 243.665298 
L 441.351729 224.050594 
L 445.895544 224.050594 
L 450.43936 165.206483 
L 453.847821 194.633714 
L 453.847821 194.633714 
" style="fill:none;stroke:#000000;stroke-linecap:round;stroke-opacity:0.8;"/>
   </g>
   <g id="patch_13">
    <path d="M 27.864513 243.665298 
L 27.864513 145.59178 
" style="fill:none;stroke:#cccccc;stroke-linecap:square;stroke-linejoin:miter;stroke-width:0.8;"/>
   </g>
   <g id="patch_14">
    <path d="M 209.617135 243.665298 
L 209.617135 145.59178 
" style="fill:none;stroke:#cccccc;stroke-linecap:square;stroke-linejoin:miter;stroke-width:0.8;"/>
   </g>
   <g id="patch_15">
    <path d="M 27.864513 243.665298 
L 209.617135 243.665298 
" style="fill:none;stroke:#cccccc;stroke-linecap:square;stroke-linejoin:miter;stroke-width:0.8;"/>
   </g>
   <g id="patch_16">
    <path d="M 27.864513 145.59178 
L 209.617135 145.59178 
" style="fill:none;stroke:#cccccc;stroke-linecap:square;stroke-linejoin:miter;stroke-width:0.8;"/>
   </g>
   <g id="text_39">
    <!-- (c) -->
    <g style="fill:#262626;" transform="translate(28.773276 157.360602)scale(0.1 -0.1)">
     <use transform="scale(0.996264)" xlink:href="#CMSS17-40"/>
     <use transform="translate(36.433914 0)scale(0.996264)" xlink:href="#CMSS17-99"/>
     <use transform="translate(78.072736 0)scale(0.996264)" xlink:href="#CMSS17-41"/>
    </g>
   </g>
   <g id="legend_2">
    <g id="line2d_40">
     <path d="M 91.415818 156.07053 
L 107.415818 156.07053 
" style="fill:none;stroke:#1f77b4;stroke-linecap:round;stroke-opacity:0.8;"/>
    </g>
    <g id="line2d_41"/>
    <g id="text_40">
     <!-- inventory -->
     <g style="fill:#262626;" transform="translate(113.815818 158.87053)scale(0.08 -0.08)">
      <defs>
       <path d="M 41.796875 43 
L 34 43 
L 27.296875 24.296875 
C 25.203125 18.1875 22.203125 9.796875 21.703125 5.5 
L 21.59375 5.5 
C 21.40625 7.296875 20.59375 9.890625 20.09375 11.6875 
C 19.5 13.890625 18.703125 16.5 18.09375 18.296875 
L 9.296875 43 
L 1.296875 43 
L 17.09375 0 
L 26 0 
z
" id="CMSS17-118"/>
      </defs>
      <use transform="scale(0.996264)" xlink:href="#CMSS17-105"/>
      <use transform="translate(22.180723 0)scale(0.996264)" xlink:href="#CMSS17-110"/>
      <use transform="translate(70.385666 0)scale(0.996264)" xlink:href="#CMSS17-118"/>
      <use transform="translate(113.385808 0)scale(0.996264)" xlink:href="#CMSS17-101"/>
      <use transform="translate(155.02463 0)scale(0.996264)" xlink:href="#CMSS17-110"/>
      <use transform="translate(203.229573 0)scale(0.996264)" xlink:href="#CMSS17-116"/>
      <use transform="translate(237.06114 0)scale(0.996264)" xlink:href="#CMSS17-111"/>
      <use transform="translate(281.302309 0)scale(0.996264)" xlink:href="#CMSS17-114"/>
      <use transform="translate(313.212082 0)scale(0.996264)" xlink:href="#CMSS17-121"/>
     </g>
    </g>
    <g id="line2d_42">
     <path d="M 162.097973 156.07053 
L 178.097973 156.07053 
" style="fill:none;stroke:#000000;stroke-linecap:round;stroke-opacity:0.8;"/>
    </g>
    <g id="line2d_43"/>
    <g id="text_41">
     <!-- order -->
     <g style="fill:#262626;" transform="translate(184.497973 158.87053)scale(0.08 -0.08)">
      <use transform="scale(0.996264)" xlink:href="#CMSS17-111"/>
      <use transform="translate(44.24117 0)scale(0.996264)" xlink:href="#CMSS17-114"/>
      <use transform="translate(76.150942 0)scale(0.996264)" xlink:href="#CMSS17-100"/>
      <use transform="translate(124.355885 0)scale(0.996264)" xlink:href="#CMSS17-101"/>
      <use transform="translate(165.994707 0)scale(0.996264)" xlink:href="#CMSS17-114"/>
     </g>
    </g>
   </g>
  </g>
  <g id="axes_4">
   <g id="patch_17">
    <path d="M 258.677526 243.665298 
L 440.430148 243.665298 
L 440.430148 145.59178 
L 258.677526 145.59178 
z
" style="fill:#ffffff;"/>
   </g>
   <g id="matplotlib.axis_7">
    <g id="xtick_18">
     <g id="line2d_44">
      <path clip-path="url(#p95da62a3d7)" d="M 258.677526 243.665298 
L 258.677526 145.59178 
" style="fill:none;stroke:#cccccc;stroke-linecap:round;stroke-width:0.8;"/>
     </g>
     <g id="text_42">
      <!-- $\mathdefault{0}$ -->
      <g style="fill:#262626;" transform="translate(256.473108 256.4284)scale(0.0833 -0.0833)">
       <use transform="scale(0.996264)" xlink:href="#CMR17-48"/>
      </g>
     </g>
    </g>
    <g id="xtick_19">
     <g id="line2d_45">
      <path clip-path="url(#p95da62a3d7)" d="M 304.115682 243.665298 
L 304.115682 145.59178 
" style="fill:none;stroke:#cccccc;stroke-linecap:round;stroke-width:0.8;"/>
     </g>
     <g id="text_43">
      <!-- $\mathdefault{10}$ -->
      <g style="fill:#262626;" transform="translate(299.706846 256.4284)scale(0.0833 -0.0833)">
       <use transform="scale(0.996264)" xlink:href="#CMR17-49"/>
       <use transform="translate(45.690477 0)scale(0.996264)" xlink:href="#CMR17-48"/>
      </g>
     </g>
    </g>
    <g id="xtick_20">
     <g id="line2d_46">
      <path clip-path="url(#p95da62a3d7)" d="M 349.553837 243.665298 
L 349.553837 145.59178 
" style="fill:none;stroke:#cccccc;stroke-linecap:round;stroke-width:0.8;"/>
     </g>
     <g id="text_44">
      <!-- $\mathdefault{20}$ -->
      <g style="fill:#262626;" transform="translate(345.145001 256.4284)scale(0.0833 -0.0833)">
       <use transform="scale(0.996264)" xlink:href="#CMR17-50"/>
       <use transform="translate(45.690477 0)scale(0.996264)" xlink:href="#CMR17-48"/>
      </g>
     </g>
    </g>
    <g id="xtick_21">
     <g id="line2d_47">
      <path clip-path="url(#p95da62a3d7)" d="M 394.991993 243.665298 
L 394.991993 145.59178 
" style="fill:none;stroke:#cccccc;stroke-linecap:round;stroke-width:0.8;"/>
     </g>
     <g id="text_45">
      <!-- $\mathdefault{30}$ -->
      <g style="fill:#262626;" transform="translate(390.583157 256.4284)scale(0.0833 -0.0833)">
       <use transform="scale(0.996264)" xlink:href="#CMR17-51"/>
       <use transform="translate(45.690477 0)scale(0.996264)" xlink:href="#CMR17-48"/>
      </g>
     </g>
    </g>
    <g id="xtick_22">
     <g id="line2d_48">
      <path clip-path="url(#p95da62a3d7)" d="M 440.430148 243.665298 
L 440.430148 145.59178 
" style="fill:none;stroke:#cccccc;stroke-linecap:round;stroke-width:0.8;"/>
     </g>
     <g id="text_46">
      <!-- $\mathdefault{40}$ -->
      <g style="fill:#262626;" transform="translate(436.021312 256.4284)scale(0.0833 -0.0833)">
       <use transform="scale(0.996264)" xlink:href="#CMR17-52"/>
       <use transform="translate(45.690477 0)scale(0.996264)" xlink:href="#CMR17-48"/>
      </g>
     </g>
    </g>
    <g id="text_47">
     <!-- Period -->
     <g style="fill:#262626;" transform="translate(336.201108 268.960568)scale(0.1 -0.1)">
      <use transform="scale(0.996264)" xlink:href="#CMSS17-80"/>
      <use transform="translate(57.133132 0)scale(0.996264)" xlink:href="#CMSS17-101"/>
      <use transform="translate(98.771954 0)scale(0.996264)" xlink:href="#CMSS17-114"/>
      <use transform="translate(130.681727 0)scale(0.996264)" xlink:href="#CMSS17-105"/>
      <use transform="translate(152.86245 0)scale(0.996264)" xlink:href="#CMSS17-111"/>
      <use transform="translate(202.308512 0)scale(0.996264)" xlink:href="#CMSS17-100"/>
     </g>
    </g>
   </g>
   <g id="matplotlib.axis_8">
    <g id="ytick_16">
     <g id="line2d_49">
      <path clip-path="url(#p95da62a3d7)" d="M 258.677526 243.665298 
L 440.430148 243.665298 
" style="fill:none;stroke:#cccccc;stroke-linecap:round;stroke-width:0.8;"/>
     </g>
     <g id="text_48">
      <!-- $\mathdefault{0}$ -->
      <g style="fill:#262626;" transform="translate(247.26869 246.546849)scale(0.0833 -0.0833)">
       <use transform="scale(0.996264)" xlink:href="#CMR17-48"/>
      </g>
     </g>
    </g>
    <g id="ytick_17">
     <g id="line2d_50">
      <path clip-path="url(#p95da62a3d7)" d="M 258.677526 224.050594 
L 440.430148 224.050594 
" style="fill:none;stroke:#cccccc;stroke-linecap:round;stroke-width:0.8;"/>
     </g>
     <g id="text_49">
      <!-- $\mathdefault{5}$ -->
      <g style="fill:#262626;" transform="translate(247.26869 226.932145)scale(0.0833 -0.0833)">
       <use transform="scale(0.996264)" xlink:href="#CMR17-53"/>
      </g>
     </g>
    </g>
    <g id="ytick_18">
     <g id="line2d_51">
      <path clip-path="url(#p95da62a3d7)" d="M 258.677526 204.435891 
L 440.430148 204.435891 
" style="fill:none;stroke:#cccccc;stroke-linecap:round;stroke-width:0.8;"/>
     </g>
     <g id="text_50">
      <!-- $\mathdefault{10}$ -->
      <g style="fill:#262626;" transform="translate(242.859854 207.317442)scale(0.0833 -0.0833)">
       <use transform="scale(0.996264)" xlink:href="#CMR17-49"/>
       <use transform="translate(45.690477 0)scale(0.996264)" xlink:href="#CMR17-48"/>
      </g>
     </g>
    </g>
    <g id="ytick_19">
     <g id="line2d_52">
      <path clip-path="url(#p95da62a3d7)" d="M 258.677526 184.821187 
L 440.430148 184.821187 
" style="fill:none;stroke:#cccccc;stroke-linecap:round;stroke-width:0.8;"/>
     </g>
     <g id="text_51">
      <!-- $\mathdefault{15}$ -->
      <g style="fill:#262626;" transform="translate(242.859854 187.702738)scale(0.0833 -0.0833)">
       <use transform="scale(0.996264)" xlink:href="#CMR17-49"/>
       <use transform="translate(45.690477 0)scale(0.996264)" xlink:href="#CMR17-53"/>
      </g>
     </g>
    </g>
    <g id="ytick_20">
     <g id="line2d_53">
      <path clip-path="url(#p95da62a3d7)" d="M 258.677526 165.206483 
L 440.430148 165.206483 
" style="fill:none;stroke:#cccccc;stroke-linecap:round;stroke-width:0.8;"/>
     </g>
     <g id="text_52">
      <!-- $\mathdefault{20}$ -->
      <g style="fill:#262626;" transform="translate(242.859854 168.088035)scale(0.0833 -0.0833)">
       <use transform="scale(0.996264)" xlink:href="#CMR17-50"/>
       <use transform="translate(45.690477 0)scale(0.996264)" xlink:href="#CMR17-48"/>
      </g>
     </g>
    </g>
    <g id="ytick_21">
     <g id="line2d_54">
      <path clip-path="url(#p95da62a3d7)" d="M 258.677526 145.59178 
L 440.430148 145.59178 
" style="fill:none;stroke:#cccccc;stroke-linecap:round;stroke-width:0.8;"/>
     </g>
     <g id="text_53">
      <!-- $\mathdefault{25}$ -->
      <g style="fill:#262626;" transform="translate(242.859854 148.473331)scale(0.0833 -0.0833)">
       <use transform="scale(0.996264)" xlink:href="#CMR17-50"/>
       <use transform="translate(45.690477 0)scale(0.996264)" xlink:href="#CMR17-53"/>
      </g>
     </g>
    </g>
    <g id="text_54">
     <!-- Cost -->
     <g style="fill:#262626;" transform="translate(236.922676 204.010038)rotate(-90)scale(0.1 -0.1)">
      <defs>
       <path d="M 54.703125 11.015625 
C 48 6.5 44.90625 5.1875 36.796875 5.1875 
C 22.796875 5.1875 14.59375 20.375 14.59375 34.234375 
C 14.59375 49.015625 23 63.59375 37.203125 63.59375 
C 43.59375 63.59375 47.796875 61.78125 52.90625 58.5625 
L 54.296875 66.484375 
C 49.5 68.890625 43.40625 70 37.296875 70 
C 18.09375 70 6.203125 52.234375 6.203125 34.234375 
C 6.203125 14.4375 20.296875 -1.203125 36.296875 -1.203125 
C 44.90625 -1.203125 47.90625 -0.5 55.296875 4.1875 
z
" id="CMSS17-67"/>
      </defs>
      <use transform="scale(0.996264)" xlink:href="#CMSS17-67"/>
      <use transform="translate(59.855772 0)scale(0.996264)" xlink:href="#CMSS17-111"/>
      <use transform="translate(106.699395 0)scale(0.996264)" xlink:href="#CMSS17-115"/>
      <use transform="translate(142.612937 0)scale(0.996264)" xlink:href="#CMSS17-116"/>
     </g>
    </g>
   </g>
   <g id="line2d_55">
    <path clip-path="url(#p95da62a3d7)" d="M 258.677526 165.206483 
L 263.221342 224.050594 
L 267.765157 165.206483 
L 272.308973 165.206483 
L 276.852788 224.050594 
L 285.940419 224.050594 
L 290.484235 184.821187 
L 295.028051 165.206483 
L 299.571866 224.050594 
L 304.115682 165.206483 
L 308.659497 243.665298 
L 313.203313 224.050594 
L 317.747128 243.665298 
L 322.290944 165.206483 
L 326.834759 224.050594 
L 331.378575 184.821187 
L 335.922391 243.665298 
L 340.466206 184.821187 
L 345.010022 243.665298 
L 349.553837 224.050594 
L 354.097653 224.050594 
L 358.641468 243.665298 
L 363.185284 224.050594 
L 367.7291 224.050594 
L 372.272915 165.206483 
L 376.816731 243.665298 
L 381.360546 165.206483 
L 385.904362 224.050594 
L 390.448177 165.206483 
L 394.991993 204.435891 
L 399.535808 165.206483 
L 404.079624 204.435891 
L 408.62344 224.050594 
L 413.167255 204.435891 
L 417.711071 243.665298 
L 422.254886 243.665298 
L 426.798702 224.050594 
L 431.342517 184.821187 
L 435.886333 204.435891 
L 440.430148 184.821187 
L 444.973964 224.050594 
L 449.51778 184.821187 
L 453.847821 240.896839 
L 453.847821 240.896839 
" style="fill:none;stroke:#000000;stroke-linecap:round;"/>
   </g>
   <g id="patch_18">
    <path d="M 258.677526 243.665298 
L 258.677526 145.59178 
" style="fill:none;stroke:#cccccc;stroke-linecap:square;stroke-linejoin:miter;stroke-width:0.8;"/>
   </g>
   <g id="patch_19">
    <path d="M 440.430148 243.665298 
L 440.430148 145.59178 
" style="fill:none;stroke:#cccccc;stroke-linecap:square;stroke-linejoin:miter;stroke-width:0.8;"/>
   </g>
   <g id="patch_20">
    <path d="M 258.677526 243.665298 
L 440.430148 243.665298 
" style="fill:none;stroke:#cccccc;stroke-linecap:square;stroke-linejoin:miter;stroke-width:0.8;"/>
   </g>
   <g id="patch_21">
    <path d="M 258.677526 145.59178 
L 440.430148 145.59178 
" style="fill:none;stroke:#cccccc;stroke-linecap:square;stroke-linejoin:miter;stroke-width:0.8;"/>
   </g>
   <g id="text_55">
    <!-- (d) -->
    <g style="fill:#262626;" transform="translate(259.586289 157.360602)scale(0.1 -0.1)">
     <use transform="scale(0.996264)" xlink:href="#CMSS17-40"/>
     <use transform="translate(36.433914 0)scale(0.996264)" xlink:href="#CMSS17-100"/>
     <use transform="translate(84.638857 0)scale(0.996264)" xlink:href="#CMSS17-41"/>
    </g>
   </g>
   <g id="legend_3"/>
  </g>
 </g>
 <defs>
  <clipPath id="p17f8e7297a">
   <rect height="98.073518" width="181.752622" x="27.864513" y="6.604263"/>
  </clipPath>
  <clipPath id="p0282f375e3">
   <rect height="98.073518" width="181.752622" x="258.677526" y="6.604263"/>
  </clipPath>
  <clipPath id="p443fb71c7e">
   <rect height="98.073518" width="181.752622" x="27.864513" y="145.59178"/>
  </clipPath>
  <clipPath id="p95da62a3d7">
   <rect height="98.073518" width="181.752622" x="258.677526" y="145.59178"/>
  </clipPath>
 </defs>
</svg>
