<svg xmlns="http://www.w3.org/2000/svg" xmlns:xlink="http://www.w3.org/1999/xlink" x="0" y="0" width="571" height="279.33331298828125" style="
        width:571px;
        height:279.33331298828125px;
        background: #FFF;
        fill: none;
">
        
        
        <svg xmlns="http://www.w3.org/2000/svg" class="role-diagram-draw-area"><g class="shapes-region" style="stroke: black; fill: none;"><g class="composite-shape"><path class="real" d=" M494.17,31 L552.17,31 L552.17,244.5 L494.17,244.5 Z" style="stroke-width: 2px; stroke: rgb(202, 0, 25); stroke-opacity: 1; fill: rgb(202, 0, 25); fill-opacity: 0.2;"/></g><g class="composite-shape"><path class="real" d=" M157.17,31 L460.17,31 L460.17,244.5 L157.17,244.5 Z" style="stroke-width: 2px; stroke: rgb(128, 128, 128); stroke-opacity: 1; fill: rgb(128, 128, 128); fill-opacity: 0.2;"/></g><g class="composite-shape"><path class="real" d=" M3.17,30 L124.17,30 L124.17,243.5 L3.17,243.5 Z" style="stroke-width: 2px; stroke: rgb(100, 137, 62); stroke-opacity: 1; fill: rgb(100, 137, 62); fill-opacity: 0.2;"/></g><g class="composite-shape"><path class="real" d=" M77,55.29 C77,47.95 82.95,42 90.29,42 C97.63,42 103.58,47.95 103.58,55.29 C103.58,62.63 97.63,68.58 90.29,68.58 C82.95,68.58 77,62.63 77,55.29 Z" style="stroke-width: 2px; stroke: rgb(73, 73, 73); stroke-opacity: 1; fill: none; fill-opacity: 1;"/></g><g class="composite-shape"><path class="real" d=" M77,90.87 C77,83.53 82.95,77.58 90.29,77.58 C97.63,77.58 103.58,83.53 103.58,90.87 C103.58,98.22 97.63,104.17 90.29,104.17 C82.95,104.17 77,98.22 77,90.87 Z" style="stroke-width: 2px; stroke: rgb(73, 73, 73); stroke-opacity: 1; fill: none; fill-opacity: 1;"/></g><g class="composite-shape"><path class="real" d=" M77,182.04 C77,174.7 82.95,168.75 90.29,168.75 C97.63,168.75 103.58,174.7 103.58,182.04 C103.58,189.38 97.63,195.33 90.29,195.33 C82.95,195.33 77,189.38 77,182.04 Z" style="stroke-width: 2px; stroke: rgb(73, 73, 73); stroke-opacity: 1; fill: none; fill-opacity: 1;"/></g><g class="composite-shape"><path class="real" d=" M77,217.62 C77,210.28 82.95,204.33 90.29,204.33 C97.63,204.33 103.58,210.28 103.58,217.62 C103.58,224.97 97.63,230.92 90.29,230.92 C82.95,230.92 77,224.97 77,217.62 Z" style="stroke-width: 2px; stroke: rgb(73, 73, 73); stroke-opacity: 1; fill: none; fill-opacity: 1;"/></g><g class="composite-shape"><path class="real" d=" M61.83,42.35 Q54.83,42.35 54.83,49.35 L54.83,107.95 Q54.83,117.95 47.83,117.95 Q54.83,117.95 54.83,127.95 M54.83,124.95 L54.83,186.55 Q54.83,193.55 61.83,193.55" style="stroke-width: 1px; stroke: rgb(0, 0, 0); fill: none; fill-opacity: 1;"/></g><g class="composite-shape"><path class="real" d=" M180,55.29 C180,47.95 185.95,42 193.29,42 C200.63,42 206.58,47.95 206.58,55.29 C206.58,62.63 200.63,68.58 193.29,68.58 C185.95,68.58 180,62.63 180,55.29 Z" style="stroke-width: 2px; stroke: rgb(73, 73, 73); stroke-opacity: 1; fill: none; fill-opacity: 1;"/></g><g class="composite-shape"><path class="real" d=" M180,90.87 C180,83.53 185.95,77.58 193.29,77.58 C200.63,77.58 206.58,83.53 206.58,90.87 C206.58,98.22 200.63,104.17 193.29,104.17 C185.95,104.17 180,98.22 180,90.87 Z" style="stroke-width: 2px; stroke: rgb(73, 73, 73); stroke-opacity: 1; fill: none; fill-opacity: 1;"/></g><g class="composite-shape"><path class="real" d=" M180,182.04 C180,174.7 185.95,168.75 193.29,168.75 C200.63,168.75 206.58,174.7 206.58,182.04 C206.58,189.38 200.63,195.33 193.29,195.33 C185.95,195.33 180,189.38 180,182.04 Z" style="stroke-width: 2px; stroke: rgb(73, 73, 73); stroke-opacity: 1; fill: none; fill-opacity: 1;"/></g><g class="composite-shape"><path class="real" d=" M180,217.62 C180,210.28 185.95,204.33 193.29,204.33 C200.63,204.33 206.58,210.28 206.58,217.62 C206.58,224.97 200.63,230.92 193.29,230.92 C185.95,230.92 180,224.97 180,217.62 Z" style="stroke-width: 2px; stroke: rgb(73, 73, 73); stroke-opacity: 1; fill: none; fill-opacity: 1;"/></g><g class="composite-shape"><path class="real" d=" M510,91.04 C510,83.7 515.95,77.75 523.29,77.75 C530.63,77.75 536.58,83.7 536.58,91.04 C536.58,98.38 530.63,104.33 523.29,104.33 C515.95,104.33 510,98.38 510,91.04 Z" style="stroke-width: 2px; stroke: rgb(73, 73, 73); stroke-opacity: 1; fill: none; fill-opacity: 1;"/></g><g class="composite-shape"><path class="real" d=" M510,181.62 C510,174.28 515.95,168.33 523.29,168.33 C530.63,168.33 536.58,174.28 536.58,181.62 C536.58,188.97 530.63,194.92 523.29,194.92 C515.95,194.92 510,188.97 510,181.62 Z" style="stroke-width: 2px; stroke: rgb(73, 73, 73); stroke-opacity: 1; fill: none; fill-opacity: 1;"/></g><g class="composite-shape"><path class="real" d=" M410,90.87 C410,83.53 415.95,77.58 423.29,77.58 C430.63,77.58 436.58,83.53 436.58,90.87 C436.58,98.22 430.63,104.17 423.29,104.17 C415.95,104.17 410,98.22 410,90.87 Z" style="stroke-width: 2px; stroke: rgb(73, 73, 73); stroke-opacity: 1; fill: none; fill-opacity: 1;"/></g><g class="composite-shape"><path class="real" d=" M410,182.04 C410,174.7 415.95,168.75 423.29,168.75 C430.63,168.75 436.58,174.7 436.58,182.04 C436.58,189.38 430.63,195.33 423.29,195.33 C415.95,195.33 410,189.38 410,182.04 Z" style="stroke-width: 2px; stroke: rgb(73, 73, 73); stroke-opacity: 1; fill: none; fill-opacity: 1;"/></g><g class="composite-shape"><path class="real" d=" M285,55.29 C285,47.95 290.95,42 298.29,42 C305.63,42 311.58,47.95 311.58,55.29 C311.58,62.63 305.63,68.58 298.29,68.58 C290.95,68.58 285,62.63 285,55.29 Z" style="stroke-width: 2px; stroke: rgb(73, 73, 73); stroke-opacity: 1; fill: none; fill-opacity: 1;"/></g><g class="composite-shape"><path class="real" d=" M285,90.87 C285,83.53 290.95,77.58 298.29,77.58 C305.63,77.58 311.58,83.53 311.58,90.87 C311.58,98.22 305.63,104.17 298.29,104.17 C290.95,104.17 285,98.22 285,90.87 Z" style="stroke-width: 2px; stroke: rgb(73, 73, 73); stroke-opacity: 1; fill: none; fill-opacity: 1;"/></g><g class="composite-shape"><path class="real" d=" M285,182.04 C285,174.7 290.95,168.75 298.29,168.75 C305.63,168.75 311.58,174.7 311.58,182.04 C311.58,189.38 305.63,195.33 298.29,195.33 C290.95,195.33 285,189.38 285,182.04 Z" style="stroke-width: 2px; stroke: rgb(73, 73, 73); stroke-opacity: 1; fill: none; fill-opacity: 1;"/></g><g class="composite-shape"><path class="real" d=" M285,217.62 C285,210.28 290.95,204.33 298.29,204.33 C305.63,204.33 311.58,210.28 311.58,217.62 C311.58,224.97 305.63,230.92 298.29,230.92 C290.95,230.92 285,224.97 285,217.62 Z" style="stroke-width: 2px; stroke: rgb(73, 73, 73); stroke-opacity: 1; fill: none; fill-opacity: 1;"/></g><g class="arrow-line"><path class="connection real" stroke-dasharray="" d="  M103.58,55.29 L180,55.29" style="stroke: rgb(73, 73, 73); stroke-opacity: 1; stroke-width: 1px; fill: none; fill-opacity: 1;"/></g><g class="arrow-line"><path class="connection real" stroke-dasharray="1.125 3.35" d="  M103.58,55.29 L187.17,135.5" style="stroke: rgb(73, 73, 73); stroke-opacity: 1; stroke-width: 1px; fill: none; fill-opacity: 1;"/></g><g class="arrow-line"><path class="connection real" stroke-dasharray="" d="  M103.58,55.29 L180,182.04" style="stroke: rgb(73, 73, 73); stroke-opacity: 1; stroke-width: 1px; fill: none; fill-opacity: 1;"/></g><g class="arrow-line"><path class="connection real" stroke-dasharray="" d="  M103.58,90.87 L180,55.29" style="stroke: rgb(73, 73, 73); stroke-opacity: 1; stroke-width: 1px; fill: none; fill-opacity: 1;"/></g><g class="arrow-line"><path class="connection real" stroke-dasharray="" d="  M103.58,90.87 L180,90.87" style="stroke: rgb(73, 73, 73); stroke-opacity: 1; stroke-width: 1px; fill: none; fill-opacity: 1;"/></g><g class="arrow-line"><path class="connection real" stroke-dasharray="" d="  M103.58,90.87 L180,182.04" style="stroke: rgb(73, 73, 73); stroke-opacity: 1; stroke-width: 1px; fill: none; fill-opacity: 1;"/></g><g class="arrow-line"><path class="connection real" stroke-dasharray="" d="  M103.58,182.04 L180,182.04" style="stroke: rgb(73, 73, 73); stroke-opacity: 1; stroke-width: 1px; fill: none; fill-opacity: 1;"/></g><g class="arrow-line"><path class="connection real" stroke-dasharray="" d="  M103.58,182.04 L180,90.87" style="stroke: rgb(73, 73, 73); stroke-opacity: 1; stroke-width: 1px; fill: none; fill-opacity: 1;"/></g><g class="arrow-line"><path class="connection real" stroke-dasharray="" d="  M103.58,182.04 L180,55.29" style="stroke: rgb(73, 73, 73); stroke-opacity: 1; stroke-width: 1px; fill: none; fill-opacity: 1;"/></g><g class="arrow-line"><path class="connection real" stroke-dasharray="" d="  M103.58,217.62 L180,182.04" style="stroke: rgb(73, 73, 73); stroke-opacity: 1; stroke-width: 1px; fill: none; fill-opacity: 1;"/></g><g class="arrow-line"><path class="connection real" stroke-dasharray="" d="  M103.58,217.62 L180,90.87" style="stroke: rgb(73, 73, 73); stroke-opacity: 1; stroke-width: 1px; fill: none; fill-opacity: 1;"/></g><g class="arrow-line"><path class="connection real" stroke-dasharray="" d="  M103.58,217.62 L180,55.29" style="stroke: rgb(73, 73, 73); stroke-opacity: 1; stroke-width: 1px; fill: none; fill-opacity: 1;"/></g><g class="arrow-line"><path class="connection real" stroke-dasharray="1.125 3.35" d="  M103.58,90.87 L187.17,135.5" style="stroke: rgb(73, 73, 73); stroke-opacity: 1; stroke-width: 1px; fill: none; fill-opacity: 1;"/></g><g class="arrow-line"><path class="connection real" stroke-dasharray="1.125 3.35" d="  M103.58,182.04 L187.17,135.5" style="stroke: rgb(73, 73, 73); stroke-opacity: 1; stroke-width: 1px; fill: none; fill-opacity: 1;"/></g><g class="arrow-line"><path class="connection real" stroke-dasharray="1.125 3.35" d="  M103.58,217.62 L187.17,135.5" style="stroke: rgb(73, 73, 73); stroke-opacity: 1; stroke-width: 1px; fill: none; fill-opacity: 1;"/></g><g class="arrow-line"><path class="connection real" stroke-dasharray="" d="  M207.58,55.29 L284,55.29" style="stroke: rgb(73, 73, 73); stroke-opacity: 1; stroke-width: 1px; fill: none; fill-opacity: 1;"/></g><g class="arrow-line"><path class="connection real" stroke-dasharray="" d="  M207.58,55.29 L284,90.87" style="stroke: rgb(73, 73, 73); stroke-opacity: 1; stroke-width: 1px; fill: none; fill-opacity: 1;"/></g><g class="arrow-line"><path class="connection real" stroke-dasharray="1.125 3.35" d="  M207.58,55.29 L291.17,135.5" style="stroke: rgb(73, 73, 73); stroke-opacity: 1; stroke-width: 1px; fill: none; fill-opacity: 1;"/></g><g class="arrow-line"><path class="connection real" stroke-dasharray="" d="  M207.58,55.29 L284,182.04" style="stroke: rgb(73, 73, 73); stroke-opacity: 1; stroke-width: 1px; fill: none; fill-opacity: 1;"/></g><g class="arrow-line"><path class="connection real" stroke-dasharray="" d="  M207.58,90.87 L284,55.29" style="stroke: rgb(73, 73, 73); stroke-opacity: 1; stroke-width: 1px; fill: none; fill-opacity: 1;"/></g><g class="arrow-line"><path class="connection real" stroke-dasharray="" d="  M207.58,90.87 L284,90.87" style="stroke: rgb(73, 73, 73); stroke-opacity: 1; stroke-width: 1px; fill: none; fill-opacity: 1;"/></g><g class="arrow-line"><path class="connection real" stroke-dasharray="" d="  M207.58,90.87 L284,182.04" style="stroke: rgb(73, 73, 73); stroke-opacity: 1; stroke-width: 1px; fill: none; fill-opacity: 1;"/></g><g class="arrow-line"><path class="connection real" stroke-dasharray="" d="  M207.58,182.04 L284,182.04" style="stroke: rgb(73, 73, 73); stroke-opacity: 1; stroke-width: 1px; fill: none; fill-opacity: 1;"/></g><g class="arrow-line"><path class="connection real" stroke-dasharray="" d="  M207.58,182.04 L284,90.87" style="stroke: rgb(73, 73, 73); stroke-opacity: 1; stroke-width: 1px; fill: none; fill-opacity: 1;"/></g><g class="arrow-line"><path class="connection real" stroke-dasharray="" d="  M207.58,182.04 L284,55.29" style="stroke: rgb(73, 73, 73); stroke-opacity: 1; stroke-width: 1px; fill: none; fill-opacity: 1;"/></g><g class="arrow-line"><path class="connection real" stroke-dasharray="" d="  M207.58,217.62 L284,182.04" style="stroke: rgb(73, 73, 73); stroke-opacity: 1; stroke-width: 1px; fill: none; fill-opacity: 1;"/></g><g class="arrow-line"><path class="connection real" stroke-dasharray="" d="  M207.58,217.62 L284,90.87" style="stroke: rgb(73, 73, 73); stroke-opacity: 1; stroke-width: 1px; fill: none; fill-opacity: 1;"/></g><g class="arrow-line"><path class="connection real" stroke-dasharray="" d="  M207.58,217.62 L284,55.29" style="stroke: rgb(73, 73, 73); stroke-opacity: 1; stroke-width: 1px; fill: none; fill-opacity: 1;"/></g><g class="arrow-line"><path class="connection real" stroke-dasharray="1.125 3.35" d="  M207.58,90.87 L291.17,135.5" style="stroke: rgb(73, 73, 73); stroke-opacity: 1; stroke-width: 1px; fill: none; fill-opacity: 1;"/></g><g class="arrow-line"><path class="connection real" stroke-dasharray="1.125 3.35" d="  M207.58,182.04 L291.17,135.5" style="stroke: rgb(73, 73, 73); stroke-opacity: 1; stroke-width: 1px; fill: none; fill-opacity: 1;"/></g><g class="arrow-line"><path class="connection real" stroke-dasharray="1.125 3.35" d="  M207.58,217.62 L291.17,135.5" style="stroke: rgb(73, 73, 73); stroke-opacity: 1; stroke-width: 1px; fill: none; fill-opacity: 1;"/></g><g class="arrow-line"><path class="connection real" stroke-dasharray="1.125 3.35" d="  M284.9,182.28 L201.58,137.18" style="stroke: rgb(73, 73, 73); stroke-opacity: 1; stroke-width: 1px; fill: none; fill-opacity: 1;"/></g><g class="arrow-line"><path class="connection real" stroke-dasharray="1.125 3.35" d="  M285.43,91.12 L201.58,137.18" style="stroke: rgb(73, 73, 73); stroke-opacity: 1; stroke-width: 1px; fill: none; fill-opacity: 1;"/></g><g class="arrow-line"><path class="connection real" stroke-dasharray="1.125 3.35" d="  M285.63,55.53 L201.58,137.18" style="stroke: rgb(73, 73, 73); stroke-opacity: 1; stroke-width: 1px; fill: none; fill-opacity: 1;"/></g><g class="arrow-line"><path class="connection real" stroke-dasharray="1.125 3.35" d="  M311.58,55.29 L331,55.29" style="stroke: rgb(73, 73, 73); stroke-opacity: 1; stroke-width: 1px; fill: none; fill-opacity: 1;"/></g><g class="arrow-line"><path class="connection real" stroke-dasharray="" d="  M436.58,90.87 L510,90.87" style="stroke: rgb(73, 73, 73); stroke-opacity: 1; stroke-width: 1px; fill: none; fill-opacity: 1;"/></g><g class="arrow-line"><path class="connection real" stroke-dasharray="" d="  M436.58,182.04 L510,182.04" style="stroke: rgb(73, 73, 73); stroke-opacity: 1; stroke-width: 1px; fill: none; fill-opacity: 1;"/></g><g class="arrow-line"><path class="connection real" stroke-dasharray="" d="  M436.58,90.87 L510,181.62" style="stroke: rgb(73, 73, 73); stroke-opacity: 1; stroke-width: 1px; fill: none; fill-opacity: 1;"/></g><g class="arrow-line"><path class="connection real" stroke-dasharray="" d="  M436.58,182.04 L510,90.87" style="stroke: rgb(73, 73, 73); stroke-opacity: 1; stroke-width: 1px; fill: none; fill-opacity: 1;"/></g><g class="arrow-line"><path class="connection real" stroke-dasharray="1.125 3.35" d="  M311.58,55.29 L318.95,62.66 L325.31,69.02" style="stroke: rgb(73, 73, 73); stroke-opacity: 1; stroke-width: 1px; fill: none; fill-opacity: 1;"/></g><g class="arrow-line"><path class="connection real" stroke-dasharray="1.125 3.35" d="  M311.58,55.29 L318.95,47.93 L325.31,41.56" style="stroke: rgb(73, 73, 73); stroke-opacity: 1; stroke-width: 1px; fill: none; fill-opacity: 1;"/></g><g class="arrow-line"><path class="connection real" stroke-dasharray="1.125 3.35" d="  M311.58,92.29 L331,92.29" style="stroke: rgb(73, 73, 73); stroke-opacity: 1; stroke-width: 1px; fill: none; fill-opacity: 1;"/></g><g class="arrow-line"><path class="connection real" stroke-dasharray="1.125 3.35" d="  M311.58,92.29 L318.95,99.66 L325.31,106.02" style="stroke: rgb(73, 73, 73); stroke-opacity: 1; stroke-width: 1px; fill: none; fill-opacity: 1;"/></g><g class="arrow-line"><path class="connection real" stroke-dasharray="1.125 3.35" d="  M311.58,92.29 L318.95,84.93 L325.31,78.56" style="stroke: rgb(73, 73, 73); stroke-opacity: 1; stroke-width: 1px; fill: none; fill-opacity: 1;"/></g><g class="arrow-line"><path class="connection real" stroke-dasharray="1.125 3.35" d="  M311.58,183.29 L331,183.29" style="stroke: rgb(73, 73, 73); stroke-opacity: 1; stroke-width: 1px; fill: none; fill-opacity: 1;"/></g><g class="arrow-line"><path class="connection real" stroke-dasharray="1.125 3.35" d="  M311.58,183.29 L318.95,190.66 L325.31,197.02" style="stroke: rgb(73, 73, 73); stroke-opacity: 1; stroke-width: 1px; fill: none; fill-opacity: 1;"/></g><g class="arrow-line"><path class="connection real" stroke-dasharray="1.125 3.35" d="  M311.58,183.29 L318.95,175.93 L325.31,169.56" style="stroke: rgb(73, 73, 73); stroke-opacity: 1; stroke-width: 1px; fill: none; fill-opacity: 1;"/></g><g class="arrow-line"><path class="connection real" stroke-dasharray="1.125 3.35" d="  M311.58,218.29 L331,218.29" style="stroke: rgb(73, 73, 73); stroke-opacity: 1; stroke-width: 1px; fill: none; fill-opacity: 1;"/></g><g class="arrow-line"><path class="connection real" stroke-dasharray="1.125 3.35" d="  M311.58,218.29 L318.95,225.66 L325.31,232.02" style="stroke: rgb(73, 73, 73); stroke-opacity: 1; stroke-width: 1px; fill: none; fill-opacity: 1;"/></g><g class="arrow-line"><path class="connection real" stroke-dasharray="1.125 3.35" d="  M311.58,218.29 L318.95,210.93 L325.31,204.56" style="stroke: rgb(73, 73, 73); stroke-opacity: 1; stroke-width: 1px; fill: none; fill-opacity: 1;"/></g><g class="arrow-line"><path class="connection real" stroke-dasharray="1.125 3.35" d="  M310.58,138.29 L330,138.29" style="stroke: rgb(73, 73, 73); stroke-opacity: 1; stroke-width: 1px; fill: none; fill-opacity: 1;"/></g><g class="arrow-line"><path class="connection real" stroke-dasharray="1.125 3.35" d="  M310.58,138.29 L317.95,145.66 L324.31,152.02" style="stroke: rgb(73, 73, 73); stroke-opacity: 1; stroke-width: 1px; fill: none; fill-opacity: 1;"/></g><g class="arrow-line"><path class="connection real" stroke-dasharray="1.125 3.35" d="  M310.58,138.29 L317.95,130.93 L324.31,124.56" style="stroke: rgb(73, 73, 73); stroke-opacity: 1; stroke-width: 1px; fill: none; fill-opacity: 1;"/></g><g class="arrow-line"><path class="connection real" stroke-dasharray="1.125 3.35" d="  M409.29,89.78 L389.88,89.81" style="stroke: rgb(73, 73, 73); stroke-opacity: 1; stroke-width: 1px; fill: none; fill-opacity: 1;"/></g><g class="arrow-line"><path class="connection real" stroke-dasharray="1.125 3.35" d="  M409.29,89.78 L401.91,82.42 L395.54,76.07" style="stroke: rgb(73, 73, 73); stroke-opacity: 1; stroke-width: 1px; fill: none; fill-opacity: 1;"/></g><g class="arrow-line"><path class="connection real" stroke-dasharray="1.125 3.35" d="  M410,90.48 L402.65,97.86 L396.29,104.23" style="stroke: rgb(73, 73, 73); stroke-opacity: 1; stroke-width: 1px; fill: none; fill-opacity: 1;"/></g><g class="arrow-line"><path class="connection real" stroke-dasharray="1.125 3.35" d="  M409.29,182.78 L389.88,182.81" style="stroke: rgb(73, 73, 73); stroke-opacity: 1; stroke-width: 1px; fill: none; fill-opacity: 1;"/></g><g class="arrow-line"><path class="connection real" stroke-dasharray="1.125 3.35" d="  M409.29,182.78 L401.91,175.42 L395.54,169.07" style="stroke: rgb(73, 73, 73); stroke-opacity: 1; stroke-width: 1px; fill: none; fill-opacity: 1;"/></g><g class="arrow-line"><path class="connection real" stroke-dasharray="1.125 3.35" d="  M410,183.48 L402.65,190.86 L396.29,197.23" style="stroke: rgb(73, 73, 73); stroke-opacity: 1; stroke-width: 1px; fill: none; fill-opacity: 1;"/></g><g class="arrow-line"><path class="connection real" stroke-dasharray="1.125 3.35" d="  M410.29,138.78 L390.88,138.81" style="stroke: rgb(73, 73, 73); stroke-opacity: 1; stroke-width: 1px; fill: none; fill-opacity: 1;"/></g><g class="arrow-line"><path class="connection real" stroke-dasharray="1.125 3.35" d="  M409.29,137.78 L401.91,130.42 L395.54,124.07" style="stroke: rgb(73, 73, 73); stroke-opacity: 1; stroke-width: 1px; fill: none; fill-opacity: 1;"/></g><g class="arrow-line"><path class="connection real" stroke-dasharray="1.125 3.35" d="  M410,138.48 L402.65,145.86 L396.29,152.23" style="stroke: rgb(73, 73, 73); stroke-opacity: 1; stroke-width: 1px; fill: none; fill-opacity: 1;"/></g><g class="arrow-line"><path class="connection real" stroke-dasharray="" d="  M182.38,56.21 C186.64,56.42 190.49,56.55 193.29,55.29 C196.09,54.03 198.23,51.18 200.34,47.65" style="stroke: rgb(70, 67, 129); stroke-opacity: 1; stroke-width: 2px; fill: none; fill-opacity: 1;"/></g><g class="arrow-line"><path class="connection real" stroke-dasharray="" d="  M182.38,91.8 C186.64,92 190.49,92.14 193.29,90.87 C196.09,89.61 198.23,86.77 200.34,83.23" style="stroke: rgb(70, 67, 129); stroke-opacity: 1; stroke-width: 2px; fill: none; fill-opacity: 1;"/></g><g class="arrow-line"><path class="connection real" stroke-dasharray="" d="  M182.38,182.96 C186.64,183.17 190.49,183.3 193.29,182.04 C196.09,180.78 198.23,177.93 200.34,174.4" style="stroke: rgb(70, 67, 129); stroke-opacity: 1; stroke-width: 2px; fill: none; fill-opacity: 1;"/></g><g class="arrow-line"><path class="connection real" stroke-dasharray="" d="  M287.38,56.21 C291.64,56.42 295.49,56.55 298.29,55.29 C301.09,54.03 303.23,51.18 305.34,47.65" style="stroke: rgb(70, 67, 129); stroke-opacity: 1; stroke-width: 2px; fill: none; fill-opacity: 1;"/></g><g class="arrow-line"><path class="connection real" stroke-dasharray="" d="  M287.38,91.8 C291.64,92 295.49,92.14 298.29,90.87 C301.09,89.61 303.23,86.77 305.34,83.23" style="stroke: rgb(70, 67, 129); stroke-opacity: 1; stroke-width: 2px; fill: none; fill-opacity: 1;"/></g><g class="arrow-line"><path class="connection real" stroke-dasharray="" d="  M287.38,182.96 C291.64,183.17 295.49,183.3 298.29,182.04 C301.09,180.78 303.23,177.93 305.34,174.4" style="stroke: rgb(70, 67, 129); stroke-opacity: 1; stroke-width: 2px; fill: none; fill-opacity: 1;"/></g><g class="arrow-line"><path class="connection real" stroke-dasharray="" d="  M412.38,91.8 C416.64,92 420.49,92.14 423.29,90.87 C426.09,89.61 428.23,86.77 430.34,83.23" style="stroke: rgb(70, 67, 129); stroke-opacity: 1; stroke-width: 2px; fill: none; fill-opacity: 1;"/></g><g/></g><g/><g/><g/></svg>
        <svg xmlns="http://www.w3.org/2000/svg" xmlns:xlink="http://www.w3.org/1999/xlink" width="569" height="277.33331298828125" style="width:569px;height:277.33331298828125px;font-family:Asana-Math, Asana;background:#FFF;"><g transform="matrix(-1.8369701987210297e-16,-1,1,-1.8369701987210297e-16,-96.51664733886719,143.21667480468753)"><g><g><g><g><g><g transform="matrix(1,0,0,1,-5.7833251953125,125.7166748046875)"><path transform="matrix(0.017,0,0,-0.017,0,0)" d="M251 722L239 733C187 707 151 698 79 691L75 670L123 670C147 670 157 663 157 648C157 645 157 640 154 622C143 567 70 182 55 132C42 82 36 52 36 31C36 6 47 -9 66 -9C92 -9 128 12 226 85L216 103L190 86C161 67 139 56 129 56C122 56 116 66 116 76C116 82 117 89 120 104Z" stroke="rgb(0,0,0)" stroke-opacity="1" stroke-width="0" fill="rgb(0,0,0)" fill-opacity="1"></path></g></g><g><g><g><g><g transform="matrix(1,0,0,1,-0.54998779296875,128.51666870117188)"><path transform="matrix(0.0119,0,0,-0.0119,0,0)" d="M250 -20C315 -20 405 18 417 36L437 70L424 80C360 42 337 33 294 33C229 33 175 62 147 111C128 144 121 172 119 230C140 227 170 226 204 226C290 226 399 234 446 244C447 258 448 267 448 279C448 394 374 469 262 469C225 469 180 464 140 440C58 392 26 323 26 219C26 25 161 -20 250 -20ZM359 267C335 264 284 261 233 261C190 261 147 264 121 270C121 317 125 339 138 365C159 409 202 436 250 436C283 436 309 423 327 396C349 363 356 334 359 267Z" stroke="rgb(0,0,0)" stroke-opacity="1" stroke-width="0" fill="rgb(0,0,0)" fill-opacity="1"></path></g></g></g></g></g></g></g></g><g><text x="6.1500244140625" y="111.7166748046875" style="white-space:pre;stroke:none;fill:rgb(0,0,0);fill-opacity:1;font-size:15px;font-family:Arial, Helvetica, sans-serif;font-weight:400;font-style:normal;dominant-baseline:text-before-edge;text-decoration:rgb(0, 0, 0);">+</text></g><g><g><g><g><g transform="matrix(1,0,0,1,14.91668701171875,125.7166748046875)"><path transform="matrix(0.017,0,0,-0.017,0,0)" d="M251 722L239 733C187 707 151 698 79 691L75 670L123 670C147 670 157 663 157 648C157 645 157 640 154 622C143 567 70 182 55 132C42 82 36 52 36 31C36 6 47 -9 66 -9C92 -9 128 12 226 85L216 103L190 86C161 67 139 56 129 56C122 56 116 66 116 76C116 82 117 89 120 104Z" stroke="rgb(0,0,0)" stroke-opacity="1" stroke-width="0" fill="rgb(0,0,0)" fill-opacity="1"></path></g></g><g><g><g><g><g transform="matrix(1,0,0,1,20.1500244140625,128.51666870117188)"><path transform="matrix(0.0119,0,0,-0.0119,0,0)" d="M23 400L60 400C100 400 104 393 104 327L104 102C104 39 101 32 67 30L21 27L21 -3C93 -1 119 0 144 0C164 0 164 0 287 -3L287 27L235 30C190 33 188 36 188 102L188 274C188 334 228 384 277 384C307 384 328 370 344 338L365 338L374 458C363 465 345 469 327 469C297 469 265 453 244 428L188 362L188 465L179 469C128 448 76 434 23 428Z" stroke="rgb(0,0,0)" stroke-opacity="1" stroke-width="0" fill="rgb(0,0,0)" fill-opacity="1"></path></g></g></g></g></g><g><g transform="matrix(1,0,0,1,29.25,125.7166748046875)"><path transform="matrix(0.017,0,0,-0.017,0,0)" d="M604 241L604 300L364 300L364 538L305 538L305 300L65 300L65 241L305 241L305 0L364 0L364 241Z" stroke="rgb(0,0,0)" stroke-opacity="1" stroke-width="0" fill="rgb(0,0,0)" fill-opacity="1"></path></g></g><g><g transform="matrix(1,0,0,1,44,125.7166748046875)"><path transform="matrix(0.017,0,0,-0.017,0,0)" d="M418 -3L418 27L366 30C311 33 301 44 301 96L301 700L60 598L67 548L217 614L217 96C217 44 206 33 152 30L96 27L96 -3C250 0 250 0 261 0C292 0 402 -3 418 -3Z" stroke="rgb(0,0,0)" stroke-opacity="1" stroke-width="0" fill="rgb(0,0,0)" fill-opacity="1"></path></g></g></g></g></g></g></g><g transform="matrix(-1.8369701987210297e-16,-1,1,-1.8369701987210297e-16,-51.90000915527341,223.29998779296878)"><g><g><g transform="matrix(1,0,0,1,77.20001220703125,144.60000610351562)"><path transform="matrix(0.017,0,0,-0.017,0,0)" d="M499 116C469 116 442 88 442 58C442 28 469 0 498 0C530 0 558 27 558 58C558 88 530 116 499 116ZM166 116C136 116 109 88 109 58C109 28 136 0 165 0C197 0 225 27 225 58C225 88 197 116 166 116ZM832 116C802 116 775 88 775 58C775 28 802 0 831 0C863 0 891 27 891 58C891 88 863 116 832 116Z" stroke="rgb(0,0,0)" stroke-opacity="1" stroke-width="0" fill="rgb(0,0,0)" fill-opacity="1"></path></g></g></g></g><g><g><g><text x="26" y="256.5" style="white-space:pre;stroke:none;fill:rgb(100,137,62);fill-opacity:1;font-size:15px;font-family:Arial, Helvetica, sans-serif;font-weight:400;font-style:normal;dominant-baseline:text-before-edge;text-decoration:rgb(100, 137, 62);">Input layer</text></g></g></g><g><g><g><g transform="matrix(1,0,0,1,349.4000244140625,139.20001220703125)"><path transform="matrix(0.017,0,0,-0.017,0,0)" d="M499 116C469 116 442 88 442 58C442 28 469 0 498 0C530 0 558 27 558 58C558 88 530 116 499 116ZM166 116C136 116 109 88 109 58C109 28 136 0 165 0C197 0 225 27 225 58C225 88 197 116 166 116ZM832 116C802 116 775 88 775 58C775 28 802 0 831 0C863 0 891 27 891 58C891 88 863 116 832 116Z" stroke="rgb(0,0,0)" stroke-opacity="1" stroke-width="0" fill="rgb(0,0,0)" fill-opacity="1"></path></g></g></g></g><g><g><g><g><g><g><g transform="matrix(1,0,0,1,257,16.199996948242188)"><path transform="matrix(0.017,0,0,-0.017,0,0)" d="M582 103L237 692L75 692L70 664L105 662C150 660 184 615 185 606L92 102C80 40 74 32 38 28L7 25L2 -3L113 0C125 0 126 0 223 -3L228 25L186 28C146 31 137 39 137 72C137 80 138 91 140 102L220 566L558 -11L608 -11L702 542C723 655 725 659 762 662L799 664L802 691L589 692L584 664L631 662C657 661 667 654 667 638C667 631 584 116 582 103Z" stroke="rgb(128,128,128)" stroke-opacity="1" stroke-width="0" fill="rgb(128,128,128)" fill-opacity="1"></path></g></g></g></g></g><g><text x="270.2166748046875" y="2.1999969482421875" style="white-space:pre;stroke:none;fill:rgb(128,128,128);fill-opacity:1;font-size:15px;font-family:Arial, Helvetica, sans-serif;font-weight:400;font-style:normal;dominant-baseline:text-before-edge;text-decoration:rgb(128, 128, 128);"> hidden layers</text></g></g></g><g transform="matrix(-1.8369701987210297e-16,-1,1,-1.8369701987210297e-16,51.09999084472659,326.29998779296875)"><g><g><g transform="matrix(1,0,0,1,180.20001220703125,144.60000610351562)"><path transform="matrix(0.017,0,0,-0.017,0,0)" d="M499 116C469 116 442 88 442 58C442 28 469 0 498 0C530 0 558 27 558 58C558 88 530 116 499 116ZM166 116C136 116 109 88 109 58C109 28 136 0 165 0C197 0 225 27 225 58C225 88 197 116 166 116ZM832 116C802 116 775 88 775 58C775 28 802 0 831 0C863 0 891 27 891 58C891 88 863 116 832 116Z" stroke="rgb(0,0,0)" stroke-opacity="1" stroke-width="0" fill="rgb(0,0,0)" fill-opacity="1"></path></g></g></g></g><g><g><g><text x="484.0166015625" y="256.5" style="white-space:pre;stroke:none;fill:rgb(202,0,25);fill-opacity:1;font-size:15px;font-family:Arial, Helvetica, sans-serif;font-weight:400;font-style:normal;dominant-baseline:text-before-edge;text-decoration:rgb(202, 0, 25);">Output layer</text></g></g></g><g transform="matrix(-1.8369701987210297e-16,-1,1,-1.8369701987210297e-16,281.1000518798829,554.300048828125)"><g><g><g transform="matrix(1,0,0,1,409.199951171875,143.60000610351562)"><path transform="matrix(0.017,0,0,-0.017,0,0)" d="M499 116C469 116 442 88 442 58C442 28 469 0 498 0C530 0 558 27 558 58C558 88 530 116 499 116ZM166 116C136 116 109 88 109 58C109 28 136 0 165 0C197 0 225 27 225 58C225 88 197 116 166 116ZM832 116C802 116 775 88 775 58C775 28 802 0 831 0C863 0 891 27 891 58C891 88 863 116 832 116Z" stroke="rgb(0,0,0)" stroke-opacity="1" stroke-width="0" fill="rgb(0,0,0)" fill-opacity="1"></path></g></g></g></g><g transform="matrix(-1.8369701987210297e-16,-1,1,-1.8369701987210297e-16,156.10005187988287,431.300048828125)"><g><g><g transform="matrix(1,0,0,1,285.199951171875,144.60000610351562)"><path transform="matrix(0.017,0,0,-0.017,0,0)" d="M499 116C469 116 442 88 442 58C442 28 469 0 498 0C530 0 558 27 558 58C558 88 530 116 499 116ZM166 116C136 116 109 88 109 58C109 28 136 0 165 0C197 0 225 27 225 58C225 88 197 116 166 116ZM832 116C802 116 775 88 775 58C775 28 802 0 831 0C863 0 891 27 891 58C891 88 863 116 832 116Z" stroke="rgb(0,0,0)" stroke-opacity="1" stroke-width="0" fill="rgb(0,0,0)" fill-opacity="1"></path></g></g></g></g><g><g><g><g><g><g><g transform="matrix(1,0,0,1,82,222.26668701171874)"><path transform="matrix(0.0136,0,0,-0.0136,0,0)" d="M604 241L604 300L364 300L364 538L305 538L305 300L65 300L65 241L305 241L305 0L364 0L364 241Z" stroke="rgb(0,0,0)" stroke-opacity="1" stroke-width="0" fill="rgb(0,0,0)" fill-opacity="1"></path></g></g><g><g transform="matrix(1,0,0,1,91.08331298828125,222.26668701171874)"><path transform="matrix(0.0136,0,0,-0.0136,0,0)" d="M418 -3L418 27L366 30C311 33 301 44 301 96L301 700L60 598L67 548L217 614L217 96C217 44 206 33 152 30L96 27L96 -3C250 0 250 0 261 0C292 0 402 -3 418 -3Z" stroke="rgb(0,0,0)" stroke-opacity="1" stroke-width="0" fill="rgb(0,0,0)" fill-opacity="1"></path></g></g></g></g></g></g></g><g><g><g><g><g><g><g><g><g><g transform="matrix(1,0,0,1,517,98.05)"><path transform="matrix(0.015300000000000001,0,0,-0.015300000000000001,0,0)" d="M385 458C342 475 313 482 284 482C209 482 121 394 103 374C63 327 24 181 24 78C24 19 36 -11 60 -11C82 -11 101 -3 133 19C180 51 259 121 308 209L232 -205C227 -229 217 -249 205 -262L214 -276C245 -268 276 -262 300 -259C304 -205 310 -150 319 -100L405 356C416 417 422 443 432 474L418 480ZM118 59C104 59 96 80 96 113C96 209 139 359 181 409C193 424 222 433 254 433C282 433 303 427 351 406L330 311C301 174 160 59 118 59Z" stroke="rgb(0,0,0)" stroke-opacity="1" stroke-width="0" fill="rgb(0,0,0)" fill-opacity="1"></path></g></g></g></g><svg x="517" overflow="visible" y="80.566650390625" height="8" width="7.0666656494140625"><polyline points="0.00,7.15 3.53,4.79 7.07,7.15" style="fill:none;fill-opacity:1;stroke-width:1px;stroke:rgb(0,0,0);stroke-opacity:1;"></polyline></svg></g><g><g><g><g><g transform="matrix(1,0,0,1,524.9666748046875,86.60999389648438)"><path transform="matrix(0.01071,0,0,-0.01071,0,0)" d="M23 400L60 400C100 400 104 393 104 327L104 102C104 39 101 32 67 30L21 27L21 -3C93 -1 119 0 144 0C164 0 164 0 287 -3L287 27L235 30C190 33 188 36 188 102L188 274C188 334 228 384 277 384C307 384 328 370 344 338L365 338L374 458C363 465 345 469 327 469C297 469 265 453 244 428L188 362L188 465L179 469C128 448 76 434 23 428Z" stroke="rgb(0,0,0)" stroke-opacity="1" stroke-width="0" fill="rgb(0,0,0)" fill-opacity="1"></path></g></g></g></g><g><g><g><g transform="matrix(1,0,0,1,524.5333251953125,101.99332519531251)"><path transform="matrix(0.01071,0,0,-0.01071,0,0)" d="M125 390L69 107C68 99 56 61 56 31C56 6 67 -9 86 -9C121 -9 156 11 234 74L265 99L255 117L210 86C181 66 161 56 150 56C141 56 136 64 136 76C136 102 150 183 179 328L192 390L299 390L310 440C272 436 238 434 200 434C216 528 227 577 245 631L234 646C214 634 187 622 156 610L131 440C87 419 61 408 43 403L41 390Z" stroke="rgb(0,0,0)" stroke-opacity="1" stroke-width="0" fill="rgb(0,0,0)" fill-opacity="1"></path></g></g></g></g></g></g></g></g></g></g><g><g><g><g><g><g><g><g><g><g transform="matrix(1,0,0,1,517,189.05)"><path transform="matrix(0.015300000000000001,0,0,-0.015300000000000001,0,0)" d="M385 458C342 475 313 482 284 482C209 482 121 394 103 374C63 327 24 181 24 78C24 19 36 -11 60 -11C82 -11 101 -3 133 19C180 51 259 121 308 209L232 -205C227 -229 217 -249 205 -262L214 -276C245 -268 276 -262 300 -259C304 -205 310 -150 319 -100L405 356C416 417 422 443 432 474L418 480ZM118 59C104 59 96 80 96 113C96 209 139 359 181 409C193 424 222 433 254 433C282 433 303 427 351 406L330 311C301 174 160 59 118 59Z" stroke="rgb(0,0,0)" stroke-opacity="1" stroke-width="0" fill="rgb(0,0,0)" fill-opacity="1"></path></g></g></g></g><svg x="517" overflow="visible" y="171.566650390625" height="8" width="7.0666656494140625"><polyline points="0.00,7.15 3.53,4.79 7.07,7.15" style="fill:none;fill-opacity:1;stroke-width:1px;stroke:rgb(0,0,0);stroke-opacity:1;"></polyline></svg></g><g><g><g><g><g transform="matrix(1,0,0,1,524.9666748046875,177.60999389648438)"><path transform="matrix(0.01071,0,0,-0.01071,0,0)" d="M328 111L304 94C251 56 203 36 167 36C120 36 91 73 91 133C91 158 94 185 99 214C116 218 225 248 250 259C335 296 374 342 374 404C374 451 340 482 290 482C222 496 112 423 75 349C45 299 15 180 15 113C15 35 59 -11 131 -11C188 -11 244 17 336 92ZM113 274C130 343 150 386 179 412C197 428 228 440 252 440C281 440 300 420 300 388C300 344 265 297 213 272C185 258 149 247 104 237Z" stroke="rgb(0,0,0)" stroke-opacity="1" stroke-width="0" fill="rgb(0,0,0)" fill-opacity="1"></path></g></g></g></g><g><g><g><g transform="matrix(1,0,0,1,524.5333251953125,192.9933251953125)"><path transform="matrix(0.01071,0,0,-0.01071,0,0)" d="M125 390L69 107C68 99 56 61 56 31C56 6 67 -9 86 -9C121 -9 156 11 234 74L265 99L255 117L210 86C181 66 161 56 150 56C141 56 136 64 136 76C136 102 150 183 179 328L192 390L299 390L310 440C272 436 238 434 200 434C216 528 227 577 245 631L234 646C214 634 187 622 156 610L131 440C87 419 61 408 43 403L41 390Z" stroke="rgb(0,0,0)" stroke-opacity="1" stroke-width="0" fill="rgb(0,0,0)" fill-opacity="1"></path></g></g></g></g></g></g></g></g></g></g><g><g><g><g><g><g><g transform="matrix(1,0,0,1,185,222.26668701171874)"><path transform="matrix(0.0136,0,0,-0.0136,0,0)" d="M604 241L604 300L364 300L364 538L305 538L305 300L65 300L65 241L305 241L305 0L364 0L364 241Z" stroke="rgb(0,0,0)" stroke-opacity="1" stroke-width="0" fill="rgb(0,0,0)" fill-opacity="1"></path></g></g><g><g transform="matrix(1,0,0,1,194.08331298828125,222.26668701171874)"><path transform="matrix(0.0136,0,0,-0.0136,0,0)" d="M418 -3L418 27L366 30C311 33 301 44 301 96L301 700L60 598L67 548L217 614L217 96C217 44 206 33 152 30L96 27L96 -3C250 0 250 0 261 0C292 0 402 -3 418 -3Z" stroke="rgb(0,0,0)" stroke-opacity="1" stroke-width="0" fill="rgb(0,0,0)" fill-opacity="1"></path></g></g></g></g></g></g></g><g><g><g><g><g><g><g transform="matrix(1,0,0,1,291,222.26668701171874)"><path transform="matrix(0.0136,0,0,-0.0136,0,0)" d="M604 241L604 300L364 300L364 538L305 538L305 300L65 300L65 241L305 241L305 0L364 0L364 241Z" stroke="rgb(0,0,0)" stroke-opacity="1" stroke-width="0" fill="rgb(0,0,0)" fill-opacity="1"></path></g></g><g><g transform="matrix(1,0,0,1,300.0833740234375,222.26668701171874)"><path transform="matrix(0.0136,0,0,-0.0136,0,0)" d="M418 -3L418 27L366 30C311 33 301 44 301 96L301 700L60 598L67 548L217 614L217 96C217 44 206 33 152 30L96 27L96 -3C250 0 250 0 261 0C292 0 402 -3 418 -3Z" stroke="rgb(0,0,0)" stroke-opacity="1" stroke-width="0" fill="rgb(0,0,0)" fill-opacity="1"></path></g></g></g></g></g></g></g><g><g><g><g><g><g><g transform="matrix(1,0,0,1,416,187.26668701171874)"><path transform="matrix(0.0136,0,0,-0.0136,0,0)" d="M604 241L604 300L364 300L364 538L305 538L305 300L65 300L65 241L305 241L305 0L364 0L364 241Z" stroke="rgb(0,0,0)" stroke-opacity="1" stroke-width="0" fill="rgb(0,0,0)" fill-opacity="1"></path></g></g><g><g transform="matrix(1,0,0,1,425.0833740234375,187.26668701171874)"><path transform="matrix(0.0136,0,0,-0.0136,0,0)" d="M418 -3L418 27L366 30C311 33 301 44 301 96L301 700L60 598L67 548L217 614L217 96C217 44 206 33 152 30L96 27L96 -3C250 0 250 0 261 0C292 0 402 -3 418 -3Z" stroke="rgb(0,0,0)" stroke-opacity="1" stroke-width="0" fill="rgb(0,0,0)" fill-opacity="1"></path></g></g></g></g></g></g></g></svg>
</svg>
